<svg viewBox="0 0 20 20" fill="none" xmlns="http://www.w3.org/2000/svg">
  <rect width="20" height="20" rx="10" fill="#4267B2"/>
  <rect width="20" height="20" rx="10" fill="url(#a)"/>
  <path fill-rule="evenodd" clip-rule="evenodd" d="M5.247 9.471a562.554 562.554 0 0 1 4.955-2.15c2.357-.99 2.853-1.16 3.171-1.167.07 0 .227.014.333.1a.378.378 0 0 1 .12.234c.014.072.028.221.014.335-.127 1.353-.68 4.635-.963 6.144-.12.64-.353.854-.58.876-.495.043-.87-.328-1.345-.641-.75-.491-1.168-.797-1.897-1.281-.842-.556-.297-.862.184-1.36.128-.128 2.3-2.122 2.343-2.3.007-.021.007-.107-.042-.15-.05-.042-.12-.028-.177-.014-.078.015-1.267.812-3.582 2.385-.34.235-.644.35-.92.342-.304-.007-.885-.17-1.324-.313-.53-.171-.955-.264-.92-.563.022-.156.234-.313.63-.477Z" fill="#fff"/>
  <defs>
    <linearGradient id="a" x1="9.992" y1="0" x2="9.992" y2="19.842" gradientUnits="userSpaceOnUse">
      <stop stop-color="#2AABEE"/>
      <stop offset="1" stop-color="#229ED9"/>
    </linearGradient>
  </defs>
</svg>
