<svg width="120" height="36" viewBox="0 0 120 36" fill="none" xmlns="http://www.w3.org/2000/svg">
<path d="M115.556 0H4.44444C1.98985 0 0 1.98985 0 4.44444V31.1111C0 33.5657 1.98985 35.5556 4.44444 35.5556H115.556C118.01 35.5556 120 33.5657 120 31.1111V4.44444C120 1.98985 118.01 0 115.556 0Z" fill="white"/>
<path d="M115.556 0.711111C116.546 0.711111 117.495 1.10444 118.195 1.80458C118.896 2.50471 119.289 3.4543 119.289 4.44444V31.1111C119.289 32.1013 118.896 33.0508 118.195 33.751C117.495 34.4511 116.546 34.8444 115.556 34.8444H4.44444C3.4543 34.8444 2.50471 34.4511 1.80458 33.751C1.10444 33.0508 0.711111 32.1013 0.711111 31.1111V4.44444C0.711111 3.4543 1.10444 2.50471 1.80458 1.80458C2.50471 1.10444 3.4543 0.711111 4.44444 0.711111H115.556ZM115.556 0H4.44444C3.2657 0 2.13524 0.468253 1.30175 1.30175C0.468253 2.13524 0 3.2657 0 4.44444V31.1111C0 32.2899 0.468253 33.4203 1.30175 34.2538C2.13524 35.0873 3.2657 35.5556 4.44444 35.5556H115.556C116.734 35.5556 117.865 35.0873 118.698 34.2538C119.532 33.4203 120 32.2899 120 31.1111V4.44444C120 3.2657 119.532 2.13524 118.698 1.30175C117.865 0.468253 116.734 0 115.556 0Z" fill="#A6A6A6"/>
<path d="M28.5449 17.1671C28.5204 14.4374 30.78 13.1094 30.8833 13.0475C29.6036 11.1817 27.6201 10.9268 26.923 10.9065C25.2571 10.7312 23.6411 11.9033 22.7925 11.9033C21.9269 11.9033 20.6201 10.9234 19.2117 10.9522C17.3992 10.9802 15.7036 12.0295 14.7737 13.659C12.8545 16.9816 14.2859 21.8642 16.1246 24.5498C17.0443 25.8651 18.1191 27.3337 19.5259 27.2821C20.9021 27.2253 21.4162 26.4046 23.0771 26.4046C24.7227 26.4046 25.2054 27.2821 26.6402 27.249C28.1172 27.2253 29.0472 25.9278 29.9347 24.6006C30.9977 23.0931 31.4245 21.6084 31.4415 21.5322C31.4067 21.5203 28.5729 20.4388 28.5449 17.1671Z" fill="#01011B"/>
<path d="M25.8348 9.13977C26.575 8.21407 27.0815 6.95467 26.9409 5.67664C25.8695 5.72406 24.5297 6.41771 23.7581 7.32309C23.0755 8.1209 22.4657 9.42858 22.6232 10.6583C23.8267 10.7481 25.0624 10.0511 25.8348 9.13977Z" fill="#01011B"/>
<path d="M48.4621 27.0931H46.5387L45.4851 23.7825H41.823L40.8194 27.0931H38.9468L42.5751 15.8221H44.8161L48.4621 27.0931ZM45.1675 22.3935L44.2147 19.4504C44.114 19.1497 43.9251 18.4417 43.6464 17.3271H43.6126C43.5016 17.8065 43.3229 18.5145 43.0773 19.4504L42.1414 22.3935H45.1675Z" fill="#01011B"/>
<path d="M57.7929 22.9295C57.7929 24.3117 57.4194 25.4043 56.6724 26.2063C56.0033 26.9203 55.1724 27.2769 54.1807 27.2769C53.1101 27.2769 52.3411 26.8924 51.8728 26.1233H51.8389V30.4046H50.0332V21.6413C50.0332 20.7724 50.0103 19.8806 49.9663 18.9659H51.5543L51.6551 20.2541H51.689C52.2912 19.2835 53.205 18.799 54.4314 18.799C55.3901 18.799 56.1905 19.1776 56.8307 19.9356C57.4727 20.6945 57.7929 21.6922 57.7929 22.9295ZM55.9533 22.9956C55.9533 22.2046 55.7755 21.5524 55.4181 21.0392C55.0276 20.5039 54.5034 20.2363 53.8461 20.2363C53.4006 20.2363 52.9958 20.3853 52.6342 20.6792C52.2717 20.9756 52.0345 21.3627 51.9236 21.8421C51.8677 22.0657 51.8397 22.2486 51.8397 22.3926V23.7477C51.8397 24.3388 52.021 24.8377 52.3835 25.2451C52.746 25.6524 53.2169 25.8557 53.7962 25.8557C54.4763 25.8557 55.0056 25.5932 55.3842 25.0697C55.7636 24.5455 55.9533 23.8544 55.9533 22.9956Z" fill="#01011B"/>
<path d="M67.1407 22.9295C67.1407 24.3117 66.7672 25.4043 66.0193 26.2063C65.3511 26.9203 64.5202 27.2769 63.5285 27.2769C62.4579 27.2769 61.6889 26.8924 61.2214 26.1233H61.1875V30.4046H59.3819V21.6413C59.3819 20.7724 59.359 19.8806 59.3149 18.9659H60.903L61.0037 20.2541H61.0376C61.6389 19.2835 62.5528 18.799 63.78 18.799C64.7379 18.799 65.5382 19.1776 66.1802 19.9356C66.8197 20.6945 67.1407 21.6922 67.1407 22.9295ZM65.3011 22.9956C65.3011 22.2046 65.1224 21.5524 64.765 21.0392C64.3746 20.5039 63.852 20.2363 63.1939 20.2363C62.7476 20.2363 62.3436 20.3853 61.9811 20.6792C61.6186 20.9756 61.3823 21.3627 61.2714 21.8421C61.2163 22.0657 61.1875 22.2486 61.1875 22.3926V23.7477C61.1875 24.3388 61.3688 24.8377 61.7296 25.2451C62.0921 25.6516 62.563 25.8557 63.144 25.8557C63.824 25.8557 64.3534 25.5932 64.732 25.0697C65.1114 24.5455 65.3011 23.8544 65.3011 22.9956Z" fill="#01011B"/>
<path d="M77.5919 23.9324C77.5919 24.8911 77.2591 25.6711 76.5909 26.2733C75.8566 26.9314 74.8343 27.26 73.5207 27.26C72.3079 27.26 71.3356 27.0262 70.5996 26.5579L71.018 25.0529C71.8107 25.5322 72.6805 25.7728 73.6283 25.7728C74.3084 25.7728 74.8377 25.6186 75.218 25.312C75.5966 25.0054 75.7854 24.5938 75.7854 24.0806C75.7854 23.6232 75.6296 23.2379 75.3171 22.9254C75.0062 22.6128 74.4871 22.3223 73.7621 22.0539C71.7887 21.3179 70.8029 20.2397 70.8029 18.8219C70.8029 17.8954 71.1484 17.1357 71.8404 16.5445C72.5298 15.9525 73.4496 15.6569 74.5997 15.6569C75.6254 15.6569 76.4774 15.8356 77.1575 16.1922L76.706 17.6642C76.0708 17.3186 75.3526 17.1458 74.5489 17.1458C73.9137 17.1458 73.4174 17.3025 73.0617 17.6142C72.761 17.8928 72.6102 18.2325 72.6102 18.6348C72.6102 19.0802 72.7822 19.4487 73.1277 19.7383C73.4284 20.006 73.9747 20.2956 74.7674 20.6081C75.7372 20.9986 76.4494 21.4551 76.9076 21.9785C77.3641 22.5002 77.5919 23.1532 77.5919 23.9324Z" fill="#01011B"/>
<path d="M83.5618 20.3211H81.5715V24.2669C81.5715 25.2706 81.9221 25.772 82.6251 25.772C82.9478 25.772 83.2154 25.744 83.4272 25.6881L83.4771 27.0593C83.1214 27.1923 82.6531 27.2592 82.0729 27.2592C81.3598 27.2592 80.8025 27.0415 80.4002 26.607C79.9996 26.1717 79.798 25.4416 79.798 24.416V20.3194H78.6123V18.9643H79.798V17.4762L81.5715 16.9409V18.9643H83.5618V20.3211Z" fill="#01011B"/>
<path d="M92.5419 22.9627C92.5419 24.2119 92.1845 25.2376 91.4714 26.0396C90.7236 26.8654 89.7309 27.277 88.4936 27.277C87.3011 27.277 86.3516 26.8815 85.6436 26.0904C84.9356 25.2994 84.5815 24.3009 84.5815 23.0974C84.5815 21.838 84.9457 20.8064 85.6766 20.0043C86.4059 19.2014 87.39 18.8 88.6274 18.8C89.8199 18.8 90.7794 19.1955 91.5036 19.9874C92.1964 20.7556 92.5419 21.7473 92.5419 22.9627ZM90.6685 23.0211C90.6685 22.2716 90.5084 21.6288 90.184 21.0927C89.8055 20.4439 89.2643 20.1204 88.563 20.1204C87.8372 20.1204 87.2858 20.4447 86.9072 21.0927C86.5829 21.6296 86.4228 22.2826 86.4228 23.055C86.4228 23.8046 86.5829 24.4474 86.9072 24.9826C87.2977 25.6314 87.8431 25.9549 88.5469 25.9549C89.2363 25.9549 89.7775 25.6246 90.168 24.9657C90.5008 24.4194 90.6685 23.7698 90.6685 23.0211Z" fill="#01011B"/>
<path d="M98.4112 20.5539C98.2325 20.5208 98.0419 20.5039 97.842 20.5039C97.2068 20.5039 96.7156 20.7436 96.37 21.2238C96.0694 21.6473 95.9186 22.1825 95.9186 22.8287V27.0931H94.1138L94.1307 21.5253C94.1307 20.5886 94.1079 19.7357 94.063 18.9667H95.6358L95.7018 20.5217H95.7518C95.9423 19.9873 96.243 19.557 96.6546 19.2343C97.0569 18.9438 97.4914 18.799 97.9597 18.799C98.1266 18.799 98.2774 18.8109 98.4112 18.832V20.5539Z" fill="#01011B"/>
<path d="M106.486 22.645C106.486 22.9685 106.465 23.2413 106.42 23.464H101.003C101.024 24.2669 101.286 24.8809 101.789 25.3044C102.246 25.683 102.836 25.8727 103.561 25.8727C104.363 25.8727 105.095 25.7448 105.753 25.4882L106.036 26.7417C105.267 27.077 104.359 27.2439 103.311 27.2439C102.051 27.2439 101.062 26.8729 100.342 26.1319C99.6236 25.3908 99.2637 24.3956 99.2637 23.1472C99.2637 21.9217 99.5982 20.9012 100.268 20.0873C100.969 19.2183 101.917 18.7838 103.11 18.7838C104.281 18.7838 105.168 19.2183 105.77 20.0873C106.247 20.7775 106.486 21.6312 106.486 22.645ZM104.765 22.1767C104.776 21.6414 104.659 21.179 104.414 20.7885C104.101 20.2863 103.621 20.0356 102.975 20.0356C102.385 20.0356 101.904 20.2804 101.538 20.7716C101.237 21.162 101.058 21.6304 101.003 22.1758H104.765V22.1767Z" fill="#01011B"/>
<path d="M44.5705 8.88828C44.5705 9.88513 44.2715 10.6355 43.6744 11.1394C43.1214 11.6044 42.3354 11.8373 41.3174 11.8373C40.8126 11.8373 40.3807 11.8153 40.019 11.7713V6.3246C40.4908 6.24837 40.999 6.20941 41.5478 6.20941C42.5175 6.20941 43.2484 6.4203 43.7413 6.84207C44.2935 7.3189 44.5705 8.00069 44.5705 8.88828ZM43.6346 8.91284C43.6346 8.26663 43.4635 7.77117 43.1214 7.42562C42.7792 7.08091 42.2795 6.90814 41.6215 6.90814C41.342 6.90814 41.104 6.92677 40.9066 6.96573V11.1064C41.0159 11.1234 41.2158 11.131 41.5063 11.131C42.1855 11.131 42.7098 10.9421 43.079 10.5644C43.4483 10.1866 43.6346 9.63613 43.6346 8.91284Z" fill="#01011B"/>
<path d="M49.5329 9.75887C49.5329 10.3729 49.3576 10.876 49.0069 11.2707C48.6394 11.6763 48.1524 11.8788 47.5443 11.8788C46.9582 11.8788 46.4915 11.6848 46.1434 11.2952C45.7962 10.9065 45.6226 10.4161 45.6226 9.82493C45.6226 9.20666 45.8013 8.69935 46.1604 8.30552C46.5195 7.91169 47.0022 7.71436 47.6103 7.71436C48.1964 7.71436 48.6673 7.9083 49.0239 8.29705C49.3626 8.67478 49.5329 9.16262 49.5329 9.75887ZM48.6123 9.78766C48.6123 9.41924 48.5326 9.10333 48.3743 8.83994C48.1879 8.52149 47.9228 8.36226 47.5781 8.36226C47.2216 8.36226 46.9506 8.52149 46.7642 8.83994C46.605 9.10333 46.5262 9.42432 46.5262 9.80375C46.5262 10.1722 46.6059 10.4881 46.7642 10.7515C46.9565 11.0699 47.2241 11.2292 47.5697 11.2292C47.9084 11.2292 48.1744 11.0674 48.3658 10.743C48.5301 10.4745 48.6123 10.1561 48.6123 9.78766Z" fill="#01011B"/>
<path d="M56.1865 7.79565L54.9372 11.7881H54.1242L53.6067 10.0544C53.4754 9.62165 53.3687 9.19141 53.2857 8.76455H53.2696C53.1925 9.20327 53.0858 9.63266 52.9486 10.0544L52.3989 11.7881H51.5766L50.4019 7.79565H51.314L51.7654 9.69364C51.8747 10.1425 51.9645 10.5702 52.0364 10.9751H52.0525C52.1186 10.6414 52.2279 10.2162 52.382 9.70211L52.9486 7.7965H53.6719L54.2148 9.66146C54.3461 10.1163 54.4528 10.5541 54.5349 10.9759H54.5595C54.6196 10.5651 54.7102 10.1273 54.8305 9.66146L55.315 7.7965H56.1865V7.79565Z" fill="#01011B"/>
<path d="M60.7876 11.7881H59.9V9.50137C59.9 8.79672 59.6324 8.44439 59.0955 8.44439C58.8321 8.44439 58.6195 8.54095 58.4543 8.73489C58.2909 8.92884 58.2079 9.15752 58.2079 9.41922V11.7873H57.3203V8.93647C57.3203 8.58583 57.3093 8.20556 57.2881 7.79395H58.0681L58.1096 8.41814H58.1342C58.2375 8.22419 58.3916 8.06412 58.5941 7.93623C58.8346 7.78717 59.1039 7.71179 59.3987 7.71179C59.7713 7.71179 60.0813 7.83206 60.3278 8.07343C60.6343 8.36902 60.7876 8.81027 60.7876 9.39635V11.7881Z" fill="#01011B"/>
<path d="M63.2354 11.7881H62.3486V5.96375H63.2354V11.7881Z" fill="#01011B"/>
<path d="M68.4611 9.75887C68.4611 10.3729 68.2858 10.876 67.9351 11.2707C67.5676 11.6763 67.0797 11.8788 66.4725 11.8788C65.8856 11.8788 65.4189 11.6848 65.0716 11.2952C64.7244 10.9065 64.5508 10.4161 64.5508 9.82493C64.5508 9.20666 64.7295 8.69935 65.0886 8.30552C65.4477 7.91169 65.9304 7.71436 66.5377 7.71436C67.1246 7.71436 67.5947 7.9083 67.9521 8.29705C68.2909 8.67478 68.4611 9.16262 68.4611 9.75887ZM67.5396 9.78766C67.5396 9.41924 67.46 9.10333 67.3016 8.83994C67.1162 8.52149 66.8502 8.36226 66.5064 8.36226C66.1489 8.36226 65.8779 8.52149 65.6925 8.83994C65.5332 9.10333 65.4545 9.42432 65.4545 9.80375C65.4545 10.1722 65.5341 10.4881 65.6925 10.7515C65.8847 11.0699 66.1523 11.2292 66.4979 11.2292C66.8367 11.2292 67.1018 11.0674 67.2932 10.743C67.4583 10.4745 67.5396 10.1561 67.5396 9.78766Z" fill="#01011B"/>
<path d="M72.7567 11.7881H71.9597L71.8936 11.3282H71.8691C71.5964 11.695 71.2076 11.8788 70.7028 11.8788C70.3259 11.8788 70.021 11.7576 69.7915 11.5171C69.5832 11.2986 69.479 11.0267 69.479 10.704C69.479 10.2162 69.6823 9.84441 70.0913 9.58694C70.4996 9.32947 71.0738 9.20327 71.8132 9.2092V9.13467C71.8132 8.60872 71.5371 8.34617 70.984 8.34617C70.5902 8.34617 70.2429 8.44526 69.9431 8.64175L69.7627 8.05906C70.1337 7.82954 70.5919 7.71436 71.1322 7.71436C72.1757 7.71436 72.6991 8.26487 72.6991 9.36589V10.8362C72.6991 11.2351 72.7185 11.5527 72.7567 11.7881ZM71.8352 10.4161V9.80037C70.8561 9.78343 70.3666 10.0519 70.3666 10.605C70.3666 10.8133 70.4225 10.9691 70.5368 11.0733C70.6512 11.1775 70.7968 11.2292 70.9705 11.2292C71.1653 11.2292 71.3474 11.1673 71.5134 11.0445C71.6802 10.9209 71.7827 10.7642 71.8208 10.5719C71.8301 10.5287 71.8352 10.4762 71.8352 10.4161Z" fill="#01011B"/>
<path d="M77.8 11.7881H77.0123L76.9708 11.147H76.9463C76.6947 11.6348 76.2662 11.8788 75.664 11.8788C75.1829 11.8788 74.7823 11.6899 74.4647 11.3122C74.1471 10.9344 73.9888 10.4441 73.9888 9.84188C73.9888 9.19566 74.1607 8.67226 74.5062 8.2725C74.8408 7.89985 75.2507 7.71352 75.7385 7.71352C76.2746 7.71352 76.6498 7.89392 76.8633 8.25556H76.8802V5.96375H77.7686V10.7125C77.7686 11.1013 77.7788 11.4595 77.8 11.7881ZM76.8802 10.1044V9.43874C76.8802 9.32355 76.8717 9.23039 76.8556 9.15925C76.8057 8.94582 76.6981 8.76627 76.5347 8.62144C76.3695 8.47661 76.1705 8.40378 75.941 8.40378C75.6098 8.40378 75.3506 8.53505 75.1601 8.79845C74.9712 9.06185 74.8755 9.39808 74.8755 9.80885C74.8755 10.2035 74.9661 10.5237 75.1482 10.7701C75.3405 11.0327 75.5996 11.164 75.924 11.164C76.2154 11.164 76.4483 11.0547 76.6253 10.8353C76.7964 10.6329 76.8802 10.389 76.8802 10.1044Z" fill="#01011B"/>
<path d="M85.3913 9.75887C85.3913 10.3729 85.216 10.876 84.8653 11.2707C84.4978 11.6763 84.0116 11.8788 83.4027 11.8788C82.8174 11.8788 82.3508 11.6848 82.0018 11.2952C81.6546 10.9065 81.481 10.4161 81.481 9.82493C81.481 9.20666 81.6597 8.69935 82.0188 8.30552C82.3779 7.91169 82.8606 7.71436 83.4696 7.71436C84.0548 7.71436 84.5266 7.9083 84.8823 8.29705C85.221 8.67478 85.3913 9.16262 85.3913 9.75887ZM84.4715 9.78766C84.4715 9.41924 84.3919 9.10333 84.2335 8.83994C84.0463 8.52149 83.7821 8.36226 83.4365 8.36226C83.0808 8.36226 82.8098 8.52149 82.6226 8.83994C82.4634 9.10333 82.3846 9.42432 82.3846 9.80375C82.3846 10.1722 82.4643 10.4881 82.6226 10.7515C82.8149 11.0699 83.0825 11.2292 83.4281 11.2292C83.7668 11.2292 84.0336 11.0674 84.225 10.743C84.3885 10.4745 84.4715 10.1561 84.4715 9.78766Z" fill="#01011B"/>
<path d="M90.1637 11.7881H89.277V9.50137C89.277 8.79672 89.0094 8.44439 88.4716 8.44439C88.2082 8.44439 87.9956 8.54095 87.8313 8.73489C87.667 8.92884 87.5848 9.15752 87.5848 9.41922V11.7873H86.6964V8.93647C86.6964 8.58583 86.6862 8.20556 86.665 7.79395H87.4442L87.4857 8.41814H87.5103C87.6145 8.22419 87.7686 8.06412 87.9702 7.93623C88.2115 7.78717 88.48 7.71179 88.7756 7.71179C89.1474 7.71179 89.4574 7.83206 89.7038 8.07343C90.0113 8.36902 90.1637 8.81027 90.1637 9.39635V11.7881Z" fill="#01011B"/>
<path d="M96.1371 8.46048H95.1598V10.4C95.1598 10.8929 95.3334 11.1394 95.6772 11.1394C95.8365 11.1394 95.9686 11.1258 96.0728 11.0979L96.0956 11.7712C95.9203 11.8372 95.6899 11.8703 95.4062 11.8703C95.0556 11.8703 94.7829 11.7635 94.5855 11.5501C94.3873 11.3367 94.2891 10.9776 94.2891 10.4737V8.46048H93.7056V7.79564H94.2891V7.06388L95.1589 6.80133V7.79479H96.1363V8.46048H96.1371Z" fill="#01011B"/>
<path d="M100.836 11.7881H99.9476V9.51835C99.9476 8.80269 99.68 8.44443 99.1438 8.44443C98.7322 8.44443 98.451 8.65193 98.2969 9.06693C98.2706 9.15416 98.2554 9.26088 98.2554 9.38623V11.7873H97.3687V5.96375H98.2554V8.3699H98.2723C98.5518 7.93203 98.9524 7.71352 99.4716 7.71352C99.8392 7.71352 100.143 7.83379 100.385 8.07516C100.685 8.37583 100.836 8.82301 100.836 9.41417V11.7881Z" fill="#01011B"/>
<path d="M105.683 9.60302C105.683 9.76225 105.671 9.89606 105.65 10.0053H102.988C103 10.4 103.127 10.7007 103.374 10.909C103.599 11.0953 103.89 11.1885 104.245 11.1885C104.639 11.1885 104.998 11.1258 105.322 10.9996L105.461 11.6162C105.082 11.7805 104.636 11.8627 104.121 11.8627C103.502 11.8627 103.015 11.6806 102.663 11.3164C102.309 10.9522 102.134 10.4635 102.134 9.85033C102.134 9.24816 102.297 8.74677 102.627 8.34701C102.971 7.92015 103.436 7.70673 104.022 7.70673C104.597 7.70673 105.033 7.92015 105.328 8.34701C105.566 8.68579 105.683 9.10502 105.683 9.60302ZM104.836 9.3735C104.843 9.1101 104.785 8.88312 104.664 8.69172C104.51 8.44526 104.276 8.3216 103.958 8.3216C103.668 8.3216 103.432 8.44187 103.252 8.68325C103.104 8.8755 103.017 9.10502 102.988 9.3735H104.836Z" fill="#01011B"/>
</svg>
