<svg width="120" height="36" viewBox="0 0 120 36" fill="none" xmlns="http://www.w3.org/2000/svg">
<path d="M115.556 0H4.44444C1.98985 0 0 1.98985 0 4.44444V31.1111C0 33.5657 1.98985 35.5556 4.44444 35.5556H115.556C118.01 35.5556 120 33.5657 120 31.1111V4.44444C120 1.98985 118.01 0 115.556 0Z" fill="white"/>
<path d="M115.556 0.711111C116.546 0.711111 117.495 1.10444 118.195 1.80458C118.896 2.50471 119.289 3.4543 119.289 4.44444V31.1111C119.289 32.1013 118.896 33.0508 118.195 33.751C117.495 34.4511 116.546 34.8444 115.556 34.8444H4.44444C3.4543 34.8444 2.50471 34.4511 1.80458 33.751C1.10444 33.0508 0.711111 32.1013 0.711111 31.1111V4.44444C0.711111 3.4543 1.10444 2.50471 1.80458 1.80458C2.50471 1.10444 3.4543 0.711111 4.44444 0.711111H115.556ZM115.556 0H4.44444C3.2657 0 2.13524 0.468253 1.30175 1.30175C0.468253 2.13524 0 3.2657 0 4.44444V31.1111C0 32.2899 0.468253 33.4203 1.30175 34.2538C2.13524 35.0873 3.2657 35.5556 4.44444 35.5556H115.556C116.734 35.5556 117.865 35.0873 118.698 34.2538C119.532 33.4203 120 32.2899 120 31.1111V4.44444C120 3.2657 119.532 2.13524 118.698 1.30175C117.865 0.468253 116.734 0 115.556 0Z" fill="#A6A6A6"/>
<path d="M60.5689 19.3334C59.8225 19.3369 59.0939 19.5614 58.475 19.9787C57.8561 20.3959 57.3746 20.9871 57.0914 21.6777C56.8082 22.3683 56.7359 23.1273 56.8837 23.859C57.0315 24.5906 57.3927 25.2621 57.9217 25.7886C58.4507 26.3152 59.1239 26.6732 59.8562 26.8176C60.5885 26.9619 61.3472 26.8861 62.0365 26.5996C62.7257 26.3132 63.3147 25.829 63.729 25.2081C64.1434 24.5872 64.3645 23.8576 64.3645 23.1111C64.3717 22.6115 64.2784 22.1156 64.09 21.6528C63.9016 21.19 63.622 20.7698 63.2678 20.4174C62.9137 20.0649 62.4922 19.7873 62.0286 19.601C61.5649 19.4148 61.0685 19.3238 60.5689 19.3334ZM60.5689 25.4045C60.1099 25.4366 59.6518 25.3298 59.2542 25.0981C58.8566 24.8665 58.538 24.5205 58.3396 24.1053C58.1412 23.6901 58.0724 23.2248 58.142 22.7699C58.2116 22.3151 58.4164 21.8916 58.7298 21.5547C59.0432 21.2178 59.4507 20.983 59.8994 20.8807C60.348 20.7785 60.8171 20.8136 61.2455 20.9814C61.674 21.1493 62.042 21.4422 62.3018 21.822C62.5616 22.2018 62.7011 22.651 62.7023 23.1111C62.7166 23.4027 62.6724 23.6942 62.5722 23.9684C62.4721 24.2426 62.3181 24.494 62.1193 24.7077C61.9204 24.9215 61.6808 25.0932 61.4146 25.2129C61.1483 25.3326 60.8608 25.3977 60.5689 25.4045ZM52.2934 19.3334C51.5466 19.3351 50.8171 19.5582 50.197 19.9743C49.5769 20.3905 49.0941 20.9811 48.8095 21.6716C48.5249 22.362 48.4514 23.1213 48.5982 23.8536C48.7449 24.5858 49.1054 25.2581 49.6341 25.7856C50.1628 26.313 50.8359 26.6719 51.5685 26.817C52.3011 26.962 53.0602 26.8867 53.75 26.6005C54.4398 26.3143 55.0293 25.8301 55.444 25.209C55.8587 24.588 56.08 23.8579 56.08 23.1111C56.0873 22.6115 55.9939 22.1156 55.8055 21.6528C55.6171 21.19 55.3375 20.7698 54.9834 20.4174C54.6292 20.0649 54.2078 19.7873 53.7441 19.601C53.2804 19.4148 52.7841 19.3238 52.2845 19.3334H52.2934ZM52.2934 25.4045C51.8341 25.4384 51.3753 25.3332 50.9766 25.1027C50.5779 24.8722 50.2579 24.527 50.0581 24.1121C49.8584 23.6972 49.7882 23.2317 49.8567 22.7763C49.9251 22.3209 50.1291 21.8967 50.4421 21.5589C50.755 21.221 51.1625 20.9852 51.6113 20.8822C52.0601 20.7791 52.5296 20.8136 52.9586 20.9811C53.3875 21.1486 53.7562 21.4413 54.0164 21.8212C54.2767 22.2012 54.4166 22.6506 54.4178 23.1111C54.4321 23.4027 54.3879 23.6942 54.2878 23.9684C54.1877 24.2426 54.0337 24.494 53.8348 24.7077C53.636 24.9215 53.3964 25.0932 53.1301 25.2129C52.8639 25.3326 52.5763 25.3977 52.2845 25.4045H52.2934ZM42.4356 20.4978V22.0978H46.2756C46.2154 22.8514 45.9021 23.5625 45.3867 24.1156C45.0025 24.5069 44.5407 24.8135 44.0309 25.0155C43.5211 25.2176 42.9746 25.3107 42.4267 25.2889C41.2951 25.2889 40.2099 24.8394 39.4097 24.0392C38.6096 23.2391 38.16 22.1538 38.16 21.0222C38.16 19.8907 38.6096 18.8054 39.4097 18.0053C40.2099 17.2051 41.2951 16.7556 42.4267 16.7556C43.5092 16.7379 44.5545 17.1503 45.3334 17.9022L46.4623 16.7734C45.9365 16.2409 45.3091 15.8195 44.6175 15.534C43.9258 15.2484 43.1839 15.1046 42.4356 15.1111C41.6454 15.0804 40.8571 15.2095 40.1179 15.4907C39.3788 15.7719 38.704 16.1994 38.134 16.7476C37.5641 17.2958 37.1106 17.9534 36.8009 18.6811C36.4912 19.4087 36.3315 20.1914 36.3315 20.9822C36.3315 21.7731 36.4912 22.5558 36.8009 23.2834C37.1106 24.0111 37.5641 24.6687 38.134 25.2169C38.704 25.7651 39.3788 26.1926 40.1179 26.4738C40.8571 26.755 41.6454 26.8841 42.4356 26.8534C43.1964 26.8877 43.9558 26.7588 44.6626 26.4751C45.3695 26.1915 46.0074 25.7597 46.5334 25.2089C47.4646 24.1857 47.9619 22.8407 47.92 21.4578C47.9229 21.1209 47.8931 20.7845 47.8311 20.4534L42.4356 20.4978ZM82.7111 21.7422C82.4793 21.0602 82.0458 20.4647 81.468 20.0346C80.8903 19.6044 80.1954 19.3599 79.4756 19.3334C78.9894 19.3324 78.5081 19.4312 78.0616 19.6236C77.615 19.816 77.2127 20.098 76.8795 20.4521C76.5462 20.8061 76.2892 21.2248 76.1241 21.6821C75.9591 22.1395 75.8896 22.6259 75.92 23.1111C75.9092 23.6079 75.9987 24.1018 76.183 24.5633C76.3674 25.0248 76.6428 25.4444 76.993 25.797C77.3431 26.1496 77.7607 26.428 78.2209 26.6156C78.681 26.8033 79.1743 26.8962 79.6711 26.8889C80.2929 26.8923 80.9058 26.7414 81.455 26.4497C82.0041 26.1581 82.4724 25.7348 82.8178 25.2178L81.5289 24.3289C81.3366 24.6496 81.0642 24.9149 80.7386 25.0987C80.4129 25.2826 80.0451 25.3787 79.6711 25.3778C79.2861 25.3925 78.9056 25.291 78.579 25.0865C78.2524 24.882 77.9949 24.5839 77.84 24.2311L82.8978 22.1422L82.7111 21.7422ZM77.5556 23.0045C77.5376 22.7295 77.5746 22.4538 77.6645 22.1933C77.7544 21.9329 77.8953 21.693 78.0791 21.4877C78.2629 21.2824 78.4858 21.1158 78.7347 20.9977C78.9837 20.8797 79.2537 20.8124 79.5289 20.8C79.8157 20.7811 80.1016 20.8469 80.3513 20.9891C80.601 21.1313 80.8034 21.3438 80.9334 21.6L77.5556 23.0045ZM73.4489 26.6667H75.1111V15.5556H73.4489V26.6667ZM70.7289 20.1778H70.6667C70.4162 19.8977 70.1093 19.6737 69.7662 19.5205C69.423 19.3674 69.0514 19.2884 68.6756 19.2889C67.7042 19.336 66.7882 19.7551 66.1173 20.4592C65.4465 21.1634 65.0723 22.0986 65.0723 23.0711C65.0723 24.0437 65.4465 24.9789 66.1173 25.6831C66.7882 26.3872 67.7042 26.8063 68.6756 26.8534C69.0523 26.8597 69.4258 26.7834 69.7698 26.6298C70.1138 26.4762 70.4199 26.2491 70.6667 25.9645H70.72V26.5067C70.72 27.9556 69.9467 28.7289 68.7023 28.7289C68.2878 28.7192 67.8856 28.5864 67.5468 28.3474C67.2081 28.1083 66.9481 27.7739 66.8 27.3867L65.3511 27.9911C65.6239 28.6546 66.0886 29.2214 66.6857 29.6189C67.2827 30.0164 67.985 30.2265 68.7023 30.2222C70.6489 30.2222 72.2578 29.0756 72.2578 26.2845V19.5556H70.7289V20.1778ZM68.8267 25.4045C68.2533 25.3539 67.7197 25.0905 67.3309 24.666C66.9422 24.2415 66.7266 23.6867 66.7266 23.1111C66.7266 22.5355 66.9422 21.9808 67.3309 21.5563C67.7197 21.1318 68.2533 20.8683 68.8267 20.8178C69.111 20.8324 69.3895 20.9037 69.6458 21.0276C69.9021 21.1515 70.131 21.3254 70.319 21.5391C70.507 21.7528 70.6504 22.002 70.7407 22.272C70.8309 22.542 70.8662 22.8273 70.8445 23.1111C70.8687 23.3962 70.8349 23.6832 70.7451 23.9548C70.6552 24.2264 70.5112 24.477 70.3218 24.6914C70.1323 24.9058 69.9014 25.0795 69.6429 25.2021C69.3844 25.3246 69.1037 25.3935 68.8178 25.4045H68.8267ZM90.4978 15.5556H86.5245V26.6667H88.1867V22.4534H90.5067C90.9804 22.4874 91.4561 22.4235 91.904 22.2656C92.352 22.1077 92.7626 21.8592 93.1103 21.5356C93.4579 21.212 93.7352 20.8202 93.9248 20.3848C94.1144 19.9493 94.2123 19.4794 94.2123 19.0045C94.2123 18.5295 94.1144 18.0596 93.9248 17.6242C93.7352 17.1887 93.4579 16.797 93.1103 16.4734C92.7626 16.1498 92.352 15.9013 91.904 15.7434C91.4561 15.5855 90.9804 15.5215 90.5067 15.5556H90.4978ZM90.4978 20.8889H88.1778V17.1022H90.5334C91.039 17.1022 91.524 17.3031 91.8816 17.6607C92.2392 18.0183 92.44 18.5032 92.44 19.0089C92.44 19.5146 92.2392 19.9996 91.8816 20.3571C91.524 20.7147 91.039 20.9156 90.5334 20.9156L90.4978 20.8889ZM100.747 19.2889C100.142 19.2527 99.539 19.3942 99.0132 19.6958C98.4873 19.9974 98.061 20.4461 97.7867 20.9867L99.2623 21.6C99.4077 21.3319 99.628 21.1118 99.8963 20.9666C100.165 20.8215 100.469 20.7574 100.773 20.7822C100.984 20.7576 101.198 20.7752 101.402 20.8341C101.606 20.893 101.797 20.9919 101.962 21.1251C102.128 21.2583 102.265 21.4232 102.366 21.61C102.467 21.7968 102.53 22.002 102.551 22.2134V22.3289C102.017 22.0462 101.422 21.8997 100.818 21.9022C99.2267 21.9022 97.6178 22.7911 97.6178 24.4C97.6335 24.7431 97.7178 25.0795 97.8658 25.3894C98.0138 25.6993 98.2224 25.9764 98.4793 26.2043C98.7362 26.4322 99.0361 26.6063 99.3615 26.7162C99.6868 26.8262 100.031 26.8698 100.373 26.8445C100.792 26.8745 101.211 26.7914 101.586 26.6037C101.962 26.416 102.28 26.1307 102.507 25.7778H102.56V26.6667H104.16V22.3911C104.16 20.4445 102.684 19.3156 100.791 19.3156L100.747 19.2889ZM100.542 25.3778C100 25.3778 99.2445 25.1022 99.2445 24.4356C99.2445 23.5467 100.187 23.2534 101.022 23.2534C101.55 23.2403 102.072 23.3693 102.533 23.6267C102.478 24.1079 102.25 24.5529 101.892 24.8796C101.535 25.2062 101.071 25.3927 100.587 25.4045L100.542 25.3778ZM109.991 19.5556L108.089 24.3734H108.036L106.062 19.5556H104.284L107.244 26.2934L105.556 30.0356H107.289L111.84 19.5556H109.991ZM95.0489 26.6667H96.7111V15.5556H95.0489V26.6667Z" fill="#01011B"/>
<path d="M42.0956 9.15784C42.1108 9.48388 42.0595 9.80958 41.9448 10.1152C41.8302 10.4208 41.6547 10.6999 41.429 10.9356C41.1769 11.1975 40.8725 11.4033 40.5355 11.5396C40.1986 11.6759 39.8367 11.7397 39.4734 11.7267C38.9223 11.7224 38.3847 11.5556 37.928 11.247C37.4713 10.9385 37.1158 10.5021 36.906 9.99243C36.6963 9.48276 36.6416 8.92253 36.7489 8.38192C36.8561 7.84132 37.1205 7.34439 37.509 6.9534C37.7643 6.69276 38.0703 6.48728 38.4082 6.34968C38.7461 6.21207 39.1087 6.14527 39.4734 6.1534C39.8492 6.15215 40.2213 6.22777 40.5668 6.37562C40.8884 6.50536 41.1747 6.70945 41.4023 6.97118L40.9312 7.44229C40.7538 7.23126 40.5297 7.06438 40.2767 6.95485C40.0237 6.84532 39.7487 6.79613 39.4734 6.81118C39.1958 6.80981 38.9207 6.86453 38.6647 6.97205C38.4087 7.07958 38.1771 7.23768 37.9837 7.4369C37.7903 7.63611 37.6391 7.87233 37.5392 8.13139C37.4393 8.39045 37.3927 8.66702 37.4023 8.94451C37.3965 9.35885 37.5135 9.76564 37.7386 10.1135C37.9637 10.4615 38.2868 10.7349 38.6671 10.8994C39.0475 11.0639 39.468 11.1121 39.8757 11.0378C40.2834 10.9636 40.6599 10.7703 40.9579 10.4823C41.2314 10.1859 41.3891 9.80096 41.4023 9.39784H39.4734V8.75784H42.0601C42.0838 8.88986 42.0957 9.02372 42.0956 9.15784ZM46.1668 6.93562H43.7668V8.62451H45.9534V9.26451H43.7668V10.9534H46.1668V11.6112H43.0556V6.27784H46.1668V6.93562ZM49.0823 11.6112H48.3979V6.93562H46.9045V6.27784H50.6112V6.93562H49.0823V11.6112ZM53.2245 11.6112V6.27784H53.909V11.6112H53.2245ZM56.949 11.6112H56.2645V6.93562H54.7712V6.27784H58.4334V6.93562H56.949V11.6112ZM65.3756 10.9178C64.856 11.4346 64.1529 11.7247 63.4201 11.7247C62.6872 11.7247 61.9842 11.4346 61.4645 10.9178C60.9594 10.3832 60.678 9.67557 60.678 8.94007C60.678 8.20456 60.9594 7.49693 61.4645 6.96229C61.7207 6.70428 62.0253 6.49951 62.3609 6.35977C62.6966 6.22003 63.0565 6.14809 63.4201 6.14809C63.7836 6.14809 64.1436 6.22003 64.4792 6.35977C64.8148 6.49951 65.1195 6.70428 65.3756 6.96229C65.8827 7.49591 66.1655 8.20393 66.1655 8.94007C66.1655 9.6762 65.8827 10.3842 65.3756 10.9178ZM61.9712 10.4734C62.356 10.8566 62.877 11.0718 63.4201 11.0718C63.9632 11.0718 64.4841 10.8566 64.869 10.4734C65.2487 10.0547 65.4591 9.50974 65.4591 8.94451C65.4591 8.37927 65.2487 7.83427 64.869 7.41562C64.4841 7.0324 63.9632 6.81724 63.4201 6.81724C62.877 6.81724 62.356 7.0324 61.9712 7.41562C61.5914 7.83427 61.3811 8.37927 61.3811 8.94451C61.3811 9.50974 61.5914 10.0547 61.9712 10.4734ZM67.1267 11.6112V6.27784H67.9623L70.5579 10.429V6.27784H71.2423V11.6112H70.5312L67.8201 7.26451V11.6112H67.1267Z" fill="#01011B"/>
<path fill-rule="evenodd" clip-rule="evenodd" d="M63.4201 6.23698C63.0683 6.23698 62.7199 6.3066 62.3951 6.44183C62.0706 6.57692 61.7761 6.77481 61.5284 7.02413C61.0394 7.54218 60.7669 8.22763 60.7669 8.94007C60.7669 9.65241 61.0393 10.3378 61.5282 10.8558C62.0311 11.3554 62.7112 11.6358 63.4201 11.6358C64.129 11.6358 64.8092 11.3553 65.3121 10.8557C65.8029 10.3387 66.0766 9.65299 66.0766 8.94007C66.0766 8.22705 65.8029 7.54127 65.3119 7.02425C65.0642 6.77488 64.7696 6.57694 64.4451 6.44183C64.1203 6.3066 63.7719 6.23698 63.4201 6.23698ZM62.3268 6.27771C62.6732 6.13347 63.0448 6.0592 63.4201 6.0592C63.7954 6.0592 64.1669 6.13347 64.5134 6.27771C64.8598 6.42196 65.1743 6.63333 65.4387 6.89966L65.4401 6.90104C65.9629 7.45119 66.2544 8.18114 66.2544 8.94007C66.2544 9.69899 65.9629 10.4289 65.4401 10.9791L65.4383 10.9809C64.902 11.5142 64.1764 11.8136 63.4201 11.8136C62.6637 11.8136 61.9382 11.5142 61.4018 10.9809L61.3999 10.9789C60.8792 10.4278 60.5891 9.69827 60.5891 8.94007C60.5891 8.18186 60.8792 7.45239 61.3999 6.90124L61.4014 6.89964C61.6658 6.63331 61.9803 6.42196 62.3268 6.27771ZM39.4714 6.24226C39.1188 6.23441 38.7684 6.29898 38.4418 6.432C38.1151 6.56502 37.8193 6.76365 37.5725 7.0156L37.572 7.01605C37.1959 7.39462 36.9399 7.87578 36.8361 8.39922C36.7322 8.92266 36.7851 9.46511 36.9882 9.9586C37.1913 10.4521 37.5355 10.8747 37.9778 11.1734C38.42 11.4721 38.9405 11.6337 39.4741 11.6378L39.4766 11.6379C39.8273 11.6504 40.1768 11.5888 40.5022 11.4572C40.8275 11.3256 41.1214 11.1269 41.3648 10.8741C41.5822 10.6471 41.7513 10.3783 41.8616 10.084C41.972 9.78965 42.0214 9.47596 42.0068 9.16196L42.0956 9.15784L42.0068 9.15781C42.0068 9.05368 41.9993 8.94972 41.9845 8.84673H39.5623V9.30895H41.4941L41.4911 9.40075C41.4773 9.82519 41.3112 10.2305 41.0232 10.5426L41.0197 10.5463C40.7092 10.8465 40.3166 11.0479 39.8916 11.1253C39.4667 11.2027 39.0283 11.1525 38.6319 10.981C38.2354 10.8095 37.8986 10.5245 37.664 10.1618C37.4297 9.79978 37.3078 9.37657 37.3134 8.94542C37.3037 8.65669 37.3523 8.36897 37.4563 8.09941C37.5605 7.82918 37.7182 7.58278 37.9199 7.37498C38.1216 7.16718 38.3633 7.00226 38.6303 6.8901C38.8965 6.77829 39.1825 6.72121 39.4712 6.72228C39.7594 6.70694 40.0472 6.75862 40.312 6.87328C40.5481 6.97546 40.7601 7.12516 40.9351 7.31268L41.2797 6.96809C41.071 6.74634 40.8165 6.5722 40.5335 6.45806L40.5318 6.45736C40.1974 6.31428 39.8374 6.24107 39.4737 6.24229L39.4714 6.24226ZM42.1845 9.1558C42.1999 9.49317 42.1467 9.83016 42.0281 10.1464C41.9092 10.4633 41.7273 10.7527 41.4932 10.9971C41.2324 11.268 40.9174 11.481 40.5688 11.622C40.2207 11.7628 39.8468 11.8288 39.4715 11.8156C38.9033 11.8109 38.3491 11.6388 37.8782 11.3207C37.407 11.0024 37.0402 10.5521 36.8238 10.0263C36.6074 9.50041 36.551 8.92239 36.6617 8.36462C36.7723 7.80696 37.045 7.29434 37.4457 6.89097C37.7095 6.62175 38.0257 6.40951 38.3747 6.26735C38.7235 6.12531 39.0977 6.05627 39.4743 6.06451C39.8615 6.06337 40.2448 6.14131 40.6009 6.29354C40.9352 6.42854 41.2328 6.64076 41.4694 6.91285L41.5238 6.97541L40.9255 7.57367L40.8632 7.49949C40.6946 7.29901 40.4818 7.14048 40.2414 7.03643C40.0011 6.93237 39.7398 6.88564 39.4783 6.89993L39.473 6.90022C39.2073 6.89892 38.9441 6.95112 38.6991 7.05401C38.4542 7.15689 38.2325 7.30819 38.0475 7.49882C37.8624 7.68945 37.7177 7.91548 37.6221 8.16338C37.5265 8.41127 37.482 8.67591 37.4911 8.94144L37.4913 8.94576C37.4857 9.34254 37.5977 9.73209 37.8132 10.0653C38.0288 10.3984 38.3382 10.6603 38.7024 10.8178C39.0666 10.9753 39.4694 11.0215 39.8598 10.9504C40.2493 10.8794 40.6092 10.695 40.8943 10.4201C41.1314 10.1623 41.2763 9.83401 41.3078 9.48673H39.3845V8.66895H42.1344L42.1476 8.74213C42.1721 8.87866 42.1845 9.01709 42.1845 9.1558ZM42.9668 6.18895H46.2556V7.02451H43.8556V8.53562H46.0423V9.3534H43.8556V10.8645H46.2556V11.7001H42.9668V6.18895ZM43.1445 6.36673V11.5223H46.0779V11.0423H43.6779V9.17562H45.8645V8.7134H43.6779V6.84673H46.0779V6.36673H43.1445ZM46.8156 6.18895H50.7001V7.02451H49.1712V11.7001H48.309V7.02451H46.8156V6.18895ZM46.9934 6.36673V6.84673H48.4868V11.5223H48.9934V6.84673H50.5223V6.36673H46.9934ZM53.1356 6.18895H53.9979V11.7001H53.1356V6.18895ZM53.3134 6.36673V11.5223H53.8201V6.36673H53.3134ZM54.6823 6.18895H58.5223V7.02451H57.0379V11.7001H56.1756V7.02451H54.6823V6.18895ZM54.8601 6.36673V6.84673H56.3534V11.5223H56.8601V6.84673H58.3445V6.36673H54.8601ZM67.0379 6.18895H68.0116L70.469 10.1191V6.18895H71.3312V11.7001H70.4819L67.909 7.57499V11.7001H67.0379V6.18895ZM67.2156 6.36673V11.5223H67.7312V6.95403L70.5805 11.5223H71.1534V6.36673H70.6467V10.7388L67.913 6.36673H67.2156ZM61.9085 7.35264C62.31 6.95283 62.8535 6.72835 63.4201 6.72835C63.9867 6.72835 64.5302 6.95283 64.9317 7.35264L64.9349 7.35582C65.3295 7.79082 65.548 8.35719 65.548 8.94451C65.548 9.53182 65.3294 10.0981 64.9348 10.5331L64.9318 10.5365C64.5303 10.9363 63.9867 11.1607 63.4201 11.1607C62.8535 11.1607 62.31 10.9362 61.9085 10.5364L61.9712 10.4734L61.9054 10.5331C61.5108 10.0981 61.2922 9.53182 61.2922 8.94451C61.2922 8.35719 61.5108 7.7909 61.9054 7.3559L61.9085 7.35264ZM62.0355 10.412C62.4035 10.7776 62.9013 10.9829 63.4201 10.9829C63.9389 10.9829 64.4366 10.7776 64.8046 10.412C65.1686 10.0099 65.3702 9.48692 65.3702 8.94451C65.3702 8.4021 65.1686 7.87908 64.8046 7.47701C64.4366 7.11138 63.9389 6.90613 63.4201 6.90613C62.9013 6.90613 62.4035 7.11138 62.0355 7.47701C61.6715 7.87908 61.47 8.4021 61.47 8.94451C61.47 9.48692 61.6715 10.0099 62.0355 10.412Z" fill="#01011B"/>
<path d="M9.32925 29.0653L20.2187 17.7709L9.33837 6.49664C9.04776 6.67217 8.86792 7.07858 8.86792 7.61057V27.9622C8.87182 28.4942 9.04515 28.8709 9.32925 29.0653Z" fill="#01011B"/>
<path d="M20.6087 17.4589L23.8524 14.0942L10.6433 6.5817C10.4209 6.44766 10.1682 6.37685 9.91089 6.37646L20.6074 17.4576L20.6087 17.4589Z" fill="#01011B"/>
<path d="M20.6088 18.0841L9.87842 29.2138C10.1477 29.2185 10.413 29.1456 10.6447 29.0032L23.8798 21.4704L20.6088 18.0841Z" fill="#01011B"/>
<path d="M28.6375 16.8203L24.2419 14.3157L20.9097 17.7722L24.2667 21.2503L28.6362 18.7524C29.5654 18.2218 29.5654 17.3482 28.6375 16.8203Z" fill="#01011B"/>
</svg>
