<svg 
 xmlns="http://www.w3.org/2000/svg"
 xmlns:xlink="http://www.w3.org/1999/xlink"
 width="56px" height="83px">
<path fill-rule="evenodd"  fill="#ffca00"
 d="M55.890,56.822 L49.723,72.794 C49.503,73.357 49.002,73.771 48.399,73.885 C48.289,73.910 48.179,73.920 48.065,73.920 C47.575,73.920 47.099,73.719 46.759,73.361 L37.810,63.844 C37.696,63.903 37.587,63.978 37.471,64.033 C35.145,65.131 30.420,65.249 28.496,65.249 C26.571,65.249 21.842,65.131 19.520,64.033 C19.405,63.978 19.298,63.904 19.185,63.846 L10.236,73.364 C9.891,73.722 9.419,73.920 8.929,73.920 C8.816,73.920 8.706,73.910 8.592,73.889 C7.988,73.775 7.488,73.361 7.268,72.798 L1.097,56.825 C0.852,56.189 1.008,55.469 1.495,54.989 L9.106,47.455 C8.242,43.253 7.938,38.566 8.329,33.659 C9.781,15.495 26.617,1.018 27.334,0.410 C28.002,-0.153 28.993,-0.153 29.656,0.410 C30.374,1.018 47.209,15.495 48.662,33.659 C49.054,38.565 48.751,43.252 47.887,47.453 L55.493,54.985 C55.983,55.469 56.135,56.189 55.890,56.822 ZM4.821,56.641 L9.572,68.935 L16.278,61.802 C13.629,59.388 11.527,55.779 10.126,51.388 L4.821,56.641 ZM45.122,33.930 C43.996,19.852 32.273,7.683 28.496,4.102 C24.721,7.680 12.994,19.849 11.869,33.930 C10.861,46.569 14.727,57.910 21.064,60.903 C22.328,61.500 25.804,61.773 28.496,61.773 C31.187,61.773 34.662,61.500 35.930,60.903 C42.267,57.914 46.134,46.569 45.122,33.930 ZM46.867,51.386 C45.466,55.776 43.364,59.385 40.717,61.799 L47.423,68.932 L52.169,56.637 L46.867,51.386 ZM28.496,40.403 C22.708,40.403 17.997,35.794 17.997,30.123 C17.997,24.456 22.708,19.845 28.496,19.845 C34.282,19.845 38.994,24.456 38.994,30.123 C38.994,35.794 34.286,40.403 28.496,40.403 ZM28.496,23.322 C24.665,23.322 21.547,26.375 21.547,30.123 C21.547,33.874 24.665,36.927 28.496,36.927 C32.326,36.927 35.444,33.874 35.444,30.123 C35.444,26.375 32.326,23.322 28.496,23.322 ZM21.753,66.557 C22.733,66.557 23.528,67.336 23.528,68.295 C23.528,72.112 26.454,76.327 28.488,78.673 C30.299,76.583 33.462,72.360 33.462,68.295 C33.462,67.336 34.258,66.557 35.238,66.557 C36.218,66.557 37.013,67.336 37.013,68.295 C37.013,75.433 30.036,82.206 29.738,82.491 C29.394,82.821 28.946,82.988 28.496,82.988 C28.048,82.988 27.601,82.821 27.253,82.491 C26.955,82.206 19.978,75.433 19.978,68.295 C19.978,67.336 20.773,66.557 21.753,66.557 Z"/>
</svg>