<svg xmlns="http://www.w3.org/2000/svg" width="30.001" height="30.001" viewBox="0 0 42 42">
  <defs>
    <style>
      .cls-1 {
        fill: #ff4552;
        fill-rule: evenodd;
      }
    </style>
  </defs>
  <path id="error" class="cls-1" d="M3530,5211a21,21,0,1,1,21-21A21.023,21.023,0,0,1,3530,5211Zm0-39.67a18.67,18.67,0,1,0,18.66,18.67A18.7,18.7,0,0,0,3530,5171.33Zm8.99,27.66a1.171,1.171,0,0,1-1.65,0l-7.34-7.34-7.34,7.34a1.165,1.165,0,0,1-.83.34,1.126,1.126,0,0,1-.82-0.34,1.159,1.159,0,0,1,0-1.65l7.34-7.34-7.34-7.34a1.167,1.167,0,0,1,1.65-1.65l7.34,7.34,7.34-7.34a1.167,1.167,0,0,1,1.65,1.65l-7.34,7.34,7.34,7.34A1.159,1.159,0,0,1,3538.99,5198.99Z" transform="translate(-3509 -5169)"/>
</svg>
