<svg xmlns="http://www.w3.org/2000/svg" xmlns:xlink="http://www.w3.org/1999/xlink" width="56px" height="58px">
  <path fill-rule="evenodd"  fill="rgb(255, 202, 0)" d="M12.806,9.829 L40.749,16.627 C41.557,16.823 42.051,17.633 41.854,18.435 C41.656,19.238 40.841,19.729 40.033,19.532 L12.090,12.729 C10.102,12.232 8.085,13.431 7.584,15.406 C7.568,15.470 7.554,15.534 7.541,15.599 C7.375,16.409 6.579,16.933 5.763,16.767 C4.948,16.602 4.421,15.811 4.587,15.001 L4.587,15.001 C5.308,11.382 8.845,9.031 12.486,9.747 C12.583,9.766 12.680,9.788 12.776,9.811 L12.806,9.829 ZM19.756,4.897 C20.753,3.117 23.014,2.476 24.806,3.467 C24.854,3.494 24.902,3.522 24.949,3.551 L49.757,18.767 C50.450,19.222 51.383,19.031 51.841,18.342 C52.298,17.653 52.106,16.726 51.413,16.271 C51.389,16.255 51.364,16.241 51.339,16.226 L26.531,1.010 C23.373,-0.929 19.232,0.044 17.281,3.182 C17.228,3.268 17.176,3.355 17.126,3.443 C16.723,4.165 16.984,5.075 17.710,5.476 C18.436,5.878 19.352,5.618 19.756,4.897 ZM55.997,51.387 C55.990,55.040 53.011,57.999 49.336,58.006 L6.663,58.006 C2.987,57.999 0.009,55.040 0.002,51.387 L0.002,27.872 C-0.001,24.213 2.980,21.243 6.663,21.236 L49.336,21.236 C53.019,21.243 56.000,24.213 55.997,27.872 L55.997,51.387 ZM52.988,27.872 C52.995,25.865 51.362,24.232 49.342,24.226 C49.340,24.226 49.338,24.226 49.336,24.226 L6.663,24.226 C4.642,24.229 3.007,25.860 3.011,27.867 C3.011,27.869 3.011,27.871 3.011,27.872 L3.011,51.387 C3.014,53.391 4.647,55.013 6.663,55.017 L49.336,55.017 C51.351,55.013 52.985,53.391 52.988,51.387 L52.988,27.872 ZM50.082,35.705 L50.082,43.556 C50.082,44.255 49.595,44.860 48.909,45.014 C45.912,45.690 43.572,48.015 42.891,50.993 C42.737,51.675 42.127,52.159 41.423,52.159 L14.545,52.159 C13.842,52.159 13.232,51.675 13.077,50.993 C12.454,48.296 10.461,46.116 7.818,45.241 C6.684,44.871 5.917,43.821 5.917,42.634 L5.917,36.655 C5.917,35.469 6.684,34.418 7.818,34.049 C10.462,33.174 12.456,30.990 13.077,28.291 C13.232,27.609 13.842,27.124 14.545,27.125 L41.453,27.125 C42.157,27.124 42.767,27.609 42.921,28.291 C43.601,31.269 45.941,33.595 48.938,34.270 C49.604,34.434 50.074,35.024 50.082,35.705 ZM47.073,36.828 C43.915,35.727 41.432,33.259 40.322,30.121 L15.652,30.121 C14.549,33.254 12.075,35.722 8.925,36.828 L8.925,42.431 C12.084,43.533 14.568,46.001 15.677,49.139 L40.346,49.139 C41.450,46.007 43.924,43.539 47.073,42.431 L47.073,36.828 Z"/>
</svg>