<svg xmlns="http://www.w3.org/2000/svg" xmlns:xlink="http://www.w3.org/1999/xlink" width="39px" height="60px">
  <path fill-rule="evenodd"  fill="rgb(255, 202, 0)" d="M38.000,39.000 L37.932,39.023 L37.932,53.765 C37.932,55.436 37.303,56.984 36.160,58.125 C35.075,59.305 33.442,59.989 31.691,59.989 C24.747,59.922 18.799,59.946 13.550,59.969 C11.056,59.979 8.670,59.989 6.335,59.989 L6.236,59.989 C4.522,59.989 2.894,59.344 1.767,58.222 C0.608,57.066 -0.005,55.525 -0.005,53.765 L-0.005,6.119 C-0.005,2.455 2.503,-0.008 6.236,-0.008 L31.691,-0.008 C33.354,-0.008 35.105,0.708 36.258,1.858 C37.401,2.997 38.030,4.545 38.030,6.217 C38.030,6.974 38.030,7.756 38.125,8.515 L38.000,39.000 ZM3.079,53.765 C3.079,54.779 3.364,55.557 3.951,56.142 C4.576,56.765 5.458,57.108 6.432,57.108 L31.789,57.108 C32.675,57.108 33.566,56.748 34.172,56.142 C34.559,55.690 35.044,54.907 35.044,53.862 L35.044,50.421 L3.079,50.421 L3.079,53.765 ZM34.270,3.936 C33.520,3.283 32.726,2.970 31.789,2.970 L6.335,2.970 C4.266,2.970 3.079,4.118 3.079,6.119 L3.079,47.442 L35.044,47.442 L35.044,39.985 L35.000,40.000 L35.142,6.119 C35.142,5.248 34.849,4.514 34.270,3.936 ZM23.272,9.512 L14.852,9.512 C13.958,9.512 13.310,8.865 13.310,7.974 C13.310,7.084 13.958,6.437 14.852,6.437 L23.272,6.437 C24.165,6.437 24.814,7.084 24.814,7.974 C24.814,8.865 24.165,9.512 23.272,9.512 ZM19.062,55.790 C17.978,55.790 17.128,54.944 17.128,53.862 C17.128,52.781 17.978,51.934 19.062,51.934 C20.146,51.934 20.995,52.781 20.995,53.862 C20.995,54.944 20.146,55.790 19.062,55.790 Z"/>
</svg>