<svg id="sign" xmlns="http://www.w3.org/2000/svg" width="145.5" height="36.5" viewBox="0 0 291 73">
  <defs>
    <style>
      .cls-1 {
        fill: #f4a800;
      }

      .cls-1, .cls-2, .cls-3 {
        fill-rule: evenodd;
      }

      .cls-2 {
        fill: #ffbb13;
      }
    </style>
  </defs>
  <path id="Shape_5_copy_16" data-name="Shape 5 copy 16" class="cls-1" d="M160.109,120.076a6.433,6.433,0,1,0-9.11,9.086L175.9,154l9.111-9.088Z" transform="translate(-126 -81)"/>
  <path id="Shape_5_copy_15" data-name="Shape 5 copy 15" class="cls-1" d="M186,105.836L161.1,81l-9.11,9.087,24.9,24.837A6.434,6.434,0,1,0,186,105.836Z" transform="translate(-126 -81)"/>
  <path id="Shape_5_copy_6" data-name="Shape 5 copy 6" class="cls-2" d="M162.032,82.334L161.1,81l-33.209,33.046a6.434,6.434,0,0,0,9.1,9.1L161.858,98.4C167.167,93.117,164.293,85.582,162.032,82.334Z" transform="translate(-126 -81)"/>
  <path id="Shape_5_copy_4" data-name="Shape 5 copy 4" class="cls-2" d="M209.119,111.866a6.462,6.462,0,0,0-9.11-.011L175.144,136.6c-5.309,5.282-2.435,12.818-.173,16.064L175.9,154l33.209-33.047A6.42,6.42,0,0,0,209.119,111.866Z" transform="translate(-126 -81)"/>
  <path id="AnyPay" class="cls-3" d="M266.633,132h7.321L260.8,96.611h-6.762L240.924,132h7.321l2.408-7.077h13.572Zm-13.961-13.061,4.718-13.888h0.049l4.743,13.888h-9.51Zm40.034-11.675a10.139,10.139,0,0,0-7.807,3.551h-0.073v-3.137h-6.519V132h6.519V119.766c0-4.329,2.213-6.64,5.521-6.64,3.016,0,4.67,1.435,4.67,6.081v12.818h6.518V117.577c0-7.491-3.624-10.313-8.829-10.313h0Zm29.533,0.413-5.57,15.056H316.6l-5.958-15.056h-6.811l9.729,22.815-4.329,11.358h6.664L329,107.677h-6.762ZM333.891,132H340.8V119.888h5.521c7.783,0,12.964-3.722,12.964-11.481,0-6.786-3.721-11.8-12.307-11.8H333.891V132Zm6.908-18.314V102.838h4.937c4.086,0,6.3,2.14,6.3,5.423,0,3.26-2.189,5.424-6.592,5.424H340.8Zm40.851-6.009v2.749h-0.1a9.174,9.174,0,0,0-7.175-3.162c-6.518,0-11.456,5.253-11.456,12.647,0,7.516,4.913,12.5,11.651,12.5a8.769,8.769,0,0,0,7.272-3.357h0.122V132h6.2V107.677H381.65Zm-5.886,18.9c-3.649,0-6.227-2.7-6.227-6.64,0-4.159,2.749-6.811,6.251-6.811,3.527,0,6.13,2.919,6.13,6.811,0,3.989-2.774,6.64-6.154,6.64h0Zm34.475-18.9-5.57,15.056H404.6l-5.958-15.056h-6.811l9.729,22.815-4.329,11.358h6.664L417,107.677h-6.762Z" transform="translate(-126 -81)"/>
</svg>
