<svg id="sign" xmlns="http://www.w3.org/2000/svg" width="132.5" height="115.953" viewBox="0 0 265 231.906">
  <defs>
    <style>
      .cls-1 {
        fill: #f4a800;
      }

      .cls-1, .cls-2, .cls-3 {
        fill-rule: evenodd;
      }

      .cls-2 {
        fill: #ffbb13;
      }
    </style>
  </defs>
  <path id="Shape_5_copy_16" data-name="Shape 5 copy 16" class="cls-1" d="M1728.96,257.079a10.7,10.7,0,1,0-15.13,15.133l41.37,41.365,15.14-15.135Z" transform="translate(-1608.44 -192)"/>
  <path id="Shape_5_copy_15" data-name="Shape 5 copy 15" class="cls-1" d="M1771.99,233.363L1730.61,192l-15.14,15.134,41.38,41.365A10.7,10.7,0,0,0,1771.99,233.363Z" transform="translate(-1608.44 -192)"/>
  <path id="Shape_5_copy_6" data-name="Shape 5 copy 6" class="cls-2" d="M1732.16,194.222L1730.61,192l-55.17,55.036a10.7,10.7,0,0,0,15.12,15.151l41.31-41.208C1740.69,212.179,1735.92,199.629,1732.16,194.222Z" transform="translate(-1608.44 -192)"/>
  <path id="Shape_5_copy_4" data-name="Shape 5 copy 4" class="cls-2" d="M1810.4,243.406a10.722,10.722,0,0,0-15.14-.019L1753.94,284.6c-8.82,8.8-4.04,21.348-.28,26.755l1.54,2.222,55.18-55.038A10.714,10.714,0,0,0,1810.4,243.406Z" transform="translate(-1608.44 -192)"/>
  <path id="AnyPay" class="cls-3" d="M1647.13,409.027h11.02l-19.8-53.458h-10.18l-19.73,53.458h11.02l3.62-10.691h20.43ZM1626.12,389.3l7.1-20.98h0.07l7.14,20.98h-14.31Zm60.25-17.637a15.234,15.234,0,0,0-11.75,5.365h-0.11v-4.74h-9.81v36.742h9.81V390.547c0-6.54,3.33-10.03,8.31-10.03,4.54,0,7.03,2.167,7.03,9.185v19.362h9.81V387.24c0-11.316-5.45-15.578-13.29-15.578h0Zm44.45,0.625-8.38,22.743h-0.11l-8.97-22.743h-10.25l14.65,34.463-6.52,17.158h10.03L1741,372.285h-10.18Zm17.54,36.741h10.4v-18.3h8.31c11.71,0,19.51-5.621,19.51-17.342,0-10.25-5.6-17.819-18.52-17.819h-19.7v53.458Zm10.4-27.665V364.975h7.43c6.15,0,9.48,3.233,9.48,8.193,0,4.923-3.29,8.193-9.92,8.193h-6.99Zm61.48-9.076v4.152h-0.15a13.755,13.755,0,0,0-10.79-4.777c-9.81,0-17.25,7.936-17.25,19.105,0,11.353,7.4,18.885,17.54,18.885a13.165,13.165,0,0,0,10.94-5.07h0.19v4.445h9.33V372.285h-9.81Zm-8.86,28.547c-5.49,0-9.37-4.078-9.37-10.03,0-6.283,4.14-10.288,9.41-10.288,5.31,0,9.23,4.409,9.23,10.288,0,6.026-4.18,10.03-9.27,10.03h0Zm51.89-28.547-8.38,22.743h-0.11l-8.97-22.743h-10.25l14.64,34.463-6.51,17.158h10.03l19.73-51.622h-10.18Z" transform="translate(-1608.44 -192)"/>
</svg>
