<svg id="logo" xmlns="http://www.w3.org/2000/svg" width="55" height="47.5" viewBox="0 0 110 95">
  <defs>
    <style>
      .cls-1 {
        fill: #d5d5d5;
        fill-opacity: 0.53;
      }

      .cls-1, .cls-2 {
        fill-rule: evenodd;
      }

      .cls-2 {
        fill: #d7d7d7;
      }
    </style>
  </defs>
  <path id="Shape_5_copy_10" data-name="Shape 5 copy 10" class="cls-1" d="M605.141,14119.9a8.2,8.2,0,0,0-11.789,0,8.045,8.045,0,0,0-2.442,5.9,8.383,8.383,0,0,0,2.442,5.9l32.225,32.3,11.79-11.8Z" transform="translate(-561 -14069)"/>
  <path id="Shape_5_copy_9" data-name="Shape 5 copy 9" class="cls-1" d="M638.65,14101.3l-32.226-32.3-11.789,11.8,32.225,32.3a8.336,8.336,0,0,0,14.231-5.9A8.386,8.386,0,0,0,638.65,14101.3Z" transform="translate(-561 -14069)"/>
  <path id="Shape_5_copy_8" data-name="Shape 5 copy 8" class="cls-2" d="M607.629,14070.7l-1.2-1.7-42.976,43a8.4,8.4,0,0,0-2.448,5.9,8.2,8.2,0,0,0,2.435,5.9,8.2,8.2,0,0,0,11.79,0l32.178-32.2C614.275,14084.8,610.556,14075,607.629,14070.7Z" transform="translate(-561 -14069)"/>
  <path id="Shape_5_copy_7" data-name="Shape 5 copy 7" class="cls-2" d="M668.566,14109.2a8.257,8.257,0,0,0-11.789,0l-32.179,32.2c-6.87,6.8-3.151,16.6-.224,20.9l1.2,1.7,42.976-43A8.358,8.358,0,0,0,668.566,14109.2Z" transform="translate(-561 -14069)"/>
</svg>
