<svg xmlns="http://www.w3.org/2000/svg" width="23.5" height="25.5" viewBox="0 0 47 51">
  <path fill="#131313" fill-rule="evenodd" d="M2670.5,13860a16.162,16.162,0,0,0-16.02,16.3v5.4h-0.54a7.043,7.043,0,0,0-6.94,7.1v4.3a6.957,6.957,0,0,0,6.94,7h5.34a1.626,1.626,0,0,0,1.61-1.6v-15.2a1.7,1.7,0,0,0-1.61-1.6h-1.6v-5.4a12.821,12.821,0,1,1,25.64,0v5.4h-1.6a1.712,1.712,0,0,0-1.61,1.6v15.2a1.626,1.626,0,0,0,1.61,1.6h1.33a5.713,5.713,0,0,1-1.99,2.8,12.663,12.663,0,0,1-6.62,2.1,4.27,4.27,0,0,0-3.94-2.7,4.351,4.351,0,0,0,0,8.7,4.26,4.26,0,0,0,3.97-2.7,15.037,15.037,0,0,0,8.55-2.8,9.149,9.149,0,0,0,3.34-5.4h0.7a6.957,6.957,0,0,0,6.94-7v-4.3a7.043,7.043,0,0,0-6.94-7.1h-0.54v-5.4a16.162,16.162,0,0,0-16.02-16.3h0Z" transform="translate(-2647 -13860)"/>
</svg>
