<svg xmlns="http://www.w3.org/2000/svg" width="15" height="15" viewBox="0 0 30 30">
  <defs>
    <style>
      .cls-1 {
        fill: #fb6e5c;
        fill-rule: evenodd;
      }
    </style>
  </defs>
  <path id="del" class="cls-1" d="M5656,5685.99a15,15,0,1,1,15.01-15A15.014,15.014,0,0,1,5656,5685.99Zm6.36-8.62a1.28,1.28,0,0,1-1.8,0l-4.56-4.56-4.56,4.56a1.272,1.272,0,0,1-.9.37,1.27,1.27,0,0,1-.9-2.17l4.56-4.56-4.56-4.56a1.267,1.267,0,0,1,0-1.8,1.286,1.286,0,0,1,1.8,0l4.56,4.56,4.56-4.56a1.286,1.286,0,0,1,1.8,0,1.267,1.267,0,0,1,0,1.8l-4.56,4.56,4.56,4.56A1.267,1.267,0,0,1,5662.36,5677.37Z" transform="translate(-5641 -5656)"/>
</svg>
