<svg xmlns="http://www.w3.org/2000/svg" width="29.39" height="23.5" viewBox="0 0 58.78 47">
  <defs>
    <style>
      .cls-1 {
        fill: #ffca00;
        fill-rule: evenodd;
      }
    </style>
  </defs>
  <path id="icon" class="cls-1" d="M1309.72,2356a2.13,2.13,0,0,0,2.12-2.13v-3.99a2.12,2.12,0,1,0-4.24,0v3.99A2.13,2.13,0,0,0,1309.72,2356Zm42.27-.03a2.138,2.138,0,0,0,2.13-2.13v-22.33a2.125,2.125,0,1,0-4.25,0v22.33A2.136,2.136,0,0,0,1351.99,2355.97Zm-28.18,0a2.13,2.13,0,0,0,2.12-2.13V2338.6a2.12,2.12,0,0,0-4.24-.02v15.26A2.13,2.13,0,0,0,1323.81,2355.97Zm35.19-35.04v-9.82a2.128,2.128,0,0,0-2.12-2.12h-9.82a2.125,2.125,0,0,0,0,4.25h4.7l-16.36,16.33-11.86-6.65a2.141,2.141,0,0,0-2.44.17l-20.15,17.96a2.122,2.122,0,0,0-.18,3l0.14,0.16-0.01.05a2.115,2.115,0,0,0,2.84.03l19.04-16.96,11.96,6.73a2.151,2.151,0,0,0,2.55-.35l17.46-17.47v4.69A2.125,2.125,0,0,0,1359,2320.93Zm-21.11,35.05a2.13,2.13,0,0,0,2.12-2.13v-11.98a2.12,2.12,0,0,0-4.24,0v11.98A2.13,2.13,0,0,0,1337.89,2355.98Z" transform="translate(-1300.22 -2309)"/>
</svg>
