<svg xmlns="http://www.w3.org/2000/svg" width="22.545" height="12.85" viewBox="0 0 45.09 25.7">
  <path fill="#131313" fill-rule="evenodd" d="M2309.71,13536.4a50.858,50.858,0,0,1,4.41,4.4,14.492,14.492,0,0,1,1.59,2.3c0.6,1.2.06,2.5-1,2.6h-6.57a5.379,5.379,0,0,1-4.18-1.7c-0.91-1-1.76-1.9-2.63-2.9a6.474,6.474,0,0,0-1.18-1.1,1.344,1.344,0,0,0-2.18.6,6.921,6.921,0,0,0-.7,3.1c-0.07,1.5-.53,1.9-2.09,2a17.043,17.043,0,0,1-9.4-2,20.794,20.794,0,0,1-6.32-6,80.549,80.549,0,0,1-8.33-14.9c-0.52-1.2-.14-1.9,1.16-1.9h6.43a1.843,1.843,0,0,1,1.78,1.4,41.649,41.649,0,0,0,4.36,8.1,5.623,5.623,0,0,0,1.65,1.8,0.992,0.992,0,0,0,1.7-.5,5.156,5.156,0,0,0,.38-1.7,25.633,25.633,0,0,0-.11-6,2.408,2.408,0,0,0-2.1-2.2c-0.63-.2-0.54-0.4-0.23-0.8a2.4,2.4,0,0,1,2.02-1h7.42c1.17,0.3,1.43.8,1.59,2v8.3c0,0.4.23,1.8,1.05,2.1a1.482,1.482,0,0,0,1.48-.7,26.558,26.558,0,0,0,4.19-6.5c0.5-1,.93-2.1,1.35-3.2a1.553,1.553,0,0,1,1.68-1.1h7.76c1.21,0.2,1.54.8,1.17,1.9a16.887,16.887,0,0,1-2.85,5c-1.19,1.7-2.47,3.3-3.65,4.9-1.08,1.6-1,2.3.35,3.7h0Z" transform="translate(-2270.91 -13520)"/>
</svg>
