<svg width="12" height="12" viewBox="0 0 12 12" fill="none" xmlns="http://www.w3.org/2000/svg">
<path fill-rule="evenodd" clip-rule="evenodd" d="M11.25 5.24999H2.35125L5.076 1.97999C5.3415 1.66199 5.298 1.18874 4.98 0.923993C4.66125 0.658493 4.18875 0.701993 3.924 1.01999L0.174 5.51999C0.14475 5.55524 0.12975 5.59649 0.108 5.63549C0.09 5.66699 0.06825 5.69399 0.05475 5.72849C0.021 5.81474 0.00075 5.90549 0.00075 5.99699C0.00075 5.99774 0 5.99924 0 5.99999C0 6.00074 0.00075 6.00224 0.00075 6.00299C0.00075 6.09449 0.021 6.18524 0.05475 6.27149C0.06825 6.30599 0.09 6.33299 0.108 6.36449C0.12975 6.40349 0.14475 6.44474 0.174 6.47999L3.924 10.98C4.0725 11.1577 4.2855 11.25 4.5 11.25C4.6695 11.25 4.83975 11.193 4.98 11.076C5.298 10.8112 5.3415 10.338 5.076 10.02L2.35125 6.74999H11.25C11.664 6.74999 12 6.41399 12 5.99999C12 5.58599 11.664 5.24999 11.25 5.24999" fill="#999999"/>
</svg>
