<svg width="35" height="35" viewBox="0 0 35 35" fill="none" xmlns="http://www.w3.org/2000/svg">
<path fill-rule="evenodd" clip-rule="evenodd" d="M15.445 19.572L16.6648 16.5961L19.5553 15.4276L18.3355 18.4035L15.445 19.572ZM23.7919 11.2097C23.3239 10.7143 22.5893 10.523 21.9145 10.7895L14.7173 13.6971C14.2902 13.8696 13.9502 14.2062 13.776 14.6332L10.7949 21.9073C10.5421 22.524 10.6907 23.1903 11.099 23.6635C11.1127 23.6806 11.1229 23.7028 11.1383 23.7216C11.1657 23.7506 11.1981 23.7745 11.2289 23.8036C11.55 24.1333 11.9857 24.3331 12.4469 24.3331C12.6604 24.3331 12.8774 24.2939 13.0858 24.2102L20.283 21.3043C20.7101 21.13 21.0501 20.7935 21.2243 20.3664L24.2054 13.0923C24.4821 12.4192 24.2908 11.6812 23.7919 11.2097V11.2097ZM17.5003 31.1667C9.96487 31.1667 3.83366 25.0354 3.83366 17.5C3.83366 9.96453 9.96487 3.83332 17.5003 3.83332C25.0358 3.83332 31.167 9.96453 31.167 17.5C31.167 25.0354 25.0358 31.1667 17.5003 31.1667M17.5003 0.416656C8.08058 0.416656 0.416992 8.08024 0.416992 17.5C0.416992 26.9197 8.08058 34.5833 17.5003 34.5833C26.9201 34.5833 34.5837 26.9197 34.5837 17.5C34.5837 8.08024 26.9201 0.416656 17.5003 0.416656" fill="#181818"/>
</svg>
