<svg width="33" height="33" viewBox="0 0 33 33" fill="none" xmlns="http://www.w3.org/2000/svg">
<path d="M8.2332 12.3675L6.96771 11.5622L6.7332 11.9307V12.3675H8.2332ZM13.8083 3.60673L15.0737 4.41204L13.8083 3.60673ZM19.3199 6.72739L17.9783 6.05656L17.9783 6.05656L19.3199 6.72739ZM16.4999 12.3675L15.1582 11.6967C14.9257 12.1617 14.9506 12.7139 15.2239 13.1561C15.4972 13.5983 15.98 13.8675 16.4999 13.8675V12.3675ZM30.9665 22.7009L32.1665 23.6009L32.4665 23.2009V22.7009H30.9665ZM26.0065 29.3142L27.2065 30.2142L27.2065 30.2142L26.0065 29.3142ZM18.1151 2.59001L18.8869 1.30377V1.30377L18.1151 2.59001ZM0.533203 11.3342V32.0009H3.5332V11.3342H0.533203ZM9.4987 13.1728L15.0737 4.41204L12.5428 2.80141L6.96771 11.5622L9.4987 13.1728ZM17.9783 6.05656L15.1582 11.6967L17.8415 13.0383L20.6616 7.39821L17.9783 6.05656ZM16.4999 13.8675H26.8332V10.8675H16.4999V13.8675ZM29.4665 16.5009V22.7009H32.4665V16.5009H29.4665ZM29.7665 21.8009L24.8065 28.4142L27.2065 30.2142L32.1665 23.6009L29.7665 21.8009ZM22.6999 29.4675H12.3665V32.4675H22.6999V29.4675ZM9.7332 26.8342V12.3675H6.7332V26.8342H9.7332ZM26.8332 13.8675C28.2876 13.8675 29.4665 15.0465 29.4665 16.5009H32.4665C32.4665 13.3897 29.9444 10.8675 26.8332 10.8675V13.8675ZM12.3665 29.4675C10.9122 29.4675 9.7332 28.2885 9.7332 26.8342H6.7332C6.7332 29.9454 9.25533 32.4675 12.3665 32.4675V29.4675ZM17.3434 3.87625C18.0922 4.32552 18.3688 5.27553 17.9783 6.05656L20.6616 7.39821C21.7531 5.21506 20.9799 2.55956 18.8869 1.30377L17.3434 3.87625ZM24.8065 28.4142C24.3092 29.0773 23.5287 29.4675 22.6999 29.4675V32.4675C24.473 32.4675 26.1427 31.6327 27.2065 30.2142L24.8065 28.4142ZM15.0737 4.41204C15.5601 3.64784 16.5667 3.41021 17.3434 3.87625L18.8869 1.30377C16.7158 0.00110507 13.9021 0.665329 12.5428 2.80141L15.0737 4.41204Z" fill="white"/>
</svg>
