<svg width="242" height="55" viewBox="0 0 242 55" fill="none" xmlns="http://www.w3.org/2000/svg">
<path fill-rule="evenodd" clip-rule="evenodd" d="M63.3838 39.7076V17.3735H82.0053V39.7076H77.4568V21.6424H67.931V39.7076H63.3838ZM95.3105 26.8376H92.7291C90.5785 26.8376 89.5025 27.5851 89.5025 29.0473C89.5025 30.4805 90.5484 31.1965 92.6381 31.1965C93.5604 31.1965 94.4505 31.1381 95.3105 30.9886V26.8376ZM99.521 23.4341V39.7063H95.3105V34.0604C94.4949 34.2053 93.6314 34.3957 92.5876 34.4248L89.1031 39.7063H84.3708L88.5332 33.8501C86.3501 32.9542 85.201 31.4068 85.201 28.9879C85.201 25.6731 87.6888 23.4341 92.6067 23.4341H99.521ZM127.977 24.8076C129.266 26.0317 129.911 27.7043 129.911 29.8836V39.7063H125.58V30.6591C125.58 28.182 124.228 26.868 122.229 26.868C120.046 26.868 118.542 28.391 118.542 30.7796V39.7076H114.209V30.6908C114.209 28.2718 112.887 26.868 110.829 26.868C108.71 26.868 107.173 28.391 107.173 30.8099V39.7076H102.84V23.4341H107.08V25.763C108.033 24.0613 109.999 22.9576 112.181 22.9868C114.271 22.9868 116.207 23.9725 117.098 25.853C118.327 24.0613 120.601 22.9868 123.089 22.9868C125.088 22.9868 126.716 23.5813 127.977 24.8076ZM163.838 34.8991C164.698 34.0031 165.129 32.8994 165.129 31.5865C165.129 30.2715 164.698 29.1678 163.838 28.2708C162.978 27.3761 161.871 26.9275 160.489 26.9275C159.137 26.9275 158.03 27.3761 157.171 28.2708C156.31 29.1678 155.879 30.2715 155.879 31.5865C155.879 32.8994 156.311 34.0044 157.171 34.9001C158.031 35.7961 159.137 36.2434 160.489 36.2434C161.871 36.2434 162.978 35.7948 163.838 34.8991ZM167.157 25.4944C168.724 27.1365 169.493 29.1678 169.493 31.5561C169.493 33.9447 168.694 35.9747 167.126 37.6179C165.559 39.259 163.593 40.0942 161.225 40.0942C159.168 40.0942 157.268 39.2205 155.971 37.6739V46.3954H151.639V23.4341H155.94V25.5692C157.316 23.9013 159.137 23.0171 161.257 23.0171C163.623 23.0171 165.589 23.8522 167.157 25.4944ZM180.033 36.2141C181.354 36.2141 182.43 35.7657 183.32 34.8697C184.212 33.9447 184.673 32.8397 184.673 31.5561C184.673 30.2715 184.212 29.1678 183.321 28.2718C182.43 27.3761 181.354 26.9288 180.033 26.9288C178.711 26.9288 177.605 27.3761 176.714 28.2718C175.824 29.1678 175.393 30.2725 175.393 31.5561C175.393 32.8397 175.824 33.9447 176.714 34.8697C177.605 35.7657 178.711 36.2141 180.033 36.2141ZM173.579 25.4944C175.271 23.8219 177.422 22.9868 180.033 22.9868C182.644 22.9868 184.795 23.8219 186.487 25.4944C188.175 27.1365 189.005 29.1678 189.005 31.5561C189.005 33.974 188.175 36.0051 186.487 37.6472C184.795 39.2883 182.644 40.1256 180.033 40.1256C177.422 40.1256 175.271 39.2883 173.579 37.6472C171.889 36.0051 171.06 33.9751 171.06 31.5561C171.06 29.1678 171.889 27.1365 173.579 25.4944ZM201.205 23.4341H205.539V39.7076H201.205V34.2296C199.937 34.9339 198.563 35.288 197.486 35.288C195.49 35.288 194.015 34.9294 192.693 34.0639C191.373 33.1388 190.636 31.4068 190.636 28.8978V23.4341H194.937V28.6C194.937 30.5109 195.951 31.4663 197.979 31.4663C199.117 31.4663 200.086 31.312 201.206 30.8765L201.205 23.4341ZM219.859 39.7076L213.191 32.1928V39.7076H208.858V23.4096H213.191V29.866L219.275 23.4341H224.745L217.277 30.971L225.175 39.7076H219.859Z" fill="#E52322"/>
<path fill-rule="evenodd" clip-rule="evenodd" d="M236.593 28.2417C235.701 27.3153 234.594 26.868 233.243 26.868C231.86 26.868 230.753 27.3153 229.862 28.2417C229.002 29.1678 228.571 30.2714 228.571 31.555C228.571 32.869 229.002 33.974 229.893 34.9003C230.784 35.8254 231.891 36.2727 233.243 36.2727C234.594 36.2727 235.701 35.8254 236.593 34.9003C237.483 33.974 237.944 32.869 237.944 31.555C237.944 30.2714 237.483 29.1678 236.593 28.2417ZM237.883 23.4342H242V39.7066H237.883V37.5574C236.444 39.2532 234.657 40.0955 232.536 40.0955C230.139 40.0955 228.142 39.2896 226.574 37.6472C225.008 36.0051 224.24 33.9449 224.24 31.4966C224.24 29.0476 225.039 27.0175 226.605 25.435C228.173 23.8232 230.17 23.0172 232.536 23.0172C234.625 23.0172 236.469 23.9399 237.883 25.5681V23.4342ZM141.899 19.344C141.899 17.9412 143.036 16.8959 144.51 16.8959C145.954 16.8959 147.062 18.0008 147.062 19.344C147.062 20.8074 145.954 21.882 144.51 21.882C143.036 21.882 141.899 20.8074 141.899 19.344ZM136.552 29.9142H145.064C144.665 27.793 143.097 26.5107 140.885 26.5107C138.702 26.5107 137.074 27.7943 136.552 29.9142ZM137.812 16.8959C139.256 16.8959 140.393 18.0008 140.393 19.344C140.393 20.8074 139.287 21.882 137.812 21.882C136.336 21.882 135.23 20.8074 135.23 19.344C135.23 18.0008 136.367 16.8959 137.812 16.8959ZM149.12 33.0489H136.552C137.166 35.3477 138.795 36.5121 141.438 36.5121C143.251 36.5121 145.269 35.8521 146.8 34.6725L148.544 37.3389C146.429 39.2626 144.019 40.0651 141.253 40.0651C138.302 40.0651 136.059 39.2299 134.493 37.5877C132.926 35.9456 132.157 33.9145 132.157 31.5563C132.157 29.0779 132.956 27.0479 134.585 25.4361C136.214 23.8232 138.304 23.0161 140.885 23.0161C143.313 23.0161 145.34 23.7624 146.907 25.2259C148.475 26.6894 149.274 28.6597 149.274 31.1965C149.274 31.7643 149.213 32.3926 149.12 33.0489Z" fill="#E52322"/>
<path fill-rule="evenodd" clip-rule="evenodd" d="M28.2433 0C12.6695 0 0 12.3362 0 27.5C0 42.6638 12.6695 55 28.2433 55C43.8156 55 56.4863 42.6638 56.4863 27.5C56.4863 12.3362 43.8156 0 28.2433 0Z" fill="white"/>
<path fill-rule="evenodd" clip-rule="evenodd" d="M42.4958 7.77551C40.3401 13.1587 35.4329 14.2788 28.3245 14.2788C27.5615 14.2788 26.806 14.2671 26.0766 14.2566C25.3713 14.2473 24.7043 14.2368 24.0505 14.2368C23.47 14.2368 22.8846 14.2438 22.3076 14.2683C23.3032 11.888 24.8926 10.2703 27.1549 9.28922C30.3086 7.92268 34.4085 7.90866 38.0263 7.89816C39.6024 7.89232 41.1116 7.88648 42.4958 7.77551Z" fill="#008F32"/>
<path fill-rule="evenodd" clip-rule="evenodd" d="M44.712 9.50251C41.5237 16.2651 34.4177 16.9425 28.3265 16.9425C26.9888 16.9425 25.7078 16.911 24.5214 16.904L22.9872 22.7462C30.8443 16.5092 41.2346 22.6924 40.1238 32.1041C39.3752 38.4427 34.7344 42.5879 29.8247 43.779C24.4759 45.0778 18.5501 43.1345 15.8932 37.827C15.6113 37.2665 15.1207 36.1429 14.9335 35.5426L20.5738 34.1315C20.6733 34.4481 20.8425 34.754 21.02 35.0332C24.7961 40.963 32.4479 37.9977 33.3117 31.8459C34.1908 25.5879 25.1728 22.2545 21.0632 29.5683L16.0611 27.4927L15.9747 27.4556L18.387 18.0264C18.5357 17.356 19.0371 15.4837 19.1235 15.1765C21.8501 5.4146 30.6704 5.26041 37.745 5.23472C34.8195 4.04923 31.6118 3.39282 28.2448 3.39282C14.5701 3.39282 3.48633 14.1849 3.48633 27.4998C3.48633 40.8148 14.5701 51.6068 28.2448 51.6068C41.9197 51.6068 53.0033 40.8148 53.0033 27.4998C53.0033 20.3425 49.7982 13.9175 44.712 9.50251Z" fill="#E52322"/>
</svg>
