<svg width="35" height="31" viewBox="0 0 35 31" fill="none" xmlns="http://www.w3.org/2000/svg">
<path fill-rule="evenodd" clip-rule="evenodd" d="M27.7503 12.0833C27.7503 11.142 26.985 10.375 26.042 10.375C25.099 10.375 24.3337 11.142 24.3337 12.0833C24.3337 13.0246 25.099 13.7917 26.042 13.7917C26.985 13.7917 27.7503 13.0246 27.7503 12.0833ZM31.167 12.0833C31.167 14.9089 28.8676 17.2083 26.042 17.2083C23.2164 17.2083 20.917 14.9089 20.917 12.0833C20.917 9.25775 23.2164 6.95833 26.042 6.95833C28.8676 6.95833 31.167 9.25775 31.167 12.0833ZM15.792 6.95833C15.792 5.07404 14.2596 3.54167 12.3753 3.54167C10.491 3.54167 8.95866 5.07404 8.95866 6.95833C8.95866 8.84262 10.491 10.375 12.3753 10.375C14.2596 10.375 15.792 8.84262 15.792 6.95833ZM19.2087 6.95833C19.2087 10.7269 16.1439 13.7917 12.3753 13.7917C8.60674 13.7917 5.54199 10.7269 5.54199 6.95833C5.54199 3.18975 8.60674 0.125 12.3753 0.125C16.1439 0.125 19.2087 3.18975 19.2087 6.95833ZM20.8145 20.7036C22.299 19.5556 24.127 18.9167 26.042 18.9167C30.7519 18.9167 34.5837 22.7485 34.5837 27.4583C34.5837 28.4013 33.82 29.1667 32.8753 29.1667C31.9306 29.1667 31.167 28.4013 31.167 27.4583C31.167 24.6327 28.8676 22.3333 26.042 22.3333C24.8752 22.3333 23.7665 22.7331 22.8713 23.442C23.8007 25.1435 24.3337 27.0945 24.3337 29.1667C24.3337 30.1097 23.57 30.875 22.6253 30.875C21.6806 30.875 20.917 30.1097 20.917 29.1667C20.917 24.4568 17.0852 20.625 12.3753 20.625C7.66545 20.625 3.83366 24.4568 3.83366 29.1667C3.83366 30.1097 3.07003 30.875 2.12533 30.875C1.18062 30.875 0.416992 30.1097 0.416992 29.1667C0.416992 22.5725 5.78287 17.2083 12.3753 17.2083C15.6673 17.2083 18.65 18.546 20.8145 20.7036Z" fill="#181818"/>
</svg>
