<svg width="33" height="32" viewBox="0 0 33 32" fill="none" xmlns="http://www.w3.org/2000/svg">
<path d="M6.06109 29.7556L7.40273 29.0848L7.40273 29.0848L6.06109 29.7556ZM26.9387 29.7556L28.2803 30.4265L28.2803 30.4265L26.9387 29.7556ZM2.45314 12.8665H30.5466V9.86654H2.45314V12.8665ZM29.4665 11.7865V12.6932H32.4665V11.7865H29.4665ZM26.5974 28.4665H6.40233V31.4665H26.5974V28.4665ZM3.5332 12.6932V11.7865H0.533203V12.6932H3.5332ZM7.40273 29.0848C4.85802 23.9954 3.5332 18.3834 3.5332 12.6932H0.533203C0.533203 18.8491 1.96645 24.9205 4.71944 30.4265L7.40273 29.0848ZM6.40233 28.4665C6.82598 28.4665 7.21327 28.7059 7.40273 29.0848L4.71944 30.4265C5.03816 31.0639 5.68966 31.4665 6.40233 31.4665V28.4665ZM25.597 29.0848C25.7865 28.7059 26.1738 28.4665 26.5974 28.4665V31.4665C27.3101 31.4665 27.9616 31.0639 28.2803 30.4265L25.597 29.0848ZM29.4665 12.6932C29.4665 18.3834 28.1417 23.9954 25.597 29.0848L28.2803 30.4265C31.0333 24.9205 32.4665 18.8491 32.4665 12.6932H29.4665ZM30.5466 12.8665C29.9501 12.8665 29.4665 12.383 29.4665 11.7865H32.4665C32.4665 10.7261 31.607 9.86654 30.5466 9.86654V12.8665ZM2.45314 9.86654C1.39279 9.86654 0.533203 10.7261 0.533203 11.7865H3.5332C3.5332 12.383 3.04964 12.8665 2.45314 12.8665V9.86654ZM9.51944 12.1383L15.7194 1.80495L13.147 0.261459L6.94696 10.5948L9.51944 12.1383ZM17.2803 1.80495L23.4803 12.1383L26.0528 10.5948L19.8528 0.261459L17.2803 1.80495Z" fill="white"/>
</svg>
