<svg width="18" height="18" viewBox="0 0 18 18" fill="none" xmlns="http://www.w3.org/2000/svg">
<path fill-rule="evenodd" clip-rule="evenodd" d="M7.56067 5.43938C8.14667 6.02438 8.14667 6.97538 7.56067 7.56038C6.97467 8.14638 6.02567 8.14638 5.43967 7.56038C4.85367 6.97538 4.85367 6.02438 5.43967 5.43938C6.02567 4.85338 6.97467 4.85338 7.56067 5.43938ZM2.83417 9.89148L8.86617 15.9245L15.9242 8.86648L9.89217 2.83348L2.10717 2.10748L2.83417 9.89148ZM8.86617 17.9985C8.40117 17.9985 7.93717 17.8215 7.58217 17.4685L1.16517 11.0505C1.00017 10.8865 0.89817 10.6685 0.87617 10.4365L0.00417029 1.09248C-0.0228297 0.796483 0.0821703 0.503483 0.29317 0.292483C0.50417 0.0814829 0.79617 -0.0255171 1.09317 0.00448292L10.4372 0.876483C10.6692 0.897483 10.8862 0.999483 11.0512 1.16448L17.4682 7.58148C17.8112 7.92448 18.0002 8.38048 18.0002 8.86648C18.0002 9.35248 17.8112 9.80848 17.4682 10.1515L10.1512 17.4675C9.79717 17.8215 9.33217 17.9985 8.86617 17.9985Z" fill="#656565"/>
</svg>
