<svg width="12" height="14" viewBox="0 0 12 14" fill="none" xmlns="http://www.w3.org/2000/svg">
<path d="M8.71479 4.60267C9.64069 5.26419 10.775 5.65342 12 5.65342V3.29724C11.7682 3.29729 11.5369 3.27313 11.3101 3.22509V5.07974C10.0851 5.07974 8.95101 4.69051 8.02487 4.02904V8.83731C8.02487 11.2427 6.07396 13.1924 3.66754 13.1924C2.76964 13.1924 1.93509 12.9211 1.24182 12.4558C2.03307 13.2644 3.13653 13.7661 4.35731 13.7661C6.76388 13.7661 8.71489 11.8163 8.71489 9.41084V4.60267H8.71479ZM9.56588 2.22557C9.0927 1.70888 8.78202 1.04116 8.71479 0.302963V-9.15527e-05H8.06099C8.22556 0.938157 8.78689 1.73974 9.56588 2.22557ZM2.76389 10.61C2.49951 10.2636 2.35665 9.83974 2.35729 9.40395C2.35729 8.30384 3.24962 7.41185 4.35052 7.41185C4.55569 7.41181 4.75963 7.4432 4.95515 7.50521V5.09637C4.72665 5.06507 4.49604 5.05179 4.26553 5.05666V6.93158C4.06986 6.86957 3.86582 6.83808 3.6606 6.83827C2.5597 6.83827 1.66742 7.73017 1.66742 8.83042C1.66742 9.60839 2.11344 10.2819 2.76389 10.61Z" fill="white"/>
<path d="M8.02494 4.02908C8.95109 4.69056 10.0852 5.07978 11.3102 5.07978V3.22514C10.6264 3.07956 10.0211 2.72242 9.56596 2.22567C8.78691 1.73978 8.22564 0.9382 8.06107 0H6.34372V9.41084C6.33984 10.5079 5.44903 11.3963 4.35049 11.3963C3.70314 11.3963 3.12804 11.0879 2.76381 10.6101C2.11341 10.282 1.66739 9.60843 1.66739 8.83056C1.66739 7.7304 2.55968 6.83842 3.66057 6.83842C3.8715 6.83842 4.0748 6.87124 4.2655 6.93172V5.0568C1.90135 5.10562 0 7.03635 0 9.41089C0 10.5962 0.47348 11.6708 1.24194 12.4559C1.93521 12.9212 2.76977 13.1926 3.66766 13.1926C6.07413 13.1926 8.02499 11.2427 8.02499 8.83741V4.02908H8.02494Z" fill="white"/>
</svg>
