<svg xmlns="http://www.w3.org/2000/svg" xmlns:xlink="http://www.w3.org/1999/xlink" width="53px" height="40px">
  <path fill-rule="evenodd"  fill="rgb(255, 202, 0)" d="M45.295,40.011 L7.727,40.011 C3.473,40.011 0.012,36.514 0.012,32.214 L0.012,7.801 C0.012,3.501 3.473,0.003 7.727,0.003 L45.295,0.003 C49.550,0.003 53.010,3.501 53.010,7.801 L53.010,32.214 C53.010,36.514 49.550,40.011 45.295,40.011 ZM49.656,7.801 C49.656,5.371 47.699,3.394 45.295,3.394 L7.727,3.394 C5.322,3.394 3.366,5.371 3.366,7.801 L3.366,8.140 L49.656,8.140 L49.656,7.801 ZM49.656,11.531 L3.366,11.531 L3.366,20.347 L49.656,20.347 L49.656,11.531 ZM49.656,23.736 L3.366,23.736 L3.366,32.214 C3.366,34.644 5.322,36.621 7.727,36.621 L45.295,36.621 C47.699,36.621 49.656,34.644 49.656,32.214 L49.656,23.736 ZM21.815,31.874 L11.081,31.874 C10.156,31.874 9.404,31.114 9.404,30.179 C9.404,29.244 10.156,28.483 11.081,28.483 L21.815,28.483 C22.740,28.483 23.492,29.244 23.492,30.179 C23.492,31.114 22.740,31.874 21.815,31.874 Z"/>
</svg>