<svg xmlns="http://www.w3.org/2000/svg" width="499.967" height="136.691" viewBox="0 0 2863.5 782.88">
  <defs>
    <style>
      .cls-1 {
        fill: #fff4c8;
        fill-opacity: 0.18;
      }

      .cls-1, .cls-2 {
        fill-rule: evenodd;
      }

      .cls-2 {
        fill: none;
        stroke: #ffe47b;
        stroke-width: 4px;
      }

      .cls-3 {
        fill: #ffe47b;
      }
    </style>
  </defs>
  <path id="graphic" class="cls-1" d="M554.205,1603.17c60.268,101.55,194.2,385.18,287.947,385.18s187.5-119.05,287.948-119.05,184.15,220.6,277.9,220.6,180.81-336.16,287.95-336.16,194.2,231.11,281.25,308.15,210.94,217.1,287.95,217.1,197.54-752.85,281.25-752.85,204.24,633.79,291.3,633.79,194.19-374.67,287.94-374.67,284.6,364.17,284.6,364.17V2307H554.205V1603.17Z" transform="translate(-548.75 -1524.12)"/>
  <path id="graphic-2" data-name="graphic" class="cls-2" d="M554.205,1603.17c60.268,101.55,194.2,385.18,287.947,385.18s187.5-119.05,287.948-119.05,184.15,220.6,277.9,220.6,180.81-336.16,287.95-336.16,194.2,231.11,281.25,308.15,210.94,217.1,287.95,217.1,197.54-752.85,281.25-752.85,204.24,633.79,291.3,633.79,194.19-374.67,287.94-374.67,284.6,364.17,284.6,364.17" transform="translate(-548.75 -1524.12)"/>
  <circle id="point" class="cls-3" cx="304.485" cy="467.74" r="14.015"/>
  <circle id="point-2" data-name="point" class="cls-3" cx="568.955" cy="348.675" r="14.015"/>
  <circle id="point-3" data-name="point" class="cls-3" cx="854.425" cy="569.29" r="14.015"/>
</svg>
