<svg xmlns="http://www.w3.org/2000/svg" width="19.938" height="17.968" viewBox="0 0 39.875 35.937">
  <defs>
    <style>
      .cls-1 {
        fill: #0b0819;
        fill-rule: evenodd;
      }
    </style>
  </defs>
  <path id="news" class="cls-1" d="M559.013,533.308a3.616,3.616,0,0,0,3.613,3.609h30.968a5.273,5.273,0,0,0,5.27-5.265V517.433a3.616,3.616,0,0,0-3.613-3.61h-4.246v-9.251a3.615,3.615,0,0,0-3.613-3.609H562.626a3.615,3.615,0,0,0-3.613,3.609v28.736Zm31.992-16.554V516.5h4.246a0.922,0.922,0,0,1,.931.932v14.261a2.589,2.589,0,0,1-5.177,0v-14.94Zm-29.311-12.182a0.922,0.922,0,0,1,.932-0.932h24.766a0.922,0.922,0,0,1,.932.932v27.122a5.089,5.089,0,0,0,.486,2.226l0.17,0.362H562.626a0.923,0.923,0,0,1-.932-0.933V504.572Zm11.13,4.542a1.319,1.319,0,0,0-1.32-1.317h-4.63a1.32,1.32,0,0,0-1.32,1.317v6.536a1.267,1.267,0,0,0,.348.947,1.341,1.341,0,0,0,.972.413h4.63a1.32,1.32,0,0,0,1.32-1.317v-6.579Zm-5.95,14.433h16.27a1.317,1.317,0,1,0,0-2.634h-16.27a1.32,1.32,0,0,0-1.32,1.316A1.337,1.337,0,0,0,566.874,523.547Zm16.27-9.214h-5.692a1.321,1.321,0,0,0-1.32,1.317,1.336,1.336,0,0,0,1.32,1.318h5.692A1.318,1.318,0,1,0,583.144,514.333Zm0-6.536h-5.692a1.319,1.319,0,0,0-1.32,1.317,1.336,1.336,0,0,0,1.32,1.317h5.692A1.317,1.317,0,1,0,583.144,507.8Zm-16.27,22.286h16.27a1.317,1.317,0,1,0,0-2.634h-16.27A1.317,1.317,0,1,0,566.874,530.083Z" transform="translate(-559 -500.969)"/>
</svg>
