<svg xmlns="http://www.w3.org/2000/svg" width="7.92" height="14" viewBox="0 0 15.84 28">
  <defs>
    <style>
      .cls-1 {
        fill: #0b0819;
        fill-rule: evenodd;
      }
    </style>
  </defs>
  <path id="Shape_3_copy_2" data-name="Shape 3 copy 2" class="cls-1" d="M2825.72,2020.58l12.23,12.42h0.25l2-.01,0.29,0.01a1.821,1.821,0,0,0,.53-1.3,1.856,1.856,0,0,0-.53-1.3l-9.15-9.29a4.309,4.309,0,0,1-1.15-2.11c-0.09-.59,1.15-1.55,1.15-1.55l9.13-9.31a1.856,1.856,0,0,0,.53-1.3,1.815,1.815,0,0,0-.53-1.29,1.763,1.763,0,0,0-2.54,0l-12.21,12.44A1.847,1.847,0,0,0,2825.72,2020.58Z" transform="translate(-2825.19 -2005)"/>
</svg>
