<svg width="244" height="19" fill="none" xmlns="http://www.w3.org/2000/svg">
  <path d="M-5.992 16.32c.06-.37.186-.978.39-1.567.432-1.244.94-2.459 1.622-3.584.654-1.08 1.284-2.175 2.033-3.201.8-1.094 1.62-2.178 2.538-3.17C1.686 3.614 2.784 2.43 4.107 1.46 5.757.252 8.294-.419 10.23.427c1.985.867 2.978 2.753 4.293 4.328.695.831 1.275 1.763 2.175 2.425.381.28.692.652 1.183.752.525.109 1.032.23 1.578.003 1.166-.482 2.265-1.088 3.375-1.68 1.184-.63 2.313-1.35 3.482-2.001C29.088 2.71 31.682 1.056 34.828.36c.924-.204 1.875-.34 2.82-.26 1.873.158 3.575 1.2 4.749 2.64.98 1.2 1.775 2.534 2.92 3.602.083.08.176.16.29.177.103.015.207-.025.306-.064 1.412-.567 2.828-1.123 4.227-1.721a27.805 27.805 0 0 1 3.694-1.291c1.732-.467 3.724-.892 5.514-.542 2.157.421 3.788 1.956 5.227 3.508.22.238.405.325.732.17a157.688 157.688 0 0 0 4.568-2.233A30.137 30.137 0 0 1 77.23 1.71c1.063-.227 2.142-.395 3.23-.39 1.337.006 2.665.276 3.918.737.803.295 1.537.678 2.299 1.061.639.322 1.334.59 2.047.555.627-.03 1.215-.29 1.79-.538C93.726 1.755 97.04.532 100.534.112c.823-.105 1.664-.173 2.483-.031 1.545.266 2.966 1.215 4.028 2.329.523.55 1.067 1.085 1.542 1.674.667.828 1.432.86 2.361.504 1.936-.742 3.867-1.513 5.876-2.036 1.664-.433 3.463-.83 5.19-.626 1.937.229 3.403 1.297 4.819 2.552.228.202.486.374.738.547.275.19.557.206.872.06 1.291-.598 2.573-1.22 3.867-1.81a14.508 14.508 0 0 1 4.255-1.228c.617-.077 1.249-.115 1.86.001.963.184 1.818.736 2.559 1.376.853.734 1.436 1.668 2.176 2.504.185.208.323.27.584.105 1.296-.827 2.584-1.67 3.915-2.44 1.093-.631 2.111-1.305 3.316-1.712 1.238-.417 2.513-.757 3.82-.867 1.767-.146 3.224.391 4.5 1.61.639.611 1.117 1.36 1.606 2.092.318.474 1.039 1.957 1.732 1.564a197.11 197.11 0 0 1 3.439-1.898c1.029-.556 2.027-1.148 3.132-1.542a17.936 17.936 0 0 1 3.512-.864c.757-.107 1.531-.164 2.283-.025.935.173 1.802.65 2.491 1.306.824.782 1.289 1.743 1.699 2.779.11.277.618 1.804 1.104 1.547.782-.413 1.571-.816 2.336-1.26 1.016-.59 2.033-1.188 3.122-1.64 1.48-.613 3.374-1.134 4.986-.96 1.047.112 2.038.59 2.809 1.299.879.808 1.242 1.853 1.762 2.892.102.204.223.26.459.119 1.247-.739 2.471-1.513 3.707-2.268 1.5-.915 3.036-1.918 4.658-2.605.892-.38 1.927-.656 2.873-.895 1.018-.258 2.075-.405 3.126-.29 1.169.13 2.3.593 3.229 1.311 1.007.778 1.716 1.847 2.531 2.806.365.426.733.48 1.21.269 3.169-1.396 6.326-2.838 9.777-3.384.894-.14 1.801-.233 2.702-.156 1.452.124 2.822.68 4.111 1.328 1.301.654 2.542 1.382 3.688 2.28a19.42 19.42 0 0 1 1.911 1.707c1.424 1.453 2.69 3.082 4.013 4.628.245.287 1.035.935.534 1.352-.265.221-1.05-.341-1.306-.477a23.03 23.03 0 0 1-1.485-.877c-.957-.609-1.886-1.26-2.863-1.837-2.327-1.378-4.972-2.402-7.658-2.784a10.22 10.22 0 0 0-2.026-.108c-3.588.21-6.628 2.714-9.927 3.876-1.173.413-2.367.768-3.597.35-.763-.26-1.426-.752-2.015-1.299a34.937 34.937 0 0 1-1.568-1.584c-.441-.464-.827-1.003-1.472-1.195-.435-.128-.902-.066-1.342.04-2.173.534-4.078 2.014-5.95 3.172-1.385.856-2.705 1.817-4.137 2.596-1.302.71-2.837 1.552-4.357 1.095-.745-.224-1.389-.708-1.914-1.278a9.68 9.68 0 0 1-1.429-2.027c-.237-.451-.481-1.629-1.125-1.508-1.211.227-2.173.958-3.22 1.516-1.925 1.028-3.817 2.44-5.993 2.876-.649.13-1.34.161-1.955-.085-.353-.142-.665-.367-.963-.604-1.191-.946-1.968-2.017-2.648-3.357l-.802-1.58a.823.823 0 0 0-.156-.236.59.59 0 0 0-.331-.142c-.26-.033-.521.048-.768.137-1.991.722-3.786 1.973-5.627 2.999-1.098.612-2.206 1.22-3.42 1.572-1.04.301-2.279.525-3.264-.017-.935-.517-1.757-1.22-2.468-2.011-.974-1.085-1.602-2.382-2.492-3.516-.249-.316-.626-.33-.962-.235-.889.252-1.734.589-2.556 1.037-1.234.67-2.462 1.37-3.666 2.09-1.189.712-2.409 1.409-3.738 1.83-.54.17-1.109.293-1.669.216-.548-.076-1.052-.34-1.502-.659-1.34-.946-2.26-2.357-3.145-3.735-.261-.407-.49-.762-1.005-.807-.987-.087-1.826.341-2.676.73-1.297.594-2.569 1.242-3.898 1.76-1.12.436-2.28.71-3.492.576-.662-.074-1.233-.419-1.771-.79-1.072-.738-1.928-1.877-3.158-2.367-.97-.388-2.071-.303-3.081-.036-1.912.507-3.719 1.396-5.581 2.054-.96.34-1.981.666-2.989.84-.82.14-1.677.152-2.474-.086-.811-.242-1.528-.732-2.151-1.302-.937-.854-1.648-2.085-2.74-2.755-.696-.426-1.548-.542-2.36-.476-1.027.084-2.003.42-2.972.744-2.395.8-4.634 2.05-7.064 2.74-1.098.312-2.254.478-3.388.34-1.343-.162-2.457-.771-3.665-1.318-1.143-.518-2.46-.864-3.723-.88-1.4-.017-2.772.388-4.078.89-1.695.653-3.34 1.46-4.959 2.28-1.597.809-3.183 1.683-4.922 2.155-.54.146-1.098.253-1.656.224-.773-.04-1.423-.402-2.006-.884-.887-.733-1.726-1.506-2.474-2.37-.575-.664-1.272-.868-2.12-.942-1.18-.104-2.232.289-3.284.664-1.31.467-2.61.958-3.892 1.495-1.253.524-2.5 1.088-3.828 1.403-.835.198-1.72.292-2.547.065-.844-.232-1.564-.78-2.207-1.37a15.22 15.22 0 0 1-2.136-2.426c-.287-.406-.588-.796-.87-1.2-.281-.4-.553-.83-.995-1.07-.732-.4-1.712-.354-2.495-.164-.864.21-1.663.624-2.448 1.04-1.85.98-3.684 1.986-5.504 3.02-1.757.998-3.452 2.051-5.335 2.796-.227.09-.456.176-.69.25-.56.186-1.122.36-1.695.469-1.016.191-2.036.262-3.041-.143-1.438-.58-2.66-1.514-3.71-2.649-1.336-1.44-2.37-3.136-3.387-4.806-.288-.475-.61-.962-1.06-1.308-.534-.413-1.184-.382-1.772-.182-1.03.35-1.9.992-2.775 1.633-1.43 1.048-2.7 2.274-3.92 3.535-1.16 1.2-2.18 2.529-3.096 3.94-.547.844-.954 1.754-1.44 2.629-.041.074-.068.168-.026.244.037.067.121.097.197.096.078-.002.15-.028.225-.048.192-.051.655-.136.74.119a.323.323 0 0 1-.158.4c-.557.25-1.004.665-1.517.979-.312.191-.588.026-.745-.197-.273-.394-.558-.806-.5-1.58Z" fill="#FFC700"/>
</svg>
