<svg viewBox="0 0 20 20" fill="none" xmlns="http://www.w3.org/2000/svg">
  <rect width="20" height="20" rx="10" fill="red"/>
  <path fill-rule="evenodd" clip-rule="evenodd" d="M14.816 5.648c.527.142.942.558 1.084 1.085.264.963.254 2.97.254 2.97s0 1.998-.254 2.96a1.542 1.542 0 0 1-1.084 1.086c-.964.253-4.816.253-4.816.253s-3.842 0-4.816-.264A1.542 1.542 0 0 1 4.1 12.654c-.254-.953-.254-2.96-.254-2.96s0-1.998.254-2.961a1.574 1.574 0 0 1 1.084-1.095C6.148 5.385 10 5.385 10 5.385s3.852 0 4.816.263Zm-2.84 4.044-3.203 1.845v-3.69l3.204 1.845Z" fill="#fff"/>
</svg>
