<svg width="120" height="30" viewBox="0 0 120 30" fill="none" xmlns="http://www.w3.org/2000/svg">
<path d="M18.1002 14.015C18.113 13.0205 18.3779 12.0453 18.8703 11.1803C19.3626 10.3152 20.0664 9.58844 20.9161 9.06752C20.3763 8.29875 19.6642 7.66609 18.8363 7.21978C18.0084 6.77347 17.0876 6.52581 16.1469 6.49646C14.1404 6.28643 12.1951 7.6938 11.1726 7.6938C10.1303 7.6938 8.55596 6.51732 6.86068 6.5521C5.76413 6.58743 4.69545 6.9054 3.75877 7.47505C2.8221 8.0447 2.04936 8.84658 1.51587 9.80258C-0.795119 13.7925 0.928669 19.6563 3.1424 22.8815C4.24998 24.4607 5.54442 26.2248 7.23817 26.1623C8.89561 26.0937 9.51463 25.1083 11.5153 25.1083C13.4974 25.1083 14.0782 26.1623 15.8063 26.1225C17.5848 26.0937 18.7053 24.5362 19.774 22.942C20.5698 21.8167 21.1822 20.573 21.5884 19.257C20.5552 18.8212 19.6734 18.0917 19.0531 17.1596C18.4328 16.2274 18.1014 15.1338 18.1002 14.015Z" fill="white"/>
<path d="M14.8359 4.37496C15.8057 3.21412 16.2834 1.72204 16.1677 0.215607C14.6862 0.370775 13.3177 1.07686 12.3349 2.19317C11.8544 2.73851 11.4863 3.37295 11.2518 4.06022C11.0173 4.74749 10.921 5.47411 10.9682 6.19854C11.7093 6.20615 12.4424 6.04598 13.1123 5.73011C13.7823 5.41424 14.3716 4.95089 14.8359 4.37496Z" fill="white"/>
<path d="M39.0512 22.1629H33.3951L32.0368 26.1624H29.6411L34.9985 11.3653H37.4875L42.8448 26.1624H40.4083L39.0512 22.1629ZM33.9809 20.3173H38.4643L36.2541 13.8264H36.1923L33.9809 20.3173Z" fill="white"/>
<path d="M54.4149 20.7692C54.4149 24.1217 52.6155 26.2756 49.9001 26.2756C49.2122 26.3115 48.5281 26.1535 47.9261 25.8197C47.3241 25.4859 46.8285 24.9898 46.4962 24.3882H46.4448V29.7317H44.2241V15.3745H46.3736V17.1689H46.4145C46.7621 16.5702 47.2661 16.0766 47.8727 15.7408C48.4792 15.4049 49.1658 15.2393 49.8592 15.2616C52.6049 15.2617 54.4149 17.426 54.4149 20.7692ZM52.1324 20.7692C52.1324 18.5851 51.0005 17.1491 49.2734 17.1491C47.5767 17.1491 46.4355 18.6153 46.4355 20.7692C46.4355 22.9429 47.5767 24.3987 49.2734 24.3987C51.0005 24.3987 52.1324 22.9732 52.1324 20.7692Z" fill="white"/>
<path d="M66.3221 20.7692C66.3221 24.1217 64.5227 26.2756 61.8073 26.2756C61.1194 26.3115 60.4353 26.1535 59.8333 25.8197C59.2313 25.4859 58.7358 24.9898 58.4034 24.3882H58.352V29.7317H56.1313V15.3745H58.2808V17.1689H58.3216C58.6693 16.5701 59.1733 16.0766 59.7798 15.7408C60.3864 15.4049 61.073 15.2393 61.7664 15.2616C64.5122 15.2616 66.3221 17.426 66.3221 20.7692ZM64.0396 20.7692C64.0396 18.5851 62.9077 17.1491 61.1806 17.1491C59.4839 17.1491 58.3427 18.6153 58.3427 20.7692C58.3427 22.9429 59.4839 24.3987 61.1806 24.3987C62.9077 24.3987 64.0396 22.9732 64.0396 20.7692H64.0396Z" fill="white"/>
<path d="M74.1917 22.0399C74.3562 23.5073 75.7857 24.4708 77.7391 24.4708C79.6108 24.4708 80.9575 23.5073 80.9575 22.1842C80.9575 21.0357 80.1453 20.348 78.2222 19.8767L76.2991 19.4147C73.5744 18.7584 72.3094 17.4877 72.3094 15.4257C72.3094 12.8726 74.5406 11.119 77.7088 11.119C80.8442 11.119 82.9937 12.8726 83.0661 15.4257H80.8244C80.6902 13.949 79.4661 13.0576 77.6772 13.0576C75.8883 13.0576 74.6642 13.9595 74.6642 15.2721C74.6642 16.3182 75.4461 16.9338 77.3587 17.405L78.9935 17.8053C82.038 18.5233 83.3029 19.7428 83.3029 21.9072C83.3029 24.6755 81.0916 26.4094 77.5745 26.4094C74.2838 26.4094 72.062 24.7162 71.9185 22.0398L74.1917 22.0399Z" fill="white"/>
<path d="M88.0957 12.8218V15.3749H90.1529V17.1285H88.0957V23.0759C88.0957 23.9999 88.5076 24.4304 89.4119 24.4304C89.6562 24.4262 89.9 24.4091 90.1424 24.3792V26.1223C89.7358 26.1981 89.3226 26.2324 88.909 26.2247C86.7187 26.2247 85.8645 25.4044 85.8645 23.3121V17.1285H84.2915V15.3749H85.8645V12.8218H88.0957Z" fill="white"/>
<path d="M91.3442 20.7696C91.3442 17.3752 93.349 15.2422 96.4752 15.2422C99.6119 15.2422 101.607 17.3751 101.607 20.7696C101.607 24.1733 99.6224 26.2969 96.4752 26.2969C93.3291 26.2969 91.3442 24.1732 91.3442 20.7696ZM99.3446 20.7696C99.3446 18.4411 98.2746 17.0668 96.4752 17.0668C94.6758 17.0668 93.6069 18.4516 93.6069 20.7696C93.6069 23.1073 94.6758 24.4711 96.4752 24.4711C98.2746 24.4711 99.3446 23.1073 99.3446 20.7696H99.3446Z" fill="white"/>
<path d="M103.438 15.3744H105.556V17.2107H105.608C105.751 16.6372 106.088 16.1303 106.562 15.7754C107.036 15.4204 107.618 15.239 108.21 15.2615C108.466 15.2606 108.721 15.2884 108.971 15.3442V17.4155C108.648 17.317 108.311 17.2718 107.973 17.2816C107.651 17.2686 107.329 17.3253 107.03 17.4479C106.732 17.5705 106.463 17.7561 106.244 17.9919C106.024 18.2277 105.858 18.5081 105.757 18.814C105.656 19.1198 105.623 19.4438 105.659 19.7637V26.1626H103.438L103.438 15.3744Z" fill="white"/>
<path d="M119.209 22.9945C118.91 24.9529 116.998 26.2969 114.551 26.2969C111.404 26.2969 109.45 24.1942 109.45 20.8208C109.45 17.4369 111.414 15.2422 114.457 15.2422C117.451 15.2422 119.333 17.2926 119.333 20.5636V21.3223H111.692V21.4561C111.657 21.8531 111.706 22.2531 111.838 22.6295C111.97 23.0058 112.18 23.3499 112.455 23.6389C112.731 23.928 113.064 24.1553 113.435 24.3058C113.805 24.4563 114.203 24.5265 114.602 24.5119C115.127 24.5609 115.654 24.4397 116.104 24.1663C116.554 23.8929 116.903 23.4819 117.101 22.9945L119.209 22.9945ZM111.702 19.7746H117.111C117.131 19.4176 117.077 19.0604 116.952 18.7253C116.827 18.3902 116.633 18.0845 116.384 17.8274C116.135 17.5703 115.835 17.3674 115.504 17.2313C115.172 17.0952 114.816 17.0289 114.457 17.0366C114.096 17.0344 113.737 17.1037 113.403 17.2404C113.068 17.3771 112.764 17.5786 112.508 17.8332C112.252 18.0877 112.049 18.3903 111.91 18.7236C111.772 19.0568 111.701 19.414 111.702 19.7746V19.7746Z" fill="white"/>
<path d="M32.4027 3.23373H33.3561C33.5202 3.25411 33.6868 3.24037 33.8453 3.19337C34.0038 3.14637 34.1509 3.06713 34.2772 2.96065C34.4035 2.85416 34.5063 2.72275 34.5791 2.57468C34.6519 2.42661 34.6932 2.2651 34.7004 2.10033C34.7004 1.44462 34.2056 1.02105 33.3666 1.02105C33.1984 0.997618 33.0273 1.00802 32.8633 1.05164C32.6992 1.09527 32.5456 1.17122 32.4115 1.27503C32.2774 1.37883 32.1655 1.50838 32.0824 1.65603C31.9993 1.80367 31.9467 1.96642 31.9278 2.13466H30.881C30.899 1.82926 30.9799 1.53083 31.1186 1.25794C31.2573 0.985057 31.4508 0.743564 31.6871 0.548497C31.9235 0.35343 32.1976 0.208966 32.4923 0.124101C32.7871 0.0392354 33.0962 0.0157861 33.4004 0.0552109C34.8042 0.0552109 35.7926 0.838925 35.7926 1.96709C35.7959 2.34503 35.6691 2.71267 35.4334 3.00863C35.1977 3.30459 34.8673 3.51096 34.4973 3.5933V3.67708C34.9359 3.69648 35.3489 3.88822 35.646 4.2104C35.9432 4.53258 36.1004 4.95898 36.0832 5.39638C36.0507 5.71083 35.9557 6.01565 35.8035 6.29298C35.6514 6.57032 35.4453 6.81458 35.1973 7.01145C34.9493 7.20832 34.6643 7.35384 34.3592 7.43947C34.0541 7.52511 33.7348 7.54914 33.4203 7.51016C33.105 7.55302 32.7844 7.53214 32.4774 7.44878C32.1704 7.36542 31.8834 7.22128 31.6335 7.02494C31.3836 6.82861 31.1759 6.58411 31.0227 6.30602C30.8696 6.02793 30.7742 5.72193 30.7422 5.40628H31.8053C31.8694 6.08644 32.4961 6.52518 33.4203 6.52518C34.3445 6.52518 34.9478 6.03237 34.9478 5.33767C34.9478 4.63308 34.3795 4.19903 33.3864 4.19903H32.4027V3.23373Z" fill="white"/>
<path d="M37.291 5.8205C37.291 4.85466 38.0133 4.29786 39.2923 4.21873L40.7498 4.13495V3.67181C40.7498 3.10511 40.3752 2.78511 39.6482 2.78511C39.0554 2.78511 38.6458 3.00213 38.5268 3.38149H37.4987C37.6073 2.45987 38.4778 1.86874 39.6984 1.86874C41.0473 1.86874 41.8082 2.53841 41.8082 3.67181V7.3379H40.7848V6.58386H40.7008C40.5302 6.85434 40.2908 7.07484 40.0068 7.22285C39.7229 7.37086 39.4046 7.44107 39.0846 7.42631C38.8587 7.44974 38.6304 7.42571 38.4144 7.35576C38.1984 7.28582 37.9995 7.17151 37.8305 7.02022C37.6615 6.86893 37.5262 6.684 37.4333 6.47736C37.3404 6.27072 37.2919 6.04696 37.291 5.8205ZM40.7498 5.36201V4.91343L39.4358 4.99721C38.6948 5.04666 38.3587 5.29801 38.3587 5.77103C38.3587 6.25395 38.7788 6.53497 39.3565 6.53497C39.5257 6.55206 39.6967 6.53503 39.8592 6.48487C40.0217 6.43472 40.1725 6.35248 40.3025 6.24305C40.4325 6.13361 40.5391 5.99921 40.6159 5.84786C40.6927 5.6965 40.7383 5.53127 40.7498 5.36201Z" fill="white"/>
<path d="M44.6263 2.86386V7.3381H43.5645V1.9725H47.1073V2.8638L44.6263 2.86386Z" fill="white"/>
<path d="M53.5428 4.65428C53.5428 6.35903 52.6781 7.42786 51.3198 7.42786C50.9864 7.45056 50.6534 7.3778 50.3601 7.21813C50.0667 7.05846 49.8252 6.81854 49.664 6.5266H49.58V9.1233H48.5181V1.97381H49.5403V2.86055H49.6196C49.7838 2.55841 50.0284 2.30739 50.3266 2.1352C50.6248 1.96301 50.9649 1.87636 51.3093 1.88482C52.6781 1.88478 53.5428 2.94894 53.5428 4.65428ZM52.4506 4.65428C52.4506 3.52088 51.9126 2.83607 51.013 2.83607C50.1192 2.83607 49.5601 3.53542 49.5601 4.65894C49.5601 5.77722 50.1191 6.47715 51.0083 6.47715C51.9126 6.47714 52.4506 5.79233 52.4506 4.65428Z" fill="white"/>
<path d="M54.9567 9.25989V8.34816C55.0716 8.36272 55.1874 8.36933 55.3032 8.36794C55.5295 8.38465 55.7539 8.31746 55.9335 8.17926C56.1131 8.04107 56.2353 7.8416 56.2764 7.61913L56.3558 7.35788L54.4082 1.9725H55.5646L56.9136 6.23438H56.9976L58.3419 1.9725H59.468L57.4621 7.55979C57.0023 8.8654 56.4936 9.28433 55.3966 9.28433C55.3079 9.28431 55.0559 9.27443 54.9567 9.25989Z" fill="white"/>
<path d="M60.2954 5.81539H61.3526C61.4565 6.28845 61.9011 6.53511 62.5231 6.53511C63.2302 6.53511 63.6643 6.22442 63.6643 5.74152C63.6643 5.22427 63.2746 4.97758 62.5231 4.97758H61.7179V4.15488H62.5091C63.1509 4.15488 63.4776 3.90877 63.4776 3.46019C63.4776 3.06628 63.1614 2.76549 62.5091 2.76549C61.9151 2.76549 61.481 3.01685 61.4121 3.44042H60.3888C60.4653 2.9537 60.7303 2.51637 61.1268 2.22249C61.5233 1.9286 62.0196 1.80164 62.5091 1.8689C63.788 1.8689 64.5197 2.44549 64.5197 3.35198C64.5256 3.60441 64.4445 3.85123 64.2899 4.05118C64.1353 4.25113 63.9165 4.39208 63.6701 4.45047V4.53425C63.9634 4.57198 64.2326 4.71575 64.4267 4.9383C64.6207 5.16084 64.726 5.44667 64.7227 5.74154C64.7227 6.76153 63.8522 7.4364 62.5231 7.4364C61.348 7.43636 60.3934 6.89934 60.2954 5.81539Z" fill="white"/>
<path d="M66.252 7.3381V1.9725H67.3045V5.66304H67.3885L69.8682 1.97251H70.9208V7.33812H69.8682V3.62782H69.7889L67.3045 7.33813L66.252 7.3381Z" fill="white"/>
<path d="M76.7195 2.86477H75.0251V7.33901H73.962V2.86477H72.2676V1.97346H76.7195V2.86477Z" fill="white"/>
<path d="M82.4398 5.88926C82.2951 6.37962 81.9822 6.8037 81.5559 7.08743C81.1295 7.37116 80.6167 7.49651 80.1071 7.44157C79.7526 7.4509 79.4003 7.38319 79.0747 7.24315C78.7491 7.1031 78.4579 6.89407 78.2215 6.63057C77.985 6.36706 77.8088 6.05539 77.7052 5.7172C77.6016 5.379 77.5731 5.02237 77.6216 4.67207C77.5744 4.32069 77.6034 3.9633 77.7068 3.62409C77.8101 3.28488 77.9853 2.97177 78.2206 2.70596C78.4558 2.44015 78.7456 2.22784 79.0703 2.08341C79.3949 1.93898 79.7469 1.8658 80.1025 1.86883C81.5996 1.86883 82.504 2.88882 82.504 4.57372V4.94323H78.7045V5.00257C78.6877 5.19951 78.7123 5.39779 78.7769 5.58466C78.8415 5.77152 78.9446 5.94285 79.0796 6.08761C79.2145 6.23238 79.3784 6.34739 79.5606 6.42525C79.7428 6.50311 79.9393 6.5421 80.1375 6.53971C80.3913 6.56997 80.6484 6.52429 80.8762 6.40846C81.1039 6.29264 81.2919 6.1119 81.4164 5.88922L82.4398 5.88926ZM78.7045 4.16007H81.421C81.4345 3.98008 81.41 3.79928 81.3492 3.62929C81.2884 3.45929 81.1926 3.30385 81.068 3.17296C80.9434 3.04206 80.7927 2.93861 80.6256 2.86923C80.4585 2.79985 80.2787 2.76608 80.0978 2.77009C79.9141 2.7676 79.7317 2.80185 79.5615 2.87083C79.3913 2.93981 79.2367 3.04211 79.1068 3.17169C78.9769 3.30127 78.8744 3.4555 78.8053 3.62526C78.7362 3.79502 78.7019 3.97688 78.7045 4.16007H78.7045Z" fill="white"/>
<path d="M86.9414 1.9725H89.3674C90.42 1.9725 91.0373 2.50429 91.0373 3.33686C91.0389 3.60104 90.9495 3.85777 90.7841 4.06409C90.6186 4.2704 90.3871 4.41379 90.1283 4.47025V4.55403C90.4425 4.57383 90.7371 4.71323 90.9512 4.94343C91.1654 5.17363 91.2826 5.47704 91.2788 5.791C91.2788 6.72716 90.5729 7.33808 89.3919 7.33808H86.9414V1.9725ZM87.994 2.78531V4.17469H89.0465C89.6883 4.17469 89.9952 3.92858 89.9952 3.47476C89.9952 3.05643 89.728 2.7853 89.1644 2.7853L87.994 2.78531ZM87.994 4.9532V6.5253H89.2531C89.8809 6.5253 90.217 6.24894 90.217 5.74159C90.217 5.20457 89.8366 4.95321 89.1201 4.95321L87.994 4.9532Z" fill="white"/>
</svg>
