<svg width="42" height="42" viewBox="0 0 42 42" fill="none" xmlns="http://www.w3.org/2000/svg">
<g clip-path="url(#clip0_909_37141)">
<path d="M42 0H0V42H42V0Z" fill="url(#paint0_linear_909_37141)"/>
<path d="M42 0H0V42H42V0Z" fill="url(#paint1_radial_909_37141)"/>
<path d="M14.4334 50.991C27.3866 50.991 37.8872 40.4945 37.8872 27.5463C37.8872 14.5982 27.3866 4.10156 14.4334 4.10156C1.48016 4.10156 -9.02051 14.5982 -9.02051 27.5463C-9.02051 40.4945 1.48016 50.991 14.4334 50.991Z" fill="#FFC800"/>
<path d="M24.5273 45.0138C16.5622 49.6084 7.92399 50.4316 2.40625 47.6794C9.4706 51.8872 18.541 52.251 26.1649 47.8525C33.7888 43.4491 38.0101 35.4158 37.8964 27.196C37.5234 33.3506 32.4923 40.4196 24.5273 45.0138Z" fill="black"/>
<path d="M17.4074 5.82101C19.0222 8.61401 15.1193 13.8907 8.6872 17.598C2.25515 21.3053 -4.26336 22.0513 -5.87818 19.2538C-5.94643 19.1218 -6.01009 18.9763 -6.05558 18.8262C-6.4741 17.5252 -5.97371 15.8422 -4.76826 14.0681C-4.57266 13.7906 -4.37254 13.5177 -4.16783 13.2493C-2.34828 10.8793 -0.0420175 8.82327 2.70549 7.24027C5.453 5.65272 8.38701 4.68836 11.3483 4.29716C11.694 4.24712 12.0306 4.21074 12.3581 4.18797C14.4961 4.02878 16.2019 4.43817 17.1208 5.44802C17.2299 5.57086 17.3255 5.69366 17.4074 5.82101Z" fill="black"/>
<path d="M27.3792 8.84602C30.1995 13.7269 24.5089 22.2833 14.6743 27.9603C4.83969 33.6373 -5.4225 34.2832 -8.23826 29.4023C-8.70678 28.588 -8.95698 27.6828 -9.00702 26.7093C-9.12982 29.9891 -8.56577 33.3234 -7.25114 36.4894C-7.05553 36.9624 -6.84176 37.431 -6.61429 37.895C-6.60522 37.9132 -6.59156 37.9359 -6.58246 37.9541C-5.73184 39.4234 -4.47635 40.5788 -2.91155 41.4159C2.60621 44.3678 11.9359 43.3535 20.6606 38.318C29.3807 33.2824 34.9258 25.7177 35.1305 19.4676C35.1896 17.7026 34.8211 16.0423 33.9796 14.573C33.6612 14.0954 33.3291 13.6269 32.9789 13.1811C30.9091 10.5064 28.3345 8.3775 25.4733 6.85815C26.2693 7.38131 26.9152 8.04088 27.3792 8.84602C27.3792 8.84602 27.3838 8.85057 27.3838 8.85512L27.3792 8.84602Z" fill="black"/>
<mask id="mask0_909_37141" style="mask-type:alpha" maskUnits="userSpaceOnUse" x="0" y="0" width="42" height="42">
<path d="M42 0H0V42H42V0Z" fill="url(#paint2_linear_909_37141)"/>
</mask>
<g mask="url(#mask0_909_37141)">
<path d="M14.4372 50.991C27.3905 50.991 37.8911 40.4945 37.8911 27.5463C37.8911 14.5982 27.3905 4.10156 14.4372 4.10156C1.48404 4.10156 -9.0166 14.5982 -9.0166 27.5463C-9.0166 40.4945 1.48404 50.991 14.4372 50.991Z" fill="url(#paint3_radial_909_37141)"/>
<path style="mix-blend-mode:overlay" d="M14.4382 50.991C27.3914 50.991 37.8921 40.4945 37.8921 27.5463C37.8921 14.5982 27.3914 4.10156 14.4382 4.10156C1.48501 4.10156 -9.01562 14.5982 -9.01562 27.5463C-9.01562 40.4945 1.48501 50.991 14.4382 50.991Z" fill="url(#paint4_radial_909_37141)" fill-opacity="0.3"/>
<path d="M11.5782 20.5366H11.8243V20.2905V20.288V20.2854V20.2829V20.2804V20.2778V20.2753V20.2728V20.2703V20.2677V20.2652V20.2626V20.2601V20.2575V20.255V20.2524V20.2499V20.2473V20.2447V20.2422V20.2396V20.2371V20.2345V20.2319V20.2293V20.2268V20.2242V20.2216V20.219V20.2164V20.2139V20.2113V20.2086V20.2061V20.2035V20.2009V20.1983V20.1956V20.1931V20.1904V20.1878V20.1852V20.1826V20.18V20.1773V20.1747V20.1721V20.1695V20.1669V20.1642V20.1616V20.1589V20.1563V20.1537V20.151V20.1484V20.1457V20.1431V20.1404V20.1378V20.1351V20.1324V20.1298V20.1271V20.1244V20.1218V20.1191V20.1164V20.1138V20.1111V20.1084V20.1057V20.103V20.1003V20.0977V20.0949V20.0922V20.0896V20.0869V20.0842V20.0815V20.0787V20.076V20.0733V20.0706V20.0679V20.0652V20.0624V20.0597V20.057V20.0543V20.0515V20.0488V20.0461V20.0433V20.0406V20.0378V20.0351V20.0323V20.0296V20.0268V20.0241V20.0213V20.0186V20.0158V20.013V20.0103V20.0075V20.0047V20.0019V19.9992V19.9964V19.9936V19.9908V19.988V19.9852V19.9824V19.9797V19.9769V19.9741V19.9712V19.9685V19.9657V19.9628V19.96V19.9572V19.9544V19.9516V19.9488V19.9459V19.9431V19.9403V19.9374V19.9346V19.9318V19.929V19.9261V19.9233V19.9204V19.9176V19.9147V19.9119V19.909V19.9062V19.9033V19.9004V19.8976V19.8947V19.8918V19.889V19.8861V19.8832V19.8803V19.8774V19.8746V19.8717V19.8688V19.8659V19.863V19.8601V19.8572V19.8543V19.8514V19.8485V19.8456V19.8427V19.8398V19.8368V19.8339V19.831V19.8281V19.8251V19.8222V19.8193V19.8164V19.8134V19.8105V19.8076V19.8046V19.8016V19.7987V19.7957V19.7928V19.7898V19.7869V19.7839V19.781V19.778V19.775V19.772V19.7691V19.7661V19.7631V19.7601V19.7571V19.7542V19.7512V19.7482V19.7452V19.7422V19.7392V19.7362V19.7332V19.7302V19.7272V19.7242V19.7212V19.7181V19.7151V19.7121V19.7091V19.706V19.703V19.7V19.697V19.6939V19.6909V19.6879V19.6848V19.6818V19.6787V19.6756V19.6726V19.6695V19.6665V19.6634V19.6604V19.6573V19.6542V19.6512V19.6481V19.645V19.6419V19.6389V19.6358V19.6327V19.6296V19.6265V19.6234V19.6203V19.6172V19.6141V19.611V19.6079V19.6048V19.6017V19.5986V19.5955V19.5923V19.5892V19.5861V19.583V19.5798V19.5767V19.5736V19.5704V19.5673V19.5641V19.561V19.5578V19.5547V19.5515V19.5484V19.5452V19.5421V19.5389V19.5357V19.5326V19.5294V19.5262V19.5231V19.5199V19.5167V19.5135V19.5103V19.5071V19.504V19.5008V19.4976V19.4944V19.4912V19.488V19.4847V19.4815V19.4783V19.4751V19.4719V19.4687V19.4654V19.4622V19.459V19.4558V19.4525V19.4493V19.446V19.4428V19.4396V19.4363V19.4331V19.4298V19.4266V19.4233V19.4201V19.4168V19.4135V19.4103V19.407V19.4037V19.4004V19.3972V19.3939V19.3906V19.3873V19.384V19.3807V19.3775V19.3742V19.3709V19.3676V19.3643V19.361V19.3577V19.3543V19.351V19.3477V19.3444V19.3411V19.3378V19.3344V19.3311V19.3278V19.3244V19.3211V19.3177V19.3144V19.3111V19.3077V19.3044V19.301V19.2976V19.2943V19.2909V19.2876V19.2842V19.2808V19.2775V19.2741V19.2707V19.2673V19.2639V19.2606V19.2572V19.2538V19.2504V19.247V19.2436V19.2402V19.2368V19.2334V19.23V19.2266V19.2232V19.2197V19.2163V19.2129V19.2095V19.2061V19.2026V19.1992V19.1957V19.1923V19.1889V19.1854V19.182V19.1785V19.1751V19.1716V19.1682V19.1647V19.1612V19.1578V19.1543V19.1509V19.1474V19.1439V19.1404V19.1369V19.1335V19.13V19.1265V19.123V19.1195V19.116V19.1125V19.109V19.1055V19.102V19.0985V19.0949V19.0914V19.0879V19.0844V19.0809V19.0774V19.0738V19.0703V19.0667V19.0632V19.0597V19.0561V19.0526V19.049V19.0455V19.0419V19.0383V19.0348V19.0312V19.0277V19.0241V19.0205V19.017V19.0134V19.0098V19.0062V19.0027V18.9991V18.9955V18.9919V18.9883V18.9847V18.9811V18.9775V18.9739V18.9703V18.9667V18.963V18.9594V18.9558V18.9522V18.9486V18.9449V18.9413V18.9377V18.934V18.9304V18.9267V18.9231V18.9194V18.9158V18.9121V18.9085V18.9048V18.9012V18.8975V18.8938V18.8902V18.8865V18.8829V18.8792V18.8755V18.8718V18.8681V18.8644V18.8607V18.857V18.8533V18.8496V18.8459V18.8422V18.8385V18.8348V18.8311V18.8274V18.8237V18.8199V18.8162V18.8125V18.8088V18.805V18.8013V18.7975V18.7938V18.7901V18.7863V18.7826V18.7788V18.7751V18.7713V18.7676V18.7638V18.76V18.7562V18.7525V18.7487V18.7449V18.7411V18.7374V18.7336V18.7298V18.726V18.7222V18.7184V18.7146V18.7108V18.707V18.7032V18.6994V18.6956V18.6917V18.6879V18.6841V18.6803V18.6765C11.8243 15.9141 14.0609 13.6753 16.8193 13.6753C17.8504 13.6753 18.8078 13.9879 19.6033 14.5236L19.7961 14.6535L19.9367 14.4684C21.1821 12.8291 23.1498 11.7715 25.3645 11.7715C29.1284 11.7715 32.1802 14.8264 32.1802 18.5955C32.1802 19.2486 32.0885 19.8798 31.9176 20.4773L31.8525 20.705L32.0775 20.7788C34.0285 21.4189 35.4375 23.2566 35.4375 25.4236C35.4375 28.1229 33.2519 30.3105 30.5566 30.3105H30.5399H30.5229H30.5057H30.4883H30.4706H30.4527H30.4345H30.4161H30.3975H30.3787H30.3596H30.3402H30.3207H30.3009H30.2809H30.2606H30.2402H30.2194H30.1985H30.1774H30.156H30.1344H30.1126H30.0906H30.0683H30.0458H30.0231H30.0002H29.9771H29.9537H29.9302H29.9064H29.8824H29.8582H29.8338H29.8092H29.7844H29.7593H29.7341H29.7086H29.683H29.6571H29.631H29.6047H29.5783H29.5516H29.5248H29.4977H29.4704H29.443H29.4153H29.3875H29.3594H29.3312H29.3028H29.2742H29.2453H29.2163H29.1872H29.1578H29.1282H29.0985H29.0686H29.0384H29.0082H28.9777H28.947H28.9162H28.8852H28.854H28.8226H28.7911H28.7594H28.7275H28.6954H28.6632H28.6308H28.5982H28.5655H28.5326H28.4995H28.4662H28.4328H28.3993H28.3655H28.3316H28.2975H28.2633H28.2289H28.1944H28.1597H28.1248H28.0898H28.0547H28.0193H27.9839H27.9483H27.9125H27.8766H27.8405H27.8042H27.7679H27.7314H27.6947H27.6579H27.6209H27.5839H27.5466H27.5093H27.4717H27.4341H27.3963H27.3584H27.3203H27.2821H27.2438H27.2053H27.1667H27.128H27.0892H27.0502H27.0111H26.9718H26.9325H26.893H26.8533H26.8136H26.7738H26.7338H26.6937H26.6534H26.6131H26.5726H26.5321H26.4914H26.4506H26.4096H26.3686H26.3275H26.2862H26.2448H26.2034H26.1618H26.1201H26.0783H26.0364H25.9944H25.9523H25.9101H25.8677H25.8253H25.7828H25.7402H25.6975H25.6547H25.6118H25.5688H25.5257H25.4825H25.4392H25.3958H25.3524H25.3088H25.2652H25.2215H25.1776H25.1337H25.0897H25.0457H25.0015H24.9573H24.913H24.8686H24.8241H24.7796H24.735H24.6903H24.6455H24.6006H24.5557H24.5107H24.4657H24.4205H24.3753H24.3301H24.2847H24.2393H24.1938H24.1483H24.1027H24.057H24.0113H23.9655H23.9197H23.8738H23.8278H23.7818H23.7357H23.6896H23.6434H23.5971H23.5509H23.5045H23.4581H23.4117H23.3652H23.3187H23.2721H23.2255H23.1788H23.1321H23.0853H23.0385H22.9917H22.9448H22.8979H22.8509H22.8039H22.7569H22.7098H22.6627H22.6156H22.5684H22.5212H22.474H22.4267H22.3794H22.3321H22.2848H22.2374H22.19H22.1426H22.0952H22.0477H22.0002H21.9527H21.9052H21.8577H21.8101H21.7626H21.7149H21.6674H21.6197H21.5721H21.5245H21.4768H21.4292H21.3815H21.3338H21.2862H21.2385H21.1908H21.1431H21.0954H21.0477H21H20.9523H20.9046H20.8569H20.8092H20.7615H20.7138H20.6662H20.6185H20.5708H20.5232H20.4755H20.4279H20.3803H20.3326H20.2851H20.2374H20.1899H20.1423H20.0948H20.0473H19.9998H19.9523H19.9048H19.8574H19.81H19.7626H19.7152H19.6679H19.6206H19.5733H19.526H19.4788H19.4316H19.3844H19.3373H19.2902H19.2431H19.1961H19.1491H19.1021H19.0552H19.0083H18.9615H18.9147H18.8679H18.8212H18.7745H18.7279H18.6813H18.6348H18.5883H18.5419H18.4955H18.4491H18.4028H18.3566H18.3104H18.2643H18.2182H18.1722H18.1262H18.0803H18.0345H17.9887H17.943H17.8973H17.8517H17.8062H17.7607H17.7153H17.6699H17.6247H17.5795H17.5343H17.4893H17.4443H17.3994H17.3545H17.3097H17.265H17.2204H17.1759H17.1314H17.087H17.0427H16.9985H16.9543H16.9102H16.8663H16.8224H16.7785H16.7348H16.6912H16.6476H16.6042H16.5608H16.5175H16.4743H16.4312H16.3882H16.3453H16.3025H16.2598H16.2172H16.1747H16.1323H16.0899H16.0477H16.0056H15.9636H15.9217H15.8799H15.8382H15.7966H15.7552H15.7138H15.6725H15.6314H15.5904H15.5494H15.5086H15.4679H15.4274H15.3869H15.3466H15.3063H15.2662H15.2262H15.1864H15.1467H15.107H15.0675H15.0282H14.9889H14.9498H14.9108H14.872H14.8333H14.7947H14.7562H14.7179H14.6797H14.6416H14.6037H14.5659H14.5283H14.4907H14.4534H14.4161H14.3791H14.3421H14.3053H14.2686H14.2321H14.1958H14.1595H14.1234H14.0875H14.0517H14.0161H13.9807H13.9454H13.9102H13.8752H13.8403H13.8056H13.7711H13.7367H13.7025H13.6684H13.6345H13.6007H13.5672H13.5338H13.5005H13.4674H13.4345H13.4018H13.3692H13.3368H13.3046H13.2725H13.2406H13.2089H13.1774H13.146H13.1148H13.0838H13.053H13.0223H12.9918H12.9616H12.9314H12.9015H12.8718H12.8422H12.8128H12.7837H12.7547H12.7258H12.6972H12.6688H12.6406H12.6125H12.5847H12.557H12.5296H12.5023H12.4752H12.4484H12.4217H12.3953H12.369H12.3429H12.317H12.2914H12.2659H12.2407H12.2156H12.1908H12.1662H12.1418H12.1176H12.0936H12.0698H12.0463H12.0229H11.9998H11.9769H11.9542H11.9317H11.9094H11.8874H11.8656H11.844H11.8226H11.8015H11.7805H11.7598H11.7394H11.7191H11.6991H11.6793H11.6598H11.6404H11.6214H11.6025H11.5839H11.5655H11.5473H11.5294H11.5117H11.4943H11.4771H11.4601H11.4434C8.74806 30.3105 6.5625 28.1229 6.5625 25.4236C6.5625 22.7243 8.74806 20.5366 11.4434 20.5366H11.4437H11.4439H11.4442H11.4444H11.4447H11.4449H11.4452H11.4455H11.4457H11.4459H11.4462H11.4464H11.4467H11.4469H11.4472H11.4474H11.4477H11.4479H11.4482H11.4484H11.4487H11.4489H11.4492H11.4494H11.4497H11.4499H11.4502H11.4504H11.4507H11.4509H11.4512H11.4514H11.4517H11.4519H11.4522H11.4524H11.4527H11.453H11.4532H11.4534H11.4537H11.4539H11.4542H11.4544H11.4547H11.455H11.4552H11.4555H11.4557H11.456H11.4562H11.4564H11.4567H11.457H11.4572H11.4575H11.4577H11.458H11.4582H11.4585H11.4587H11.459H11.4592H11.4595H11.4597H11.46H11.4603H11.4605H11.4608H11.461H11.4612H11.4615H11.4618H11.462H11.4623H11.4625H11.4628H11.463H11.4633H11.4635H11.4638H11.464H11.4643H11.4646H11.4648H11.4651H11.4653H11.4655H11.4658H11.4661H11.4663H11.4666H11.4668H11.4671H11.4674H11.4676H11.4678H11.4681H11.4684H11.4686H11.4689H11.4691H11.4694H11.4697H11.4699H11.4701H11.4704H11.4707H11.4709H11.4712H11.4714H11.4717H11.4719H11.4722H11.4724H11.4727H11.473H11.4732H11.4735H11.4737H11.474H11.4742H11.4745H11.4747H11.475H11.4753H11.4755H11.4758H11.476H11.4763H11.4765H11.4768H11.4771H11.4773H11.4776H11.4778H11.4781H11.4783H11.4786H11.4789H11.4791H11.4794H11.4796H11.4799H11.4802H11.4804H11.4806H11.4809H11.4812H11.4814H11.4817H11.482H11.4822H11.4824H11.4827H11.483H11.4832H11.4835H11.4838H11.484H11.4843H11.4845H11.4848H11.485H11.4853H11.4856H11.4858H11.4861H11.4863H11.4866H11.4868H11.4871H11.4874H11.4876H11.4879H11.4881H11.4884H11.4887H11.4889H11.4892H11.4895H11.4897H11.49H11.4902H11.4905H11.4907H11.491H11.4913H11.4915H11.4918H11.492H11.4923H11.4926H11.4928H11.4931H11.4934H11.4936H11.4938H11.4941H11.4944H11.4946H11.4949H11.4952H11.4954H11.4957H11.4959H11.4962H11.4965H11.4967H11.497H11.4973H11.4975H11.4978H11.498H11.4983H11.4986H11.4988H11.4991H11.4993H11.4996H11.4999H11.5001H11.5004H11.5007H11.5009H11.5012H11.5014H11.5017H11.502H11.5022H11.5025H11.5027H11.503H11.5033H11.5035H11.5038H11.5041H11.5043H11.5046H11.5048H11.5051H11.5054H11.5056H11.5059H11.5062H11.5064H11.5067H11.5069H11.5072H11.5075H11.5078H11.508H11.5083H11.5085H11.5088H11.5091H11.5093H11.5096H11.5098H11.5101H11.5104H11.5106H11.5109H11.5112H11.5114H11.5117H11.512H11.5122H11.5125H11.5128H11.513H11.5133H11.5135H11.5138H11.5141H11.5144H11.5146H11.5149H11.5151H11.5154H11.5157H11.5159H11.5162H11.5164H11.5167H11.517H11.5173H11.5175H11.5178H11.518H11.5183H11.5186H11.5188H11.5191H11.5194H11.5196H11.5199H11.5202H11.5204H11.5207H11.521H11.5212H11.5215H11.5218H11.522H11.5223H11.5226H11.5228H11.5231H11.5234H11.5236H11.5239H11.5242H11.5244H11.5247H11.525H11.5252H11.5255H11.5258H11.526H11.5263H11.5266H11.5268H11.5271H11.5274H11.5276H11.5279H11.5282H11.5284H11.5287H11.529H11.5292H11.5295H11.5298H11.53H11.5303H11.5306H11.5308H11.5311H11.5314H11.5317H11.5319H11.5322H11.5324H11.5327H11.533H11.5333H11.5335H11.5338H11.534H11.5343H11.5346H11.5349H11.5352H11.5354H11.5357H11.5359H11.5362H11.5365H11.5368H11.537H11.5373H11.5376H11.5378H11.5381H11.5384H11.5386H11.5389H11.5392H11.5395H11.5397H11.54H11.5402H11.5405H11.5408H11.5411H11.5413H11.5416H11.5419H11.5421H11.5424H11.5427H11.5429H11.5432H11.5435H11.5438H11.5441H11.5443H11.5446H11.5448H11.5451H11.5454H11.5457H11.5459H11.5462H11.5465H11.5468H11.547H11.5473H11.5475H11.5478H11.5481H11.5484H11.5486H11.5489H11.5492H11.5495H11.5497H11.55H11.5502H11.5505H11.5508H11.5511H11.5514H11.5516H11.5519H11.5522H11.5524H11.5527H11.553H11.5532H11.5535H11.5538H11.5541H11.5543H11.5546H11.5549H11.5552H11.5554H11.5557H11.556H11.5562H11.5565H11.5568H11.5571H11.5573H11.5576H11.5579H11.5582H11.5584H11.5587H11.559H11.5593H11.5595H11.5598H11.5601H11.5603H11.5606H11.5609H11.5612H11.5614H11.5617H11.562H11.5623H11.5626H11.5628H11.5631H11.5634H11.5636H11.5639H11.5642H11.5644H11.5647H11.565H11.5653H11.5655H11.5658H11.5661H11.5664H11.5667H11.5669H11.5672H11.5675H11.5678H11.568H11.5683H11.5686H11.5688H11.5691H11.5694H11.5696H11.5699H11.5702H11.5705H11.5708H11.571H11.5713H11.5716H11.5719H11.5721H11.5724H11.5727H11.573H11.5733H11.5735H11.5738H11.5741H11.5744H11.5746H11.5749H11.5752H11.5754H11.5757H11.576H11.5763H11.5765H11.5768H11.5771H11.5774H11.5776H11.5779H11.5782Z" fill="#FFFAE7" stroke="white" stroke-width="1.35484"/>
</g>
</g>
<defs>
<linearGradient id="paint0_linear_909_37141" x1="-2.58741e-07" y1="40.8105" x2="34.2266" y2="46.5285" gradientUnits="userSpaceOnUse">
<stop offset="0.1" stop-color="#FFC700"/>
<stop offset="0.9003" stop-color="#FFD90E"/>
</linearGradient>
<radialGradient id="paint1_radial_909_37141" cx="0" cy="0" r="1" gradientUnits="userSpaceOnUse" gradientTransform="translate(0.553712 42.2256) rotate(-45.5336) scale(59.1675)">
<stop offset="0.238839" stop-color="#FF8979"/>
<stop offset="0.854176" stop-color="#FF9F68" stop-opacity="0"/>
</radialGradient>
<linearGradient id="paint2_linear_909_37141" x1="-8.80399e-07" y1="42" x2="32.7033" y2="12.4587" gradientUnits="userSpaceOnUse">
<stop stop-opacity="0.6"/>
<stop offset="0.42113"/>
</linearGradient>
<radialGradient id="paint3_radial_909_37141" cx="0" cy="0" r="1" gradientUnits="userSpaceOnUse" gradientTransform="translate(14.4351 27.5483) scale(23.4533)">
<stop offset="0.5" stop-color="white" stop-opacity="0"/>
<stop offset="1" stop-color="white" stop-opacity="0.35"/>
</radialGradient>
<radialGradient id="paint4_radial_909_37141" cx="0" cy="0" r="1" gradientUnits="userSpaceOnUse" gradientTransform="translate(14.436 27.5483) scale(23.4533)">
<stop offset="0.5" stop-color="white" stop-opacity="0"/>
<stop offset="1" stop-color="white" stop-opacity="0.35"/>
</radialGradient>
<clipPath id="clip0_909_37141">
<rect width="42" height="42" rx="6" fill="white"/>
</clipPath>
</defs>
</svg>
