<svg width="16" height="16" viewBox="0 0 16 16" fill="none" xmlns="http://www.w3.org/2000/svg">
<path d="M8.04239 8.79817L8.04192 8.79767L7.34075 8.05322C7.24945 7.9446 7.13031 7.85975 6.99539 7.80495C6.85894 7.74952 6.70968 7.72614 6.56137 7.73639C6.41306 7.74665 6.26909 7.79031 6.14302 7.86436C6.01836 7.93757 5.91442 8.03865 5.84239 8.1597L4.254 10.514L4.25397 10.514C4.20915 10.5805 4.18397 10.6581 4.18287 10.7386C4.18177 10.8192 4.20483 10.8974 4.24796 10.965C4.29096 11.0325 4.35191 11.0864 4.42283 11.1231C4.49368 11.1598 4.57305 11.1786 4.65299 11.1786C4.653 11.1786 4.65301 11.1786 4.65302 11.1786H11.6952H11.6952C11.7691 11.1786 11.8425 11.1625 11.9092 11.131L11.8452 10.9954L11.9092 11.131C11.976 11.0995 12.0349 11.0531 12.0796 10.9943C12.1244 10.9355 12.1534 10.8662 12.1623 10.7924C12.1712 10.7186 12.1595 10.6443 12.129 10.5767C12.129 10.5767 12.129 10.5766 12.129 10.5766L10.4514 6.84994C10.4145 6.70933 10.3279 6.58652 10.2087 6.49839C10.0855 6.40732 9.93362 6.35748 9.77794 6.35431C9.62226 6.35113 9.46828 6.39473 9.34098 6.48039C9.2178 6.56327 9.12518 6.68201 9.08119 6.82065L8.06897 8.79857C8.0689 8.79862 8.06881 8.79868 8.06872 8.79874C8.06718 8.79976 8.06403 8.80122 8.05944 8.80177C8.05485 8.80231 8.0504 8.80173 8.04689 8.80051C8.04367 8.79939 8.04239 8.79816 8.04239 8.79817ZM2.737 3.45483H13.2633C13.2844 3.45483 13.3238 3.47783 13.3238 3.53509V12.7456C13.3238 12.8029 13.2844 12.8259 13.2633 12.8259H2.73701C2.71595 12.8259 2.67648 12.8029 2.67648 12.7456V3.53509C2.67648 3.47783 2.71595 3.45483 2.737 3.45483ZM2.737 1.85C1.86666 1.85 1.1835 2.61738 1.1835 3.53509V12.7456C1.1835 13.6633 1.86666 14.4307 2.73701 14.4307H13.2633C14.1337 14.4307 14.8168 13.6633 14.8168 12.7456V3.53509C14.8168 2.61738 14.1337 1.85 13.2633 1.85H2.737Z" fill="white" stroke="white" stroke-width="0.3"/>
</svg>
