<svg xmlns="http://www.w3.org/2000/svg" width="26px" height="22px" viewBox="0 0 26 22">
  <g  stroke="none" stroke-width="1" fill="none" fill-rule="evenodd">
    <g  transform="translate(-1334.000000, -1238.000000)" fill="#131313" fill-rule="nonzero">
      <g transform="translate(0.000000, 1192.000000)">
        <g transform="translate(1084.000000, 46.000000)">
          <path d="M275.253388,0.826982107 L270.965183,21.4534903 C270.86419,21.9404837 270.29313,22.1611588 269.890203,21.8683692 L264.036416,17.6184274 C263.681058,17.3603714 263.196471,17.3740884 262.856273,17.6514765 L259.61072,20.2970916 C259.234105,20.6051223 258.666494,20.4334593 258.522265,19.9695683 L256.268667,12.7219419 L250.446325,10.5489616 C249.85489,10.327404 249.849836,9.49243219 250.439587,9.26525952 L274.33459,0.0471990896 C274.841156,-0.148689207 275.363765,0.295067573 275.253388,0.826982107 Z M269.538214,4.55696159 L258.159206,11.5652224 C257.72307,11.8343482 257.517796,12.3610486 257.658495,12.8541385 L258.888773,17.1770771 C258.976289,17.4833431 259.420688,17.4520587 259.463283,17.1356053 L259.783025,14.7649718 C259.843428,14.3186481 260.056242,13.9072185 260.386412,13.6000702 L269.777259,4.8707679 C269.953093,4.70792874 269.742605,4.43142302 269.538214,4.55696159 Z"></path>
        </g>
      </g>
    </g>
  </g>
</svg>