<svg xmlns="http://www.w3.org/2000/svg" width="30" height="30" viewBox="0 0 40 40">
  <defs>
    <style>
      .cls-1 {
        fill: #48d888;
        fill-rule: evenodd;
      }
    </style>
  </defs>
  <path id="success" class="cls-1" d="M3440,5386a20,20,0,1,1,20-20A20.02,20.02,0,0,1,3440,5386Zm0-37.78a17.78,17.78,0,1,0,17.78,17.78A17.805,17.805,0,0,0,3440,5348.22Zm-2.55,26.34a1.1,1.1,0,0,1-1.57,0l-6.67-6.66a1.129,1.129,0,0,1,0-1.58,1.117,1.117,0,0,1,1.57,0l5.89,5.89,12.54-12.55a1.11,1.11,0,0,1,1.57,1.57Z" transform="translate(-3420 -5346)"/>
</svg>
