<svg xmlns="http://www.w3.org/2000/svg" width="27" height="37.97" viewBox="0 0 54 75.94">
  <defs>
    <style>
      .cls-1 {
        fill: #ffca00;
        fill-rule: evenodd;
      }
    </style>
  </defs>
  <path id="icon" class="cls-1" d="M652.829,2876.06l10.649-1.31A1.745,1.745,0,0,0,665,2873l0-.2-1.418-11.28a1.746,1.746,0,0,0-1.949-1.5,1.733,1.733,0,0,0-1.52,1.92l0.853,6.79-0.657-.48a37.738,37.738,0,0,0-48.69,3.57,1.712,1.712,0,0,0,0,2.44,1.809,1.809,0,0,0,2.471,0,34.2,34.2,0,0,1,44.483-2.98l0.681,0.51-6.846.84a1.737,1.737,0,0,0-1.52,1.93A1.758,1.758,0,0,0,652.829,2876.06Zm12.075,46.89a1.712,1.712,0,0,0-.512-1.22,1.77,1.77,0,0,0-1.236-.5h0a1.77,1.77,0,0,0-1.236.5c-0.31.31-.585,0.58-0.832,0.83-0.78.77-1.787,1.76-1.812,1.78l-0.042-.04c-0.208.16-.295,0.17-0.372,0.12a34.242,34.242,0,0,1-41.423.29l-0.681-.51,6.847-.84a1.727,1.727,0,0,0,1.52-1.92,1.745,1.745,0,0,0-1.738-1.51,1.512,1.512,0,0,0-.212.01l-10.647,1.3a1.805,1.805,0,0,0-1.151.66,1.723,1.723,0,0,0-.369,1.27l1.42,11.31a1.744,1.744,0,0,0,1.951,1.5,1.771,1.771,0,0,0,1.164-.65,1.713,1.713,0,0,0,.355-1.27l-0.852-6.8,0.656,0.49a37.758,37.758,0,0,0,48.691-3.58A1.7,1.7,0,0,0,664.9,2922.95Zm-11.264-38.46H621.808a3.822,3.822,0,0,0-3.846,3.79v19.12a3.824,3.824,0,0,0,3.846,3.8H653.64a3.823,3.823,0,0,0,3.845-3.8v-19.11A3.823,3.823,0,0,0,653.64,2884.49Zm0,23.5H621.808a0.591,0.591,0,0,1-.6-0.59v-11.18h33.026v11.18A0.592,0.592,0,0,1,653.64,2907.99Zm-32.429-19.7a0.591,0.591,0,0,1,.6-0.59H653.64a0.59,0.59,0,0,1,.6.59v2.17H621.211v-2.17Z" transform="translate(-611 -2860.03)"/>
</svg>
