<svg xmlns="http://www.w3.org/2000/svg" width="7.905" height="14" viewBox="0 0 15.81 28">
  <defs>
    <style>
      .cls-1 {
        fill: #0b0819;
        fill-rule: evenodd;
      }
    </style>
  </defs>
  <path id="Shape_3_copy_2" data-name="Shape 3 copy 2" class="cls-1" d="M2840.47,2017.42l-12.22-12.43-0.25.01h-2l-0.29-.01a1.859,1.859,0,0,0,0,2.6l9.14,9.3A4.367,4.367,0,0,1,2836,2019c0.09,0.6-1.15,1.55-1.15,1.55l-9.14,9.3a1.859,1.859,0,0,0,0,2.6,1.787,1.787,0,0,0,2.54,0l12.22-12.43A1.859,1.859,0,0,0,2840.47,2017.42Z" transform="translate(-2825.19 -2005)"/>
</svg>
