<svg id="Group_5_copy_2" data-name="Group 5 copy 2" xmlns="http://www.w3.org/2000/svg" width="42.5" height="36.5" viewBox="0 0 85 73">
  <defs>
    <style>
      .cls-1 {
        fill: #f4a800;
      }

      .cls-1, .cls-2 {
        fill-rule: evenodd;
      }

      .cls-2 {
        fill: #ffbb13;
      }
    </style>
  </defs>
  <path id="Shape_5_copy_3" data-name="Shape 5 copy 3" class="cls-1" d="M1735.11,11881.1a6.41,6.41,0,0,0-9.11,0,6.27,6.27,0,0,0-1.89,4.5,6.677,6.677,0,0,0,1.89,4.6l24.9,24.8,9.11-9.1Z" transform="translate(-1701 -11842)"/>
  <path id="Shape_5_copy_2" data-name="Shape 5 copy 2" class="cls-1" d="M1761,11866.8l-24.9-24.8-9.11,9.1,24.9,24.8a6.445,6.445,0,0,0,11-4.5A6.5,6.5,0,0,0,1761,11866.8Z" transform="translate(-1701 -11842)"/>
  <path class="cls-2" d="M1737.03,11843.3l-0.93-1.3-33.21,33a6.722,6.722,0,0,0-1.89,4.6,6.453,6.453,0,0,0,6.44,6.4,6.238,6.238,0,0,0,4.55-1.9l24.87-24.7C1742.17,11854.1,1739.29,11846.6,1737.03,11843.3Z" transform="translate(-1701 -11842)"/>
  <path id="Shape_5_copy" data-name="Shape 5 copy" class="cls-2" d="M1784.12,11872.9a6.47,6.47,0,0,0-9.11,0l-24.87,24.7c-5.3,5.3-2.43,12.8-.17,16.1l0.93,1.3,33.21-33A6.44,6.44,0,0,0,1784.12,11872.9Z" transform="translate(-1701 -11842)"/>
</svg>
