<svg width="120" height="26" viewBox="0 0 120 26" fill="none" xmlns="http://www.w3.org/2000/svg">
<path d="M60.256 13.9886C59.3833 13.9904 58.5308 14.2226 57.8063 14.6556C57.0818 15.0887 56.5179 15.7033 56.1858 16.4217C55.8537 17.14 55.7684 17.9299 55.9407 18.6914C56.113 19.4529 56.5351 20.1519 57.1536 20.6999C57.7721 21.2478 58.5593 21.6203 59.4157 21.77C60.272 21.9198 61.159 21.8401 61.9645 21.5412C62.7699 21.2422 63.4577 20.7374 63.9409 20.0905C64.424 19.4436 64.6808 18.6837 64.6788 17.9069C64.6872 17.3887 64.5784 16.8743 64.3589 16.3943C64.1393 15.9143 63.8135 15.4785 63.4009 15.1129C62.9882 14.7473 62.4971 14.4594 61.9568 14.2662C61.4165 14.0731 60.8381 13.9786 60.256 13.9886ZM60.256 20.2856C59.7211 20.3189 59.1873 20.2082 58.724 19.9679C58.2607 19.7276 57.8894 19.3687 57.6582 18.9381C57.4271 18.5074 57.3468 18.0248 57.4279 17.553C57.509 17.0812 57.7477 16.6421 58.1129 16.2926C58.4781 15.9432 58.953 15.6996 59.4758 15.5935C59.9986 15.4875 60.5451 15.5239 61.0444 15.698C61.5436 15.8721 61.9725 16.1759 62.2752 16.5698C62.5779 16.9638 62.7405 17.4296 62.7418 17.9069C62.7585 18.2093 62.707 18.5117 62.5903 18.7961C62.4737 19.0805 62.2942 19.3412 62.0625 19.5629C61.8308 19.7846 61.5516 19.9628 61.2413 20.0869C60.9311 20.211 60.596 20.2786 60.256 20.2856ZM50.6024 13.9886C49.7298 13.9904 48.8773 14.2226 48.1528 14.6556C47.4283 15.0887 46.8644 15.7033 46.5323 16.4217C46.2002 17.14 46.1149 17.9299 46.2872 18.6914C46.4595 19.4529 46.8815 20.1519 47.5001 20.6999C48.1186 21.2478 48.9058 21.6203 49.7622 21.77C50.6185 21.9198 51.5055 21.8401 52.3109 21.5412C53.1164 21.2422 53.8042 20.7374 54.2874 20.0905C54.7705 19.4436 55.0273 18.6837 55.0252 17.9069C55.0337 17.3887 54.9249 16.8743 54.7054 16.3943C54.4858 15.9143 54.16 15.4785 53.7474 15.1129C53.3347 14.7473 52.8436 14.4594 52.3033 14.2662C51.763 14.0731 51.1846 13.9786 50.6024 13.9886ZM50.6024 20.2856C50.0675 20.3189 49.5338 20.2082 49.0705 19.9679C48.6072 19.7276 48.2359 19.3687 48.0047 18.9381C47.7736 18.5074 47.6933 18.0248 47.7744 17.553C47.8555 17.0812 48.0942 16.6421 48.4594 16.2926C48.8246 15.9432 49.2995 15.6996 49.8223 15.5935C50.3451 15.4875 50.8916 15.5239 51.3909 15.698C51.8901 15.8721 52.319 16.1759 52.6217 16.5698C52.9244 16.9638 53.087 17.4296 53.0883 17.9069C53.105 18.2093 53.0535 18.5117 52.9368 18.7961C52.8202 19.0805 52.6407 19.3412 52.409 19.5629C52.1773 19.7846 51.8981 19.9628 51.5878 20.0869C51.2776 20.211 50.9425 20.2786 50.6024 20.2856ZM39.126 15.1964V16.8559H43.6006C43.5304 17.6375 43.1654 18.3751 42.5648 18.9487C42.1159 19.3558 41.5761 19.6745 40.9801 19.8841C40.3842 20.0937 39.7455 20.1897 39.1053 20.1657C37.7867 20.1657 36.5221 19.6995 35.5897 18.8696C34.6573 18.0396 34.1335 16.914 34.1335 15.7403C34.1335 14.5666 34.6573 13.441 35.5897 12.6111C36.5221 11.7812 37.7867 11.3149 39.1053 11.3149C40.3694 11.2982 41.59 11.7255 42.5026 12.5042L43.8181 11.3333C43.2007 10.7899 42.4677 10.3615 41.662 10.0734C40.8563 9.78524 39.9941 9.64313 39.126 9.65537C38.2052 9.62348 37.2866 9.75737 36.4253 10.049C35.564 10.3407 34.7777 10.7841 34.1136 11.3527C33.4494 11.9213 32.921 12.6034 32.5601 13.3582C32.1992 14.1129 32.0132 14.9247 32.0132 15.7449C32.0132 16.5652 32.1992 17.377 32.5601 18.1317C32.921 18.8864 33.4494 19.5685 34.1136 20.1371C34.7777 20.7058 35.564 21.1492 36.4253 21.4408C37.2866 21.7325 38.2052 21.8664 39.126 21.8345C40.012 21.866 40.8955 21.7303 41.7184 21.4363C42.5414 21.1424 43.2852 20.6968 43.9009 20.1289C44.9886 19.0653 45.5682 17.6665 45.5168 16.229C45.5205 15.883 45.4893 15.5374 45.4235 15.1964H39.126ZM86.0573 16.4871C85.7872 15.7797 85.2821 15.1621 84.6088 14.7159C83.9355 14.2697 83.1259 14.0161 82.2871 13.9886C81.7205 13.9876 81.1597 14.0901 80.6394 14.2896C80.1191 14.4892 79.6503 14.7817 79.2619 15.1489C78.8736 15.5162 78.5741 15.9504 78.3818 16.4248C78.1895 16.8991 78.1085 17.4036 78.1439 17.9069C78.1351 18.7485 78.4324 19.5701 78.9913 20.249C79.5503 20.9278 80.341 21.4274 81.2453 21.6733C82.1497 21.9191 83.1191 21.8979 84.0088 21.6129C84.8985 21.3279 85.6607 20.7944 86.1816 20.092L84.6797 19.17C84.4558 19.5022 84.1383 19.7765 83.7586 19.9657C83.3788 20.1549 82.9501 20.2525 82.5149 20.2487C82.066 20.2652 81.622 20.1604 81.2412 19.9482C80.8603 19.7359 80.5606 19.4261 80.3812 19.0594L86.2748 16.8928L86.0573 16.4871ZM80.0498 17.7963C80.0288 17.5099 80.0722 17.2227 80.1775 16.9514C80.2827 16.6802 80.4478 16.4303 80.6629 16.2165C80.878 16.0027 81.1388 15.8293 81.4302 15.7064C81.7215 15.5834 82.0375 15.5135 82.3596 15.5006C82.6933 15.4825 83.0256 15.5524 83.3149 15.7017C83.6042 15.8509 83.8376 16.0728 83.9858 16.3396L80.0498 17.7963ZM75.2645 21.5948H77.2014V10.0703H75.2645V21.5948ZM72.095 14.8645H72.0225C71.7331 14.5711 71.376 14.3369 70.9756 14.1778C70.5751 14.0187 70.1408 13.9384 69.7023 13.9425C68.5704 13.9914 67.503 14.426 66.7213 15.1563C65.9396 15.8867 65.5036 16.8567 65.5036 17.8654C65.5036 18.8742 65.9396 19.8442 66.7213 20.5745C67.503 21.3049 68.5704 21.7395 69.7023 21.7884C70.1414 21.7962 70.5771 21.7177 70.9782 21.5583C71.3792 21.3989 71.7358 21.1627 72.0225 20.8664H72.095V21.4288C72.095 22.9316 71.1938 23.7337 69.7437 23.7337C69.2593 23.7243 68.789 23.5869 68.3925 23.339C67.996 23.0911 67.6912 22.7439 67.5168 22.3416L65.8388 22.9593C66.1491 23.6528 66.6884 24.2462 67.3857 24.6611C68.0829 25.0759 68.9052 25.2926 69.7437 25.2826C72.0121 25.2826 73.8869 24.0933 73.8869 21.1983V14.2191H72.095V14.8645ZM69.868 20.2856C69.1894 20.2479 68.5524 19.9814 68.0868 19.5403C67.6212 19.0993 67.362 18.5168 67.362 17.9115C67.362 17.3063 67.6212 16.7238 68.0868 16.2827C68.5524 15.8417 69.1894 15.5752 69.868 15.5375C70.1997 15.5502 70.5252 15.6222 70.825 15.7492C71.1247 15.8762 71.3928 16.0555 71.6131 16.2766C71.8334 16.4977 72.0016 16.7559 72.1075 17.036C72.2134 17.3161 72.2549 17.6123 72.2296 17.9069C72.2579 18.2026 72.2185 18.5003 72.1138 18.782C72.0091 19.0637 71.8413 19.3236 71.6205 19.546C71.3998 19.7683 71.1307 19.9485 70.8294 20.0756C70.5282 20.2028 70.2011 20.2742 69.868 20.2856ZM95.1308 10.0703H90.4905V21.5948H92.4274V17.2247H95.1308C95.6828 17.26 96.2371 17.1937 96.7591 17.0299C97.281 16.8661 97.7595 16.6084 98.1646 16.2727C98.5697 15.9371 98.8928 15.5308 99.1138 15.0791C99.3347 14.6274 99.4487 14.1401 99.4487 13.6475C99.4487 13.1548 99.3347 12.6675 99.1138 12.2158C98.8928 11.7641 98.5697 11.3578 98.1646 11.0222C97.7595 10.6866 97.281 10.4288 96.7591 10.265C96.2371 10.1013 95.6828 10.035 95.1308 10.0703ZM95.1308 15.602H92.4274V11.6745H95.1722C95.4633 11.6745 95.7515 11.7255 96.0205 11.8247C96.2894 11.9238 96.5338 12.0691 96.7396 12.2523C96.9454 12.4356 97.1087 12.6531 97.2201 12.8924C97.3315 13.1318 97.3888 13.3884 97.3888 13.6475C97.3888 13.9066 97.3315 14.1631 97.2201 14.4025C97.1087 14.6419 96.9454 14.8594 96.7396 15.0426C96.5338 15.2258 96.2894 15.3711 96.0205 15.4703C95.7515 15.5694 95.4633 15.6205 95.1722 15.6205L95.1308 15.602ZM107.084 13.9517C106.378 13.913 105.676 14.0592 105.063 14.3721C104.45 14.6851 103.953 15.1512 103.635 15.7127L105.344 16.3488C105.516 16.0717 105.775 15.845 106.09 15.6961C106.404 15.5472 106.76 15.4825 107.115 15.5098C107.361 15.4843 107.61 15.5025 107.848 15.5636C108.086 15.6247 108.307 15.7273 108.5 15.8654C108.693 16.0036 108.853 16.1746 108.971 16.3684C109.089 16.5622 109.162 16.7749 109.186 16.9942V17.1048C108.564 16.8134 107.87 16.6615 107.167 16.6623C105.323 16.6623 103.438 17.5842 103.438 19.2622C103.456 19.6189 103.555 19.9686 103.728 20.2907C103.901 20.6128 104.145 20.9006 104.445 21.1371C104.746 21.3736 105.096 21.554 105.477 21.6674C105.857 21.7809 106.259 21.8252 106.659 21.7976C107.145 21.8215 107.63 21.73 108.063 21.5323C108.496 21.3347 108.862 21.038 109.124 20.6728H109.186V21.5948H111.051V17.1601C111.051 15.141 109.331 13.9702 107.125 13.9702L107.084 13.9517ZM106.846 20.2671C106.214 20.2671 105.333 19.9813 105.333 19.2899C105.333 18.3679 106.431 18.0544 107.405 18.0544C108.02 18.0409 108.628 18.1747 109.166 18.4417C109.101 18.9424 108.834 19.4051 108.415 19.7441C107.996 20.0832 107.453 20.2755 106.887 20.2856L106.846 20.2671ZM117.846 14.2191L115.629 19.2161H115.567L113.267 14.2191H111.196L114.645 21.2076L112.677 25.089H114.697L120 14.2191H117.846ZM100.444 21.5948H102.371V10.0703H100.444V21.5948Z" fill="white"/>
<path d="M0.491274 0.887178C0.149952 1.24639 -0.0242067 1.70815 0.00445439 2.17792V22.5717C-0.0307892 23.0423 0.144176 23.5062 0.491274 23.8625L0.563779 23.9362L13.3971 12.5131V12.2365L0.563779 0.822639L0.491274 0.887178Z" fill="url(#paint0_linear)"/>
<path d="M17.6437 16.3209L13.397 12.5132V12.2366L17.6437 8.42895L17.7369 8.48427L22.8226 11.0473C24.2727 11.7757 24.2727 12.9742 22.8226 13.7118L17.7576 16.2748L17.6437 16.3209Z" fill="url(#paint1_linear)"/>
<path d="M17.7681 16.2658L13.3971 12.3752L0.491211 23.8628C0.783897 24.0947 1.15853 24.2281 1.55015 24.2399C1.94176 24.2517 2.32567 24.1411 2.63528 23.9273L17.7681 16.2658Z" fill="url(#paint2_linear)"/>
<path d="M17.7681 8.48464L2.63528 0.832363C2.32768 0.615623 1.94408 0.502354 1.55193 0.512472C1.15978 0.52259 0.784193 0.655447 0.491211 0.887682L13.3971 12.3753L17.7681 8.48464Z" fill="url(#paint3_linear)"/>
<path opacity="0.2" d="M17.6438 16.1827L2.63528 23.7888C2.33692 23.9893 1.9733 24.0977 1.5995 24.0977C1.2257 24.0977 0.862079 23.9893 0.563715 23.7888L0.491211 23.8534L0.563715 23.9271C0.862079 24.1276 1.2257 24.236 1.5995 24.236C1.9733 24.236 2.33692 24.1276 2.63528 23.9271L17.7681 16.2656L17.6438 16.1827Z" fill="black"/>
<path opacity="0.12" d="M0.491473 23.7337C0.158773 23.368 -0.00427253 22.903 0.0357275 22.4338V22.5721C0.000483837 23.0426 0.175447 23.5065 0.522545 23.8628L0.595052 23.7983L0.491473 23.7337Z" fill="black"/>
<path opacity="0.12" d="M22.823 13.5737L17.644 16.1829L17.7373 16.2658L22.823 13.7028C23.1232 13.5898 23.3836 13.4069 23.5768 13.1732C23.77 12.9396 23.8889 12.6639 23.9209 12.3752C23.8561 12.6375 23.723 12.8827 23.5323 13.0909C23.3416 13.299 23.0986 13.4644 22.823 13.5737Z" fill="black"/>
<path opacity="0.25" d="M2.63529 0.961363L22.8227 11.1767C23.0984 11.286 23.3414 11.4514 23.5321 11.6595C23.7228 11.8677 23.8559 12.1129 23.9206 12.3752C23.8886 12.0865 23.7698 11.8108 23.5765 11.5772C23.3833 11.3435 23.1229 11.1606 22.8227 11.0476L2.63529 0.832287C1.19555 0.0947181 0.00439453 0.703213 0.00439453 2.17835V2.31665C0.035468 0.841507 1.19555 0.233013 2.63529 0.961363Z" fill="white"/>
<path d="M33.2947 7.09246H32.5386V5.24854H33.1808C33.4697 4.96933 33.687 4.63754 33.8175 4.27617C33.9481 3.91479 33.9888 3.53246 33.9369 3.15568V0.389801H38.08V5.23932H38.774V7.08324H38.0075V5.92157H33.2947V7.09246ZM34.7344 3.15568C34.7806 3.89628 34.5749 4.63208 34.144 5.26698H37.2514V1.07205H34.7344V3.15568Z" fill="white" stroke="white" stroke-width="0.211283" stroke-miterlimit="10"/>
<path d="M44.9988 5.20245C44.7005 5.46867 44.3461 5.67988 43.956 5.824C43.5659 5.96812 43.1476 6.0423 42.7252 6.0423C42.3028 6.0423 41.8846 5.96812 41.4944 5.824C41.1043 5.67988 40.7499 5.46867 40.4517 5.20245C39.8591 4.65158 39.5283 3.91836 39.5283 3.15569C39.5283 2.39303 39.8591 1.65981 40.4517 1.10894C40.7499 0.842724 41.1043 0.631506 41.4944 0.487389C41.8846 0.343272 42.3028 0.269089 42.7252 0.269089C43.1476 0.269089 43.5659 0.343272 43.956 0.487389C44.3461 0.631506 44.7005 0.842724 44.9988 1.10894C45.298 1.37815 45.5337 1.69792 45.692 2.04942C45.8503 2.40092 45.928 2.77706 45.9206 3.15569C45.9329 3.53489 45.8573 3.91227 45.6987 4.26438C45.5402 4.61649 45.3019 4.93579 44.9988 5.20245ZM41.0317 4.74147C41.25 4.94323 41.5124 5.10298 41.8028 5.21081C42.0932 5.31865 42.4054 5.37229 42.72 5.3684C43.0349 5.37396 43.3477 5.32108 43.6383 5.21315C43.929 5.10521 44.1913 4.94457 44.4084 4.74147C44.8553 4.30919 45.1034 3.74317 45.1034 3.15569C45.1034 2.56822 44.8553 2.0022 44.4084 1.56992C44.1913 1.36682 43.929 1.20618 43.6383 1.09824C43.3477 0.990307 43.0349 0.937433 42.72 0.942989C42.4054 0.939103 42.0932 0.992739 41.8028 1.10058C41.5124 1.20841 41.25 1.36816 41.0317 1.56992C40.5913 2.0051 40.3477 2.57002 40.3477 3.15569C40.3477 3.74137 40.5913 4.30629 41.0317 4.74147Z" fill="white" stroke="white" stroke-width="0.211283" stroke-miterlimit="10"/>
<path d="M49.9397 6.04171C49.5206 6.04756 49.1046 5.97788 48.7165 5.83687C48.3285 5.69585 47.9765 5.48642 47.6817 5.22116C47.0841 4.66522 46.7505 3.92543 46.7505 3.15597C46.7505 2.38651 47.0841 1.64672 47.6817 1.09078C47.9813 0.820955 48.34 0.608873 48.7356 0.467712C49.1312 0.326551 49.5552 0.259331 49.9812 0.270231C50.4148 0.259311 50.8455 0.336692 51.2404 0.496472C51.6353 0.656253 51.984 0.894211 52.2599 1.19219L51.7109 1.67161C51.5074 1.43874 51.2441 1.25273 50.9431 1.1292C50.6422 1.00567 50.3123 0.948231 49.9812 0.961702C49.6623 0.954463 49.3452 1.00555 49.0495 1.1118C48.7537 1.21805 48.4856 1.37721 48.2618 1.57942C47.8156 2.0157 47.5683 2.58444 47.5683 3.17441C47.5683 3.76437 47.8156 4.33312 48.2618 4.7694C48.4856 4.97161 48.7537 5.13076 49.0495 5.23701C49.3452 5.34326 49.6623 5.39435 49.9812 5.38711C50.3371 5.37811 50.6865 5.30002 51.0049 5.15828C51.3234 5.01655 51.6032 4.81461 51.8249 4.56657L52.3842 5.05521C52.1004 5.35788 51.7473 5.60307 51.3484 5.77434C50.9078 5.95757 50.426 6.04901 49.9397 6.04171Z" fill="white" stroke="white" stroke-width="0.211283" stroke-miterlimit="10"/>
<path d="M55.6363 5.92157H54.8388V1.07205H53.0986V0.389801H57.3661V1.07205H55.6363V5.92157Z" fill="white" stroke="white" stroke-width="0.211283" stroke-miterlimit="10"/>
<path d="M62.8556 0.389801L60.5044 5.05492C60.4474 5.24197 60.3453 5.41574 60.2054 5.56419C60.0654 5.71265 59.8908 5.83224 59.6938 5.91467C59.4967 5.99711 59.2819 6.04043 59.0642 6.04162C58.8464 6.04281 58.631 6.00184 58.4328 5.92157L58.64 5.26697C58.7667 5.33037 58.909 5.36518 59.0543 5.36839C59.2076 5.37523 59.3595 5.33982 59.4893 5.26697C59.6151 5.17379 59.7115 5.05304 59.769 4.91663L59.9969 4.47409L57.9253 0.389801H58.8679L60.4008 3.56135L61.9131 0.389801H62.8556Z" fill="white" stroke="white" stroke-width="0.211283" stroke-miterlimit="10"/>
<path d="M63.7568 5.92157V0.389801H68.2521V5.92157H67.4546V1.07205H64.5544V5.92157H63.7568Z" fill="white" stroke="white" stroke-width="0.211283" stroke-miterlimit="10"/>
<path d="M69.6714 5.92157V0.389801H70.4689V2.75924H73.5763V0.389801H74.3842V5.92157H73.5763V3.42305H70.4689V5.92157H69.6714Z" fill="white" stroke="white" stroke-width="0.211283" stroke-miterlimit="10"/>
<path d="M80.889 5.20245C80.5898 5.46895 80.2346 5.68036 79.8436 5.8246C79.4526 5.96885 79.0335 6.04309 78.6103 6.04309C78.187 6.04309 77.7679 5.96885 77.3769 5.8246C76.9859 5.68036 76.6307 5.46895 76.3316 5.20245C75.739 4.65158 75.4082 3.91836 75.4082 3.15569C75.4082 2.39303 75.739 1.65981 76.3316 1.10894C76.6298 0.842724 76.9842 0.631506 77.3743 0.487389C77.7644 0.343272 78.1827 0.269089 78.6051 0.269089C79.0275 0.269089 79.4457 0.343272 79.8359 0.487389C80.226 0.631506 80.5804 0.842724 80.8786 1.10894C81.4665 1.66195 81.7941 2.39436 81.7941 3.15569C81.7941 3.91702 81.4665 4.64944 80.8786 5.20245H80.889ZM76.9219 4.74147C77.139 4.94457 77.4013 5.10521 77.692 5.21314C77.9826 5.32108 78.2954 5.37396 78.6103 5.3684C78.9249 5.37229 79.2371 5.31865 79.5275 5.21081C79.8179 5.10297 80.0803 4.94323 80.2986 4.74147C80.739 4.30629 80.9827 3.74137 80.9827 3.15569C80.9827 2.57002 80.739 2.0051 80.2986 1.56992C80.0803 1.36816 79.8179 1.20841 79.5275 1.10058C79.2371 0.992739 78.9249 0.939103 78.6103 0.942989C78.2954 0.937433 77.9826 0.990307 77.692 1.09824C77.4013 1.20618 77.139 1.36682 76.9219 1.56992C76.475 2.0022 76.2269 2.56822 76.2269 3.15569C76.2269 3.74317 76.475 4.30918 76.9219 4.74147Z" fill="white" stroke="white" stroke-width="0.211283" stroke-miterlimit="10"/>
<path d="M85.063 5.92165V0.389885H87.3106C87.7766 0.385722 88.2274 0.537023 88.5743 0.813986C88.7474 0.947684 88.8853 1.1136 88.9784 1.30001C89.0715 1.48641 89.1174 1.68874 89.1129 1.89268C89.1154 2.14103 89.0362 2.38461 88.885 2.59337C88.7321 2.79132 88.5206 2.9477 88.2739 3.04513C88.573 3.13615 88.8357 3.30274 89.03 3.52455C89.2204 3.75049 89.3223 4.02579 89.3201 4.30822C89.3254 4.52076 89.278 4.73173 89.1813 4.92613C89.0846 5.12053 88.9411 5.29359 88.7607 5.43301C88.4012 5.73078 87.9259 5.89274 87.4349 5.88477L85.063 5.92165ZM85.8605 2.75932H87.3106C87.4463 2.76631 87.582 2.74589 87.7076 2.69959C87.8331 2.65329 87.9453 2.5823 88.0357 2.49196C88.2113 2.33876 88.3119 2.12999 88.3154 1.91112C88.3251 1.69157 88.2399 1.47706 88.0771 1.31185C87.9901 1.22587 87.8827 1.15812 87.7627 1.11349C87.6427 1.06885 87.5131 1.04843 87.3832 1.0537H85.8916L85.8605 2.75932ZM85.8605 5.2394H87.4764C87.6167 5.24359 87.7562 5.22014 87.8852 5.17073C88.0141 5.12133 88.1291 5.04718 88.2221 4.95359C88.401 4.78356 88.5009 4.55958 88.5018 4.32666C88.4955 4.09568 88.392 3.87523 88.2118 3.70894C88.1119 3.61562 87.9912 3.54197 87.8574 3.49274C87.7236 3.44351 87.5797 3.4198 87.4349 3.42314H85.8605V5.2394Z" fill="white" stroke="white" stroke-width="0.211283" stroke-miterlimit="10"/>
<defs>
<linearGradient id="paint0_linear" x1="12.2578" y1="1.96587" x2="-3.1085" y2="19.2292" gradientUnits="userSpaceOnUse">
<stop stop-color="#00A0FF"/>
<stop offset="0.01" stop-color="#00A1FF"/>
<stop offset="0.26" stop-color="#00BEFF"/>
<stop offset="0.51" stop-color="#00D2FF"/>
<stop offset="0.76" stop-color="#00DFFF"/>
<stop offset="1" stop-color="#00E3FF"/>
</linearGradient>
<linearGradient id="paint1_linear" x1="24.7181" y1="12.3749" x2="-0.337517" y2="12.3749" gradientUnits="userSpaceOnUse">
<stop stop-color="#FFE000"/>
<stop offset="0.41" stop-color="#FFBD00"/>
<stop offset="0.78" stop-color="#FFA500"/>
<stop offset="1" stop-color="#FF9C00"/>
</linearGradient>
<linearGradient id="paint2_linear" x1="15.3961" y1="14.4957" x2="-5.44738" y2="37.9022" gradientUnits="userSpaceOnUse">
<stop stop-color="#FF3A44"/>
<stop offset="1" stop-color="#C31162"/>
</linearGradient>
<linearGradient id="paint3_linear" x1="-2.76115" y1="-5.89795" x2="6.54286" y2="4.55471" gradientUnits="userSpaceOnUse">
<stop stop-color="#32A071"/>
<stop offset="0.07" stop-color="#2DA771"/>
<stop offset="0.48" stop-color="#15CF74"/>
<stop offset="0.8" stop-color="#06E775"/>
<stop offset="1" stop-color="#00F076"/>
</linearGradient>
</defs>
</svg>
