<svg width="14" height="14" viewBox="0 0 14 14" fill="none" xmlns="http://www.w3.org/2000/svg">
<path d="M7.04239 7.79817L7.04192 7.79767L6.34075 7.05322C6.24945 6.9446 6.13031 6.85975 5.99539 6.80495C5.85894 6.74952 5.70968 6.72614 5.56137 6.73639C5.41306 6.74665 5.26909 6.79031 5.14302 6.86436C5.01836 6.93757 4.91442 7.03865 4.84239 7.1597L3.254 9.51398L3.25397 9.51403C3.20915 9.58052 3.18397 9.65806 3.18287 9.73862C3.18177 9.81919 3.20483 9.89739 3.24796 9.96503C3.29096 10.0325 3.35191 10.0864 3.42283 10.1231C3.49368 10.1598 3.57305 10.1786 3.65299 10.1786C3.653 10.1786 3.65301 10.1786 3.65302 10.1786H10.6952H10.6952C10.7691 10.1786 10.8425 10.1625 10.9092 10.131L10.8452 9.99539L10.9092 10.131C10.976 10.0995 11.0349 10.0531 11.0796 9.99435C11.1244 9.93547 11.1534 9.86618 11.1623 9.79239C11.1712 9.71856 11.1595 9.64434 11.129 9.57671C11.129 9.57668 11.129 9.57665 11.129 9.57662L9.45142 5.84994C9.41453 5.70933 9.32786 5.58652 9.20866 5.49839C9.08549 5.40732 8.93362 5.35748 8.77794 5.35431C8.62226 5.35113 8.46828 5.39473 8.34098 5.48039C8.2178 5.56327 8.12518 5.68201 8.08119 5.82065L7.06897 7.79857C7.0689 7.79862 7.06881 7.79868 7.06872 7.79874C7.06718 7.79976 7.06403 7.80122 7.05944 7.80177C7.05485 7.80231 7.0504 7.80173 7.04689 7.80051C7.04367 7.79939 7.04239 7.79816 7.04239 7.79817ZM1.737 2.45483H12.2633C12.2844 2.45483 12.3238 2.47783 12.3238 2.53509V11.7456C12.3238 11.8029 12.2844 11.8259 12.2633 11.8259H1.73701C1.71595 11.8259 1.67648 11.8029 1.67648 11.7456V2.53509C1.67648 2.47783 1.71595 2.45483 1.737 2.45483ZM1.737 0.85C0.866657 0.85 0.183496 1.61738 0.183496 2.53509V11.7456C0.183496 12.6633 0.866657 13.4307 1.73701 13.4307H12.2633C13.1337 13.4307 13.8168 12.6633 13.8168 11.7456V2.53509C13.8168 1.61738 13.1337 0.85 12.2633 0.85H1.737Z" fill="black" stroke="black" stroke-width="0.3"/>
</svg>
