<svg width="130" height="56" viewBox="0 0 130 56" fill="none" xmlns="http://www.w3.org/2000/svg">
<g clip-path="url(#clip0_964_193)">
<path d="M56.0001 0H0V56H56.0001V0Z" fill="url(#paint0_linear_964_193)"/>
<path d="M56.0001 0H0V56H56.0001V0Z" fill="url(#paint1_radial_964_193)"/>
<path d="M19.244 67.9881C36.5149 67.9881 50.5157 53.9928 50.5157 36.7285C50.5157 19.4642 36.5149 5.46875 19.244 5.46875C1.97305 5.46875 -12.0278 19.4642 -12.0278 36.7285C-12.0278 53.9928 1.97305 67.9881 19.244 67.9881Z" fill="#FFC800"/>
<path d="M32.7026 60.0185C22.0827 66.1445 10.565 67.242 3.20801 63.5724C12.6272 69.1831 24.721 69.6681 34.8861 63.8034C45.0514 57.932 50.6799 47.2212 50.5283 36.2613C50.0307 44.4676 43.3229 53.8927 32.7026 60.0185Z" fill="black"/>
<path d="M23.211 7.76134C25.3641 11.4853 20.1602 18.5209 11.5841 23.464C3.00801 28.407 -5.68332 29.4018 -7.83644 25.6717C-7.92744 25.4958 -8.0123 25.3017 -8.07297 25.1016C-8.631 23.367 -7.96379 21.1229 -6.35654 18.7575C-6.09572 18.3875 -5.82892 18.0236 -5.55597 17.6657C-3.1299 14.5058 -0.0548773 11.7644 3.60845 9.6537C7.27181 7.53697 11.1838 6.25115 15.1322 5.72955C15.5932 5.66282 16.042 5.61431 16.4787 5.58398C19.3293 5.37172 21.6037 5.91756 22.8289 7.26403C22.9744 7.4278 23.1018 7.59155 23.211 7.76134Z" fill="black"/>
<path d="M36.5056 11.7946C40.2661 18.3025 32.6786 29.7111 19.5657 37.2804C6.45291 44.8498 -7.23001 45.7108 -10.9843 39.2031C-11.6091 38.1173 -11.9426 36.9105 -12.0094 35.6124C-12.1731 39.9853 -11.421 44.4311 -9.66819 48.6526C-9.40737 49.2831 -9.12234 49.9079 -8.81906 50.5265C-8.80698 50.5509 -8.78876 50.5812 -8.77662 50.6053C-7.64247 52.5645 -5.96848 54.1051 -3.88207 55.2212C3.47493 59.157 15.9145 57.8047 27.5474 51.0907C39.1744 44.3766 46.5677 34.2901 46.8407 25.9568C46.9195 23.6035 46.4282 21.3897 45.3061 19.4307C44.8815 18.7938 44.4389 18.1691 43.9717 17.5748C41.2122 14.0085 37.7793 11.17 33.9643 9.14417C35.0257 9.84173 35.887 10.7211 36.5056 11.7946C36.5056 11.7946 36.5118 11.8007 36.5118 11.8068L36.5056 11.7946Z" fill="black"/>
<mask id="mask0_964_193" style="mask-type:alpha" maskUnits="userSpaceOnUse" x="0" y="0" width="56" height="56">
<path d="M56.0001 8C56.0001 3.58172 52.4183 0 48.0001 0H7.99999C3.58171 0 0 3.58172 0 8V48C0 52.4183 3.58172 56 8 56H48.0001C52.4183 56 56.0001 52.4183 56.0001 48V8Z" fill="url(#paint2_linear_964_193)"/>
</mask>
<g mask="url(#mask0_964_193)">
<path d="M19.2503 67.9881C36.5212 67.9881 50.5222 53.9928 50.5222 36.7285C50.5222 19.4642 36.5212 5.46875 19.2503 5.46875C1.97937 5.46875 -12.0215 19.4642 -12.0215 36.7285C-12.0215 53.9928 1.97937 67.9881 19.2503 67.9881Z" fill="url(#paint3_radial_964_193)"/>
<path style="mix-blend-mode:overlay" d="M19.2503 67.9881C36.5212 67.9881 50.5222 53.9928 50.5222 36.7285C50.5222 19.4642 36.5212 5.46875 19.2503 5.46875C1.97937 5.46875 -12.0215 19.4642 -12.0215 36.7285C-12.0215 53.9928 1.97937 67.9881 19.2503 67.9881Z" fill="url(#paint4_radial_964_193)" fill-opacity="0.3"/>
<path d="M15.4376 27.3822H15.7657V27.0539V27.0506V27.0472V27.0438V27.0405V27.0371V27.0337V27.0304V27.027V27.0236V27.0202V27.0169V27.0135V27.0101V27.0065V27.0031V26.9998V26.9964V26.993V26.9897V26.986V26.9827V26.9793V26.9759V26.9723V26.9689V26.9655V26.9622V26.9588V26.9552V26.9518V26.9484V26.9448V26.9414V26.9381V26.9344V26.9311V26.9274V26.9241V26.9207V26.9171V26.9137V26.9101V26.9067V26.9031V26.8997V26.8961V26.8927V26.8891V26.8857V26.8821V26.8787V26.8751V26.8717V26.8681V26.8644V26.8611V26.8574V26.8538V26.8504V26.8468V26.8432V26.8398V26.8362V26.8325V26.8289V26.8255V26.8219V26.8183V26.8147V26.8113V26.8077V26.804V26.8004V26.7968V26.7931V26.7898V26.7861V26.7825V26.7789V26.7752V26.7716V26.768V26.7644V26.7607V26.7571V26.7535V26.7498V26.7462V26.7426V26.739V26.7353V26.7317V26.7281V26.7244V26.7208V26.7172V26.7133V26.7097V26.706V26.7024V26.6988V26.6951V26.6915V26.6876V26.684V26.6804V26.6767V26.6728V26.6692V26.6656V26.6619V26.6581V26.6544V26.6508V26.6469V26.6433V26.6397V26.6358V26.6321V26.6282V26.6246V26.621V26.6171V26.6132V26.6096V26.606V26.6021V26.5984V26.5945V26.5909V26.587V26.5831V26.5795V26.5756V26.572V26.5681V26.5642V26.5606V26.5567V26.5531V26.5492V26.5453V26.5417V26.5378V26.5339V26.53V26.5264V26.5225V26.5186V26.5147V26.5108V26.5072V26.5033V26.4994V26.4955V26.4916V26.4877V26.4841V26.4802V26.4763V26.4724V26.4685V26.4647V26.4608V26.4569V26.453V26.4491V26.4452V26.4413V26.4374V26.4335V26.4297V26.4258V26.4219V26.418V26.4138V26.4099V26.4061V26.4022V26.3983V26.3944V26.3902V26.3864V26.3825V26.3786V26.3747V26.3705V26.3667V26.3628V26.3589V26.3547V26.3508V26.347V26.3428V26.3389V26.335V26.3309V26.327V26.3228V26.3189V26.3148V26.3109V26.307V26.3029V26.299V26.2948V26.2909V26.2868V26.2829V26.2788V26.2746V26.2707V26.2666V26.2627V26.2585V26.2547V26.2505V26.2464V26.2422V26.2383V26.2342V26.23V26.2261V26.222V26.2178V26.214V26.2098V26.2057V26.2015V26.1974V26.1932V26.1893V26.1852V26.181V26.1769V26.1727V26.1686V26.1644V26.1603V26.1561V26.1522V26.1481V26.144V26.1398V26.1357V26.1315V26.1274V26.1232V26.1188V26.1147V26.1105V26.1064V26.1022V26.0981V26.0939V26.0898V26.0856V26.0812V26.0771V26.0729V26.0688V26.0646V26.0602V26.0561V26.0519V26.0478V26.0434V26.0392V26.0351V26.0307V26.0265V26.0221V26.018V26.0138V26.0094V26.0052V26.0011V25.9967V25.9925V25.9881V25.984V25.9796V25.9754V25.971V25.9669V25.9625V25.9583V25.9539V25.9495V25.9454V25.941V25.9368V25.9324V25.928V25.9237V25.9194V25.9151V25.9108V25.9064V25.9021V25.8978V25.8934V25.889V25.8847V25.8804V25.876V25.8716V25.8672V25.8629V25.8585V25.8541V25.8498V25.8454V25.841V25.8366V25.8322V25.8278V25.8234V25.819V25.8146V25.8102V25.8058V25.8013V25.797V25.7925V25.7881V25.7837V25.7792V25.7748V25.7703V25.7659V25.7614V25.757V25.7525V25.7481V25.7436V25.7391V25.7347V25.7302V25.7257V25.7212V25.7167V25.7123V25.7078V25.7033V25.6988V25.6943V25.6898V25.6852V25.6808V25.6762V25.6717V25.6672V25.6626V25.6581V25.6536V25.649V25.6445V25.64V25.6354V25.6309V25.6263V25.6217V25.6172V25.6126V25.6081V25.6035V25.5989V25.5943V25.5898V25.5851V25.5806V25.576V25.5714V25.5668V25.5621V25.5575V25.5529V25.5483V25.5437V25.539V25.5345V25.5298V25.5252V25.5205V25.5159V25.5113V25.5066V25.502V25.4973V25.4926V25.488V25.4833V25.4786V25.474V25.4693V25.4646V25.4599V25.4552V25.4505V25.4459V25.4412V25.4365V25.4318V25.427V25.4223V25.4176V25.4129V25.4081V25.4034V25.3987V25.394V25.3892V25.3844V25.3798V25.375V25.3702V25.3655V25.3607V25.356V25.3512V25.3464V25.3416V25.3369V25.3321V25.3273V25.3225V25.3177V25.3129V25.3081V25.3033V25.2985V25.2937V25.2889V25.284V25.2792V25.2744V25.2695V25.2648V25.2599V25.2551V25.2502V25.2454V25.2405V25.2356V25.2308V25.2259V25.221V25.2162V25.2113V25.2064V25.2016V25.1966V25.1918V25.1869V25.182V25.1771V25.1722V25.1673V25.1624V25.1574V25.1526V25.1476V25.1427V25.1378V25.1328V25.1279V25.123V25.118V25.1131V25.1081V25.1032V25.0982V25.0933V25.0883V25.0833V25.0784V25.0733V25.0684V25.0634V25.0584V25.0534V25.0484V25.0434V25.0384V25.0334V25.0284V25.0234V25.0184V25.0133V25.0083V25.0033V24.9983V24.9932V24.9882V24.9831V24.9781V24.973V24.968V24.9629V24.9578V24.9528V24.9477V24.9426V24.9375V24.9325V24.9274V24.9223V24.9172V24.9121V24.907V24.9019C15.7657 21.2188 18.7478 18.2337 22.4257 18.2337C23.8005 18.2337 25.0771 18.6506 26.1378 19.3648L26.3947 19.538L26.5822 19.2912C28.2427 17.1055 30.8664 15.6953 33.8194 15.6953C38.8379 15.6953 42.9069 19.7685 42.9069 24.794C42.9069 25.6648 42.7846 26.5064 42.5569 27.3031L42.4701 27.6067L42.7701 27.7052C45.3715 28.5584 47.2501 31.0087 47.2501 33.8981C47.2501 37.4972 44.336 40.4141 40.7421 40.4141H40.7198H40.6973H40.6742H40.6511H40.6275H40.6034H40.5793H40.5549H40.5301H40.5049H40.4795H40.4536H40.4276H40.4012H40.3745H40.3475H40.3203H40.2926H40.2646H40.2366H40.2081H40.1793H40.1502H40.1207H40.0911H40.0611H40.0307H40.0004H39.9695H39.9382H39.9068H39.8752H39.8433H39.8109H39.7785H39.7455H39.7123H39.6792H39.6455H39.6115H39.5773H39.5428H39.5081H39.4731H39.4378H39.4023H39.3662H39.3302H39.2939H39.2574H39.2205H39.1832H39.1459H39.1083H39.0704H39.0323H38.9937H38.9551H38.9162H38.877H38.8376H38.7979H38.758H38.7178H38.6776H38.6369H38.596H38.555H38.5135H38.4721H38.4301H38.3881H38.3458H38.3033H38.2605H38.2175H38.1744H38.1309H38.0873H38.0435H37.9992H37.9551H37.9105H37.8656H37.8205H37.7754H37.7301H37.6844H37.6385H37.5924H37.5462H37.4998H37.4532H37.4062H37.3591H37.3119H37.2644H37.2167H37.1688H37.1205H37.0723H37.0238H36.9751H36.9263H36.8771H36.8278H36.7786H36.7288H36.679H36.629H36.5789H36.5284H36.4778H36.427H36.3762H36.3251H36.2738H36.2222H36.1706H36.119H36.0669H36.0148H35.9624H35.9101H35.8572H35.8045H35.7514H35.6982H35.6451H35.5914H35.538H35.4841H35.4302H35.376H35.3218H35.2674H35.2129H35.1582H35.1032H35.0483H34.9931H34.9378H34.8824H34.8269H34.7711H34.7151H34.6591H34.6031H34.5466H34.4903H34.4338H34.3771H34.3203H34.2632H34.2062H34.1489H34.0916H34.0343H33.9765H33.9189H33.8611H33.8031H33.745H33.6869H33.6286H33.5702H33.5116H33.4531H33.3942H33.3353H33.2765H33.2174H33.158H33.0989H33.0395H32.9799H32.9203H32.8606H32.8008H32.7409H32.681H32.6208H32.5607H32.5005H32.4401H32.3797H32.3191H32.2584H32.1977H32.1371H32.0761H32.0152H31.954H31.8928H31.8316H31.7705H31.709H31.6476H31.5861H31.5244H31.463H31.4013H31.3393H31.2776H31.2156H31.1537H31.0915H31.0295H30.9673H30.9051H30.8428H30.7803H30.7181H30.6556H30.5932H30.5304H30.4679H30.4052H30.3425H30.2797H30.217H30.154H30.0912H30.0282H29.9652H29.9022H29.8392H29.7762H29.713H29.65H29.5867H29.5235H29.4602H29.3969H29.3337H29.2702H29.2069H29.1436H29.0801H29.0166H28.9534H28.8898H28.8263H28.7628H28.6993H28.6358H28.5722H28.5087H28.4452H28.3814H28.3179H28.2544H28.1909H28.1271H28.0636H28.0001H27.9363H27.8728H27.8092H27.7455H27.6819H27.6184H27.5549H27.4914H27.4279H27.3641H27.3006H27.2371H27.1735H27.1103H27.0468H26.9832H26.92H26.8565H26.7929H26.7297H26.6664H26.6032H26.5399H26.4764H26.4134H26.3501H26.2869H26.2239H26.1609H26.0976H26.0346H25.9716H25.9088H25.8459H25.7831H25.7202H25.6575H25.5948H25.5321H25.4695H25.4069H25.3444H25.282H25.2196H25.1572H25.0949H25.0327H24.9705H24.9084H24.8464H24.7844H24.7224H24.6606H24.5988H24.5371H24.4754H24.4138H24.3524H24.2909H24.2296H24.1683H24.1071H24.046H23.9849H23.924H23.8631H23.8022H23.7415H23.6809H23.6204H23.5599H23.4995H23.4393H23.3791H23.319H23.259H23.1991H23.1393H23.0796H23.02H22.9605H22.9011H22.8419H22.7826H22.7236H22.6646H22.6057H22.547H22.4884H22.4298H22.3714H22.3131H22.2549H22.1968H22.1389H22.0811H22.0233H21.9658H21.9083H21.851H21.7938H21.7367H21.6798H21.6229H21.5662H21.5097H21.4532H21.397H21.3408H21.2848H21.229H21.1732H21.1176H21.0622H21.0069H20.9517H20.8967H20.8418H20.7871H20.7326H20.6782H20.6239H20.5698H20.5158H20.4621H20.4084H20.3549H20.3016H20.2485H20.1955H20.1427H20.0901H20.0376H19.9852H19.9331H19.8811H19.8293H19.7777H19.7262H19.6749H19.6238H19.5729H19.5221H19.4716H19.4212H19.371H19.321H19.2712H19.2215H19.1721H19.1228H19.0737H19.0248H18.9761H18.9277H18.8794H18.8312H18.7833H18.7357H18.6881H18.6409H18.5938H18.5469H18.5002H18.4537H18.4075H18.3614H18.3156H18.2699H18.2246H18.1793H18.1343H18.0896H18.045H18.0007H17.9566H17.9127H17.869H17.8256H17.7824H17.7394H17.6966H17.6542H17.6119H17.5698H17.528H17.4864H17.445H17.4039H17.3631H17.3224H17.2821H17.2419H17.202H17.1623H17.1229H17.0838H17.0449H17.0062H16.9678H16.9297H16.8917H16.8541H16.8167H16.7795H16.7427H16.7061H16.6697H16.6336H16.5978H16.5623H16.527H16.4919H16.4572H16.4227H16.3885H16.3546H16.3209H16.2875H16.2544H16.2216H16.1891H16.1568H16.1248H16.0931H16.0617H16.0305H15.9997H15.9692H15.9389H15.9089H15.8792H15.8498H15.8208H15.792H15.7634H15.7353H15.7074H15.6798H15.6525H15.6255H15.5988H15.5724H15.5463H15.5206H15.4951H15.47H15.4452H15.4206H15.3964H15.3725H15.349H15.3257H15.3028H15.2802H15.2579C11.6641 40.4141 8.75 37.4972 8.75 33.8981C8.75 30.2991 11.6641 27.3822 15.2579 27.3822H15.2582H15.2586H15.2589H15.2592H15.2596H15.2599H15.2602H15.2606H15.2609H15.2612H15.2616H15.2619H15.2622H15.2626H15.2629H15.2632H15.2636H15.2639H15.2642H15.2646H15.2649H15.2652H15.2656H15.2659H15.2662H15.2666H15.2669H15.2672H15.2676H15.2679H15.2682H15.2686H15.2689H15.2692H15.2696H15.2699H15.2702H15.2706H15.2709H15.2713H15.2716H15.2719H15.2722H15.2726H15.2729H15.2733H15.2736H15.2739H15.2743H15.2746H15.2749H15.2752H15.2756H15.2759H15.2763H15.2766H15.2769H15.2773H15.2776H15.278H15.2783H15.2786H15.279H15.2793H15.2796H15.28H15.2803H15.2807H15.281H15.2813H15.2816H15.282H15.2823H15.2827H15.283H15.2833H15.2837H15.2841H15.2844H15.2847H15.285H15.2854H15.2857H15.2861H15.2864H15.2867H15.2871H15.2874H15.2878H15.2881H15.2884H15.2888H15.2891H15.2895H15.2898H15.2901H15.2904H15.2908H15.2912H15.2915H15.2918H15.2921H15.2925H15.2928H15.2932H15.2935H15.2938H15.2942H15.2946H15.2949H15.2952H15.2956H15.2959H15.2962H15.2966H15.2969H15.2973H15.2976H15.2979H15.2983H15.2987H15.299H15.2993H15.2996H15.3H15.3003H15.3007H15.301H15.3014H15.3017H15.3021H15.3024H15.3028H15.3031H15.3034H15.3037H15.3041H15.3044H15.3048H15.3052H15.3055H15.3058H15.3061H15.3065H15.3068H15.3072H15.3075H15.3079H15.3082H15.3086H15.3089H15.3093H15.3096H15.3099H15.3103H15.3106H15.3109H15.3113H15.3117H15.312H15.3123H15.3127H15.313H15.3134H15.3137H15.3141H15.3144H15.3148H15.3151H15.3154H15.3158H15.3162H15.3165H15.3168H15.3172H15.3175H15.3178H15.3182H15.3186H15.3189H15.3193H15.3196H15.3199H15.3203H15.3206H15.321H15.3213H15.3217H15.322H15.3224H15.3227H15.3231H15.3234H15.3238H15.3241H15.3245H15.3248H15.3251H15.3255H15.3258H15.3262H15.3266H15.3269H15.3272H15.3276H15.3279H15.3283H15.3286H15.3289H15.3293H15.3297H15.33H15.3304H15.3307H15.331H15.3314H15.3317H15.3321H15.3324H15.3328H15.3332H15.3335H15.3339H15.3342H15.3345H15.3349H15.3352H15.3356H15.3359H15.3363H15.3367H15.337H15.3373H15.3377H15.338H15.3384H15.3387H15.3391H15.3394H15.3398H15.3402H15.3405H15.3408H15.3412H15.3415H15.3419H15.3422H15.3426H15.3429H15.3433H15.3437H15.344H15.3444H15.3447H15.345H15.3454H15.3457H15.3461H15.3464H15.3468H15.3472H15.3475H15.3479H15.3482H15.3486H15.3489H15.3493H15.3496H15.3499H15.3503H15.3507H15.3511H15.3514H15.3518H15.3521H15.3525H15.3528H15.3531H15.3535H15.3538H15.3542H15.3546H15.3549H15.3553H15.3556H15.356H15.3563H15.3567H15.3571H15.3574H15.3577H15.3581H15.3584H15.3588H15.3591H15.3595H15.3598H15.3602H15.3606H15.3609H15.3613H15.3617H15.362H15.3624H15.3627H15.3631H15.3634H15.3638H15.3641H15.3645H15.3648H15.3652H15.3655H15.3659H15.3662H15.3666H15.3669H15.3673H15.3677H15.3681H15.3684H15.3688H15.3691H15.3695H15.3698H15.3702H15.3705H15.3709H15.3712H15.3716H15.3719H15.3723H15.3726H15.373H15.3733H15.3737H15.3741H15.3744H15.3748H15.3752H15.3756H15.3759H15.3763H15.3766H15.377H15.3773H15.3777H15.378H15.3784H15.3787H15.3791H15.3795H15.3798H15.3802H15.3805H15.3809H15.3812H15.3816H15.3819H15.3823H15.3827H15.383H15.3834H15.3837H15.3841H15.3844H15.3848H15.3852H15.3856H15.3859H15.3863H15.3866H15.387H15.3873H15.3877H15.3881H15.3884H15.3888H15.3892H15.3895H15.3899H15.3903H15.3906H15.391H15.3913H15.3917H15.3921H15.3924H15.3928H15.3931H15.3935H15.3939H15.3942H15.3946H15.3949H15.3953H15.3957H15.396H15.3964H15.3967H15.3971H15.3975H15.3978H15.3982H15.3985H15.3989H15.3993H15.3996H15.4H15.4003H15.4007H15.4011H15.4014H15.4018H15.4022H15.4025H15.4029H15.4032H15.4036H15.404H15.4043H15.4047H15.4051H15.4054H15.4058H15.4062H15.4065H15.4069H15.4072H15.4076H15.408H15.4083H15.4087H15.4091H15.4094H15.4098H15.4102H15.4105H15.4109H15.4113H15.4116H15.412H15.4123H15.4127H15.4131H15.4134H15.4138H15.4142H15.4145H15.4149H15.4152H15.4156H15.4159H15.4163H15.4167H15.4171H15.4174H15.4178H15.4181H15.4185H15.4189H15.4192H15.4196H15.42H15.4203H15.4207H15.4211H15.4214H15.4218H15.4222H15.4225H15.4229H15.4233H15.4237H15.424H15.4244H15.4248H15.4251H15.4255H15.4258H15.4262H15.4266H15.4269H15.4273H15.4277H15.4281H15.4284H15.4288H15.4291H15.4295H15.4299H15.4302H15.4306H15.431H15.4313H15.4317H15.4321H15.4325H15.4328H15.4332H15.4336H15.4339H15.4343H15.4347H15.4351H15.4354H15.4358H15.4361H15.4365H15.4368H15.4372H15.4376Z" fill="#FFFAE7" stroke="white" stroke-width="2.53763"/>
</g>
</g>
<path d="M71.2485 12.4445C72.2715 12.4445 73.1566 12.6795 73.9033 13.1496C74.6637 13.6059 75.2515 14.2351 75.6663 15.0371C76.0811 15.8252 76.2885 16.7171 76.2885 17.7126C76.2885 18.7082 76.0811 19.6069 75.6663 20.4089C75.2515 21.2109 74.6637 21.8469 73.9033 22.3171C73.1566 22.7872 72.2715 23.0222 71.2485 23.0222C70.2252 23.0222 69.3333 22.7872 68.5729 22.3171C67.8263 21.8469 67.2455 21.2109 66.8307 20.4089C66.4159 19.6069 66.2085 18.7082 66.2085 17.7126C66.2085 16.7171 66.4159 15.8252 66.8307 15.0371C67.2455 14.2351 67.8263 13.6059 68.5729 13.1496C69.3333 12.6795 70.2252 12.4445 71.2485 12.4445ZM71.2485 14.7259C70.3634 14.7259 69.6515 15.0025 69.1122 15.5556C68.5867 16.0948 68.3241 16.8138 68.3241 17.7126C68.3241 18.6252 68.5867 19.358 69.1122 19.9111C69.6515 20.4642 70.3634 20.7408 71.2485 20.7408C72.1334 20.7408 72.8385 20.4642 73.3641 19.9111C73.9033 19.358 74.1729 18.6252 74.1729 17.7126C74.1729 16.8138 73.9033 16.0948 73.3641 15.5556C72.8385 15.0025 72.1334 14.7259 71.2485 14.7259Z" fill="#191C22"/>
<path d="M83.4596 12.9008C84.3584 12.9008 85.1328 13.1012 85.7825 13.5022C86.4462 13.8894 86.958 14.4494 87.3174 15.1822C87.6907 15.9151 87.8774 16.7862 87.8774 17.7956C87.8774 18.8049 87.677 19.7037 87.2759 20.4919C86.8888 21.28 86.3218 21.9022 85.5751 22.3585C84.8285 22.801 83.9229 23.0222 82.8581 23.0222C81.8073 23.0222 80.9017 22.7803 80.1411 22.2963C79.3807 21.8124 78.7999 21.0933 78.3988 20.1393C77.998 19.1714 77.7974 17.9684 77.7974 16.5304C77.7974 15.0094 77.9425 13.7096 78.2329 12.6311C78.5233 11.5388 79.0143 10.6746 79.7055 10.0385C80.397 9.38865 81.344 8.98076 82.547 8.81483L86.944 8.21335V10.4119L82.8788 11.0341C82.1737 11.1447 81.6137 11.3521 81.1988 11.6563C80.784 11.9467 80.4799 12.3477 80.2862 12.8593C80.1066 13.3709 79.9821 14 79.9129 14.7467C80.3002 14.1245 80.798 13.6612 81.4062 13.3571C82.0147 13.0529 82.6992 12.9008 83.4596 12.9008ZM82.9825 14.9956C82.3466 14.9956 81.7658 15.0924 81.2403 15.2859C80.7288 15.4657 80.314 15.7561 79.9959 16.1571V17.3185C79.9959 18.4247 80.2448 19.282 80.7425 19.8904C81.2543 20.4849 81.9595 20.7822 82.8581 20.7822C83.757 20.7822 84.4621 20.5264 84.9737 20.0148C85.4992 19.4894 85.7618 18.7496 85.7618 17.7956C85.7618 16.8415 85.5129 16.1363 85.0151 15.68C84.5174 15.2237 83.8399 14.9956 82.9825 14.9956Z" fill="#191C22"/>
<path d="M88.6606 20.5748C88.7436 20.5886 88.8403 20.6025 88.951 20.6163C89.0755 20.6301 89.2069 20.637 89.3451 20.637C89.7876 20.637 90.1125 20.3951 90.3199 19.9111C90.5273 19.4133 90.6862 18.6529 90.7969 17.6296C90.8662 16.9797 90.9214 16.24 90.9629 15.4104C91.0181 14.5807 91.0596 13.6612 91.0873 12.6519H97.7243V22.8148H95.6295V14.8296H92.8503C92.8365 15.3412 92.8088 15.8805 92.7673 16.4474C92.7396 17.0005 92.7051 17.519 92.6636 18.003C92.5669 19.1921 92.4147 20.1531 92.2073 20.8859C91.9999 21.6049 91.7095 22.1304 91.3362 22.4622C90.9629 22.7803 90.4651 22.9393 89.8429 22.9393C89.6217 22.9393 89.4073 22.9254 89.1999 22.8978C88.9925 22.8701 88.8128 22.8286 88.6606 22.7733V20.5748Z" fill="#191C22"/>
<path d="M107.55 22.8563C107.011 22.8563 106.576 22.718 106.244 22.4415C105.912 22.1511 105.712 21.7156 105.642 21.1348C105.338 21.7017 104.944 22.1373 104.46 22.4415C103.976 22.7457 103.389 22.8978 102.697 22.8978C101.799 22.8978 101.073 22.6558 100.519 22.1719C99.9801 21.6879 99.7104 20.9966 99.7104 20.0978C99.7104 19.5032 99.8212 19.0123 100.042 18.6252C100.277 18.238 100.616 17.9131 101.059 17.6504C101.501 17.3738 102.04 17.118 102.676 16.883L105.476 15.8459C105.421 15.362 105.221 15.0301 104.875 14.8504C104.529 14.6706 104.114 14.5808 103.63 14.5808C103.091 14.5808 102.649 14.6775 102.303 14.8711C101.957 15.0647 101.743 15.3689 101.66 15.7837H99.8349C99.9319 15.0371 100.16 14.4148 100.519 13.9171C100.879 13.4193 101.335 13.0529 101.888 12.8178C102.441 12.5689 103.05 12.4445 103.713 12.4445C104.875 12.4445 105.808 12.7556 106.513 13.3778C107.219 13.9862 107.564 14.9333 107.55 16.2193L107.488 19.8282C107.488 20.2015 107.544 20.4642 107.654 20.6163C107.779 20.7546 107.972 20.8237 108.235 20.8237H108.546V22.8148C108.394 22.8286 108.228 22.8356 108.048 22.8356C107.869 22.8494 107.703 22.8563 107.55 22.8563ZM101.764 19.6415C101.764 20.0286 101.909 20.319 102.199 20.5126C102.504 20.6924 102.898 20.7822 103.382 20.7822C103.838 20.7822 104.253 20.72 104.626 20.5956C104.999 20.4573 105.276 20.2845 105.456 20.0771L105.497 17.2771L103.651 17.9822C102.974 18.2449 102.49 18.4938 102.199 18.7289C101.909 18.9501 101.764 19.2543 101.764 19.6415Z" fill="#191C22"/>
<path d="M115.776 22.8148L112.209 17.8993V22.8148H110.093V12.6519H112.209V17.36L115.942 12.6519H118.307L114.387 17.36L118.348 22.8148H115.776Z" fill="#191C22"/>
<path d="M123.728 12.4445C124.751 12.4445 125.636 12.6795 126.383 13.1496C127.143 13.6059 127.731 14.2351 128.146 15.0371C128.561 15.8252 128.768 16.7171 128.768 17.7126C128.768 18.7082 128.561 19.6069 128.146 20.4089C127.731 21.2109 127.143 21.8469 126.383 22.3171C125.636 22.7872 124.751 23.0222 123.728 23.0222C122.705 23.0222 121.813 22.7872 121.052 22.3171C120.306 21.8469 119.725 21.2109 119.31 20.4089C118.895 19.6069 118.688 18.7082 118.688 17.7126C118.688 16.7171 118.895 15.8252 119.31 15.0371C119.725 14.2351 120.306 13.6059 121.052 13.1496C121.813 12.6795 122.705 12.4445 123.728 12.4445ZM123.728 14.7259C122.843 14.7259 122.131 15.0025 121.592 15.5556C121.066 16.0948 120.804 16.8138 120.804 17.7126C120.804 18.6252 121.066 19.358 121.592 19.9111C122.131 20.4642 122.843 20.7408 123.728 20.7408C124.613 20.7408 125.318 20.4642 125.844 19.9111C126.383 19.358 126.652 18.6252 126.652 17.7126C126.652 16.8138 126.383 16.0948 125.844 15.5556C125.318 15.0025 124.613 14.7259 123.728 14.7259Z" fill="#191C22"/>
<path d="M72.0157 34.6785C72.9143 34.6785 73.6887 34.8789 74.3387 35.28C75.0024 35.6671 75.5139 36.2271 75.8735 36.96C76.2469 37.6929 76.4335 38.564 76.4335 39.5733C76.4335 40.5826 76.2328 41.4815 75.832 42.2696C75.4447 43.0578 74.878 43.68 74.1313 44.1363C73.3846 44.5789 72.4788 44.8 71.4143 44.8C70.3632 44.8 69.4576 44.5581 68.6972 44.0741C67.9366 43.59 67.3558 42.8711 66.955 41.917C66.5539 40.9492 66.3535 39.7463 66.3535 38.3082C66.3535 36.7871 66.4987 35.4874 66.7891 34.4089C67.0794 33.3166 67.5702 32.4523 68.2617 31.8163C68.9529 31.1663 69.9002 30.7585 71.1031 30.5926L75.5002 29.9911V32.1896L71.435 32.8119C70.7298 32.9226 70.1698 33.13 69.755 33.4341C69.3402 33.7245 69.0358 34.1255 68.8424 34.637C68.6625 35.1486 68.538 35.7778 68.4691 36.5245C68.8561 35.9022 69.3539 35.4389 69.9624 35.1348C70.5706 34.8307 71.2551 34.6785 72.0157 34.6785ZM71.5387 36.7733C70.9025 36.7733 70.3217 36.87 69.7965 37.0637C69.2847 37.2434 68.8699 37.5338 68.552 37.9348V39.0963C68.552 40.2026 68.8009 41.0597 69.2987 41.6682C69.8102 42.2626 70.5154 42.56 71.4143 42.56C72.3128 42.56 73.018 42.3041 73.5298 41.7926C74.0551 41.2671 74.318 40.5274 74.318 39.5733C74.318 38.6193 74.0691 37.9141 73.5713 37.4578C73.0735 37.0015 72.3958 36.7733 71.5387 36.7733Z" fill="#191C22"/>
<path d="M80.4901 34.4296V41.1496L84.8871 34.4296H86.8989V44.5926H84.8041V37.7896L80.3864 44.5926H78.3745V34.4296H80.4901Z" fill="#191C22"/>
<path d="M88.4375 42.3526C88.5205 42.3663 88.6172 42.3803 88.7279 42.3941C88.8523 42.4078 88.9835 42.4148 89.1219 42.4148C89.5642 42.4148 89.8894 42.1729 90.0968 41.6889C90.3042 41.1911 90.4631 40.4307 90.5738 39.4074C90.6428 38.7574 90.6982 38.0178 90.7397 37.1881C90.7949 36.3585 90.8364 35.4389 90.8642 34.4296H97.5012V44.5926H95.4064V36.6074H92.6271C92.6131 37.1189 92.5856 37.6582 92.5442 38.2252C92.5164 38.7782 92.4819 39.2967 92.4405 39.7807C92.3435 40.97 92.1916 41.9308 91.9842 42.6637C91.7768 43.3826 91.4864 43.9081 91.1131 44.24C90.7397 44.5581 90.2419 44.717 89.6197 44.717C89.3983 44.717 89.1842 44.7033 88.9768 44.6756C88.7693 44.6478 88.5894 44.6063 88.4375 44.5511V42.3526Z" fill="#191C22"/>
<path d="M107.328 44.6341C106.789 44.6341 106.353 44.4959 106.021 44.2193C105.689 43.9289 105.489 43.4933 105.42 42.9126C105.116 43.4796 104.721 43.9152 104.237 44.2193C103.753 44.5234 103.166 44.6756 102.474 44.6756C101.576 44.6756 100.85 44.4337 100.297 43.9496C99.7574 43.4656 99.4878 42.7744 99.4878 41.8756C99.4878 41.2811 99.5985 40.79 99.8196 40.403C100.055 40.0159 100.393 39.6908 100.836 39.4282C101.278 39.1515 101.818 38.8959 102.454 38.6607L105.254 37.6237C105.198 37.1397 104.998 36.8078 104.652 36.6282C104.307 36.4485 103.892 36.3585 103.408 36.3585C102.869 36.3585 102.426 36.4552 102.08 36.6489C101.735 36.8426 101.52 37.1467 101.437 37.5615H99.6122C99.7089 36.8148 99.9371 36.1926 100.297 35.6948C100.656 35.197 101.113 34.8307 101.666 34.5956C102.219 34.3467 102.827 34.2222 103.491 34.2222C104.652 34.2222 105.586 34.5333 106.291 35.1556C106.996 35.764 107.342 36.7111 107.328 37.997L107.266 41.6059C107.266 41.9793 107.321 42.2419 107.431 42.3941C107.556 42.5323 107.75 42.6015 108.012 42.6015H108.323V44.5926C108.171 44.6063 108.005 44.6133 107.826 44.6133C107.646 44.6271 107.48 44.6341 107.328 44.6341ZM101.541 41.4193C101.541 41.8063 101.686 42.0967 101.977 42.2904C102.281 42.47 102.675 42.56 103.159 42.56C103.615 42.56 104.03 42.4978 104.403 42.3733C104.777 42.2352 105.053 42.0622 105.233 41.8548L105.274 39.0548L103.429 39.76C102.751 40.0226 102.267 40.2715 101.977 40.5067C101.686 40.7278 101.541 41.0322 101.541 41.4193Z" fill="#191C22"/>
<path d="M111.986 34.4296V41.1496L116.383 34.4296H118.395V44.5926H116.3V37.7896L111.882 44.5926H109.871V34.4296H111.986ZM112.919 31.1319C113.044 31.4637 113.217 31.7126 113.438 31.8785C113.659 32.0445 113.957 32.1274 114.33 32.1274C114.703 32.1274 115 32.0445 115.222 31.8785C115.443 31.7126 115.616 31.4637 115.74 31.1319H117.171C117.116 31.9063 116.853 32.5422 116.383 33.04C115.927 33.5241 115.242 33.7659 114.33 33.7659C113.403 33.7659 112.712 33.5241 112.256 33.04C111.799 32.5422 111.544 31.9063 111.488 31.1319H112.919Z" fill="#191C22"/>
<path d="M127.234 44.5926V40.4444H123.065V44.5926H120.95V34.4296H123.065V38.2667H127.234V34.4296H129.35V44.5926H127.234Z" fill="#191C22"/>
<defs>
<linearGradient id="paint0_linear_964_193" x1="-4.11164e-07" y1="54.4141" x2="45.6354" y2="62.0381" gradientUnits="userSpaceOnUse">
<stop offset="0.1" stop-color="#FFC700"/>
<stop offset="0.9003" stop-color="#FFD90E"/>
</linearGradient>
<radialGradient id="paint1_radial_964_193" cx="0" cy="0" r="1" gradientUnits="userSpaceOnUse" gradientTransform="translate(0.73828 56.3007) rotate(-45.5336) scale(78.89)">
<stop offset="0.238839" stop-color="#FF8979"/>
<stop offset="0.854176" stop-color="#FF9F68" stop-opacity="0"/>
</radialGradient>
<linearGradient id="paint2_linear_964_193" x1="-5.86933e-07" y1="56" x2="43.6044" y2="16.6116" gradientUnits="userSpaceOnUse">
<stop stop-opacity="0.6"/>
<stop offset="0.42113"/>
</linearGradient>
<radialGradient id="paint3_radial_964_193" cx="0" cy="0" r="1" gradientUnits="userSpaceOnUse" gradientTransform="translate(19.2474 36.7311) scale(31.2711)">
<stop offset="0.5" stop-color="white" stop-opacity="0"/>
<stop offset="1" stop-color="white" stop-opacity="0.35"/>
</radialGradient>
<radialGradient id="paint4_radial_964_193" cx="0" cy="0" r="1" gradientUnits="userSpaceOnUse" gradientTransform="translate(19.2474 36.7311) scale(31.2711)">
<stop offset="0.5" stop-color="white" stop-opacity="0"/>
<stop offset="1" stop-color="white" stop-opacity="0.35"/>
</radialGradient>
<clipPath id="clip0_964_193">
<rect width="56" height="56" rx="8" fill="white"/>
</clipPath>
</defs>
</svg>
