<svg width="31" height="29" viewBox="0 0 31 29" fill="none" xmlns="http://www.w3.org/2000/svg">
<path fill-rule="evenodd" clip-rule="evenodd" d="M27.4583 22.0206L17.2083 24.3234V6.97872L27.4583 4.6776V22.0206ZM3.54167 4.6776L13.7917 6.97872V24.3234L3.54167 22.0206V4.6776ZM30.2344 1.20627C29.8278 0.883393 29.2982 0.760393 28.7908 0.874851L15.5 3.86102L2.20917 0.874851C1.70008 0.758684 1.17221 0.883393 0.765625 1.20627C0.36075 1.53256 0.125 2.02285 0.125 2.54218V23.3873C0.125 24.1868 0.6785 24.8786 1.4575 25.0529L15.1242 28.1245C15.2506 28.1535 15.3753 28.1672 15.5 28.1672C15.6247 28.1672 15.7494 28.1535 15.8758 28.1245L29.5425 25.0529C30.3215 24.8786 30.875 24.1868 30.875 23.3873V2.54218C30.875 2.02285 30.6393 1.53256 30.2344 1.20627V1.20627Z" fill="#181818"/>
</svg>
