<svg width="33" height="33" viewBox="0 0 33 33" fill="none" xmlns="http://www.w3.org/2000/svg">
<path d="M9.26654 30.9665H23.7332M16.4999 30.9665V20.6332M16.4999 20.6332C21.0654 20.6332 24.7665 16.9321 24.7665 12.3665V4.09987C24.7665 2.95848 23.8413 2.0332 22.6999 2.0332H10.2999C9.15848 2.0332 8.2332 2.95848 8.2332 4.09987V12.3665C8.2332 16.9321 11.9343 20.6332 16.4999 20.6332ZM8.2332 6.16654H6.16654C3.88376 6.16654 2.0332 8.01709 2.0332 10.2999C2.0332 12.5826 3.88376 14.4332 6.16654 14.4332H8.2332M24.7665 6.16654H26.8332C29.116 6.16654 30.9665 8.01709 30.9665 10.2999C30.9665 12.5826 29.116 14.4332 26.8332 14.4332H24.7665" stroke="white" stroke-width="3"/>
</svg>
