<svg width="12" height="16" viewBox="0 0 12 16" fill="none" xmlns="http://www.w3.org/2000/svg">
<path fill-rule="evenodd" clip-rule="evenodd" d="M6 7.24962C5.37975 7.24962 4.875 6.74487 4.875 6.12462C4.875 5.50437 5.37975 4.99963 6 4.99963C6.62025 4.99963 7.125 5.50437 7.125 6.12462C7.125 6.74487 6.62025 7.24962 6 7.24962ZM6 3.49963C4.5525 3.49963 3.375 4.67713 3.375 6.12463C3.375 7.57212 4.5525 8.74963 6 8.74963C7.4475 8.74963 8.625 7.57212 8.625 6.12463C8.625 4.67713 7.4475 3.49963 6 3.49963ZM6 13.7345C4.74375 12.5465 1.5 9.21125 1.5 6.4415C1.5 3.99275 3.51825 2 6 2C8.48175 2 10.5 3.99275 10.5 6.4415C10.5 9.21125 7.25625 12.5465 6 13.7345ZM6 0.5C2.69175 0.5 0 3.16475 0 6.4415C0 10.5477 5.28675 15.1257 5.51175 15.3185C5.65275 15.4392 5.826 15.5 6 15.5C6.174 15.5 6.34725 15.4392 6.48825 15.3185C6.71325 15.1257 12 10.5477 12 6.4415C12 3.16475 9.30825 0.5 6 0.5Z" fill="#E52322"/>
</svg>
