<svg width="56" height="55" viewBox="0 0 56 55" fill="none" xmlns="http://www.w3.org/2000/svg">
<g clip-path="url(#clip0_507:1269)">
<path fill-rule="evenodd" clip-rule="evenodd" d="M28.2433 0C12.6695 0 0 12.3362 0 27.5C0 42.6638 12.6695 55 28.2433 55C43.8156 55 56.4863 42.6638 56.4863 27.5C56.4863 12.3362 43.8156 0 28.2433 0Z" fill="white"/>
<path fill-rule="evenodd" clip-rule="evenodd" d="M42.4968 7.77551C40.3411 13.1587 35.4338 14.2788 28.3254 14.2788C27.5625 14.2788 26.8069 14.2671 26.0775 14.2566C25.3722 14.2473 24.7053 14.2368 24.0515 14.2368C23.4709 14.2368 22.8856 14.2438 22.3086 14.2683C23.3042 11.888 24.8936 10.2703 27.1559 9.28922C30.3096 7.92268 34.4095 7.90866 38.0272 7.89816C39.6034 7.89232 41.1126 7.88648 42.4968 7.77551Z" fill="#008F32"/>
<path fill-rule="evenodd" clip-rule="evenodd" d="M44.712 9.50251C41.5237 16.2651 34.4177 16.9425 28.3265 16.9425C26.9888 16.9425 25.7078 16.911 24.5214 16.904L22.9872 22.7462C30.8443 16.5092 41.2346 22.6924 40.1238 32.1041C39.3752 38.4427 34.7344 42.5879 29.8247 43.779C24.4759 45.0778 18.5501 43.1345 15.8932 37.827C15.6113 37.2665 15.1207 36.1429 14.9335 35.5426L20.5738 34.1315C20.6733 34.4481 20.8425 34.754 21.02 35.0332C24.7961 40.963 32.4479 37.9977 33.3117 31.8459C34.1908 25.5879 25.1728 22.2545 21.0632 29.5683L16.0611 27.4927L15.9747 27.4556L18.387 18.0264C18.5357 17.356 19.0371 15.4837 19.1235 15.1765C21.8501 5.4146 30.6704 5.26041 37.745 5.23472C34.8195 4.04923 31.6118 3.39282 28.2448 3.39282C14.5701 3.39282 3.48633 14.1849 3.48633 27.4998C3.48633 40.8148 14.5701 51.6068 28.2448 51.6068C41.9197 51.6068 53.0033 40.8148 53.0033 27.4998C53.0033 20.3425 49.7982 13.9175 44.712 9.50251Z" fill="#E52322"/>
</g>
<defs>
<clipPath id="clip0_507:1269">
<rect width="56" height="55" fill="white"/>
</clipPath>
</defs>
</svg>
