<svg width="20" height="20" viewBox="0 0 20 20" fill="none" xmlns="http://www.w3.org/2000/svg">
<circle cx="10" cy="10" r="9" stroke="#656565" stroke-width="2"/>
<path d="M5.66699 13.3333C5.66699 13.8856 6.11471 14.3333 6.66699 14.3333C7.21928 14.3333 7.66699 13.8856 7.66699 13.3333H5.66699ZM6.66699 6.66666L7.56142 6.21944C7.35401 5.80463 6.88861 5.58685 6.43724 5.69341C5.98587 5.79996 5.66699 6.20288 5.66699 6.66666H6.66699ZM10.0003 13.3333L9.1059 13.7805C9.27529 14.1193 9.62155 14.3333 10.0003 14.3333C10.3791 14.3333 10.7254 14.1193 10.8948 13.7805L10.0003 13.3333ZM13.3337 6.66666H14.3337C14.3337 6.20288 14.0148 5.79996 13.5634 5.69341C13.112 5.58685 12.6466 5.80463 12.4392 6.21944L13.3337 6.66666ZM12.3337 13.3333C12.3337 13.8856 12.7814 14.3333 13.3337 14.3333C13.8859 14.3333 14.3337 13.8856 14.3337 13.3333H12.3337ZM7.66699 13.3333V6.66666H5.66699V13.3333H7.66699ZM5.77257 7.11387L9.1059 13.7805L10.8948 12.8861L7.56142 6.21944L5.77257 7.11387ZM10.8948 13.7805L14.2281 7.11387L12.4392 6.21944L9.1059 12.8861L10.8948 13.7805ZM12.3337 6.66666V13.3333H14.3337V6.66666H12.3337Z" fill="#656565"/>
</svg>
