<svg width="14" height="14" viewBox="0 0 14 14" fill="none" xmlns="http://www.w3.org/2000/svg">
<circle cx="7" cy="7" r="6.25" stroke="#CCCCCC" stroke-width="1.5"/>
<path d="M3.91602 9.33335C3.91602 9.74757 4.2518 10.0834 4.66602 10.0834C5.08023 10.0834 5.41602 9.74757 5.41602 9.33335H3.91602ZM4.66602 4.66669L5.33684 4.33128C5.18128 4.02017 4.83223 3.85683 4.4937 3.93675C4.15517 4.01667 3.91602 4.31885 3.91602 4.66669H4.66602ZM6.99935 9.33335L6.32853 9.66876C6.45557 9.92285 6.71527 10.0834 6.99935 10.0834C7.28343 10.0834 7.54313 9.92285 7.67017 9.66876L6.99935 9.33335ZM9.33268 4.66669H10.0827C10.0827 4.31885 9.84352 4.01667 9.505 3.93675C9.16647 3.85683 8.81742 4.02017 8.66186 4.33128L9.33268 4.66669ZM8.58268 9.33335C8.58268 9.74757 8.91847 10.0834 9.33268 10.0834C9.7469 10.0834 10.0827 9.74757 10.0827 9.33335H8.58268ZM5.41602 9.33335V4.66669H3.91602V9.33335H5.41602ZM3.9952 5.0021L6.32853 9.66876L7.67017 8.99794L5.33684 4.33128L3.9952 5.0021ZM7.67017 9.66876L10.0035 5.0021L8.66186 4.33128L6.32853 8.99794L7.67017 9.66876ZM8.58268 4.66669V9.33335H10.0827V4.66669H8.58268Z" fill="#CCCCCC"/>
</svg>
