<svg width="10" height="16" viewBox="0 0 10 16" fill="none" xmlns="http://www.w3.org/2000/svg">
<path d="M4.8049 0C2.87188 0 1.3049 1.567 1.3049 3.49992C1.3049 5.4329 2.87188 7 4.8049 7C6.73792 7 8.3049 5.4329 8.3049 3.49992C8.3049 1.567 6.73792 0 4.8049 0ZM4.8049 4.94682C4.00586 4.94682 3.35808 4.299 3.35808 3.49997C3.35808 2.70095 4.00586 2.05318 4.8049 2.05318C5.60394 2.05318 6.25172 2.70095 6.25172 3.49997C6.25172 4.299 5.60394 4.94682 4.8049 4.94682Z" fill="white"/>
<path d="M6.18107 11.3153C7.83807 10.9777 8.83102 10.193 8.88356 10.1509C9.36842 9.76206 9.44631 9.05377 9.05746 8.56885C8.66867 8.08398 7.96044 8.00609 7.47545 8.39489C7.46521 8.40318 6.40615 9.21559 4.66363 9.21678C2.92117 9.21559 1.83973 8.40318 1.82948 8.39489C1.34449 8.00609 0.636267 8.08398 0.247474 8.56885C-0.141379 9.05377 -0.0634897 9.76206 0.421377 10.1509C0.474625 10.1936 1.50856 10.9987 3.21199 11.3284L0.83795 13.8094C0.40651 14.2569 0.419481 14.9693 0.866914 15.4007C1.0853 15.6113 1.36677 15.716 1.64799 15.716C1.94285 15.716 2.2374 15.6008 2.45822 15.3717L4.66369 13.0223L7.09193 15.3869C7.5319 15.8262 8.24433 15.8255 8.68347 15.3857C9.12261 14.9459 9.12208 14.2333 8.68223 13.7942L6.18107 11.3153Z" fill="white"/>
<path d="M4.66426 9.21652C4.65938 9.21652 4.66904 9.21663 4.66426 9.21673C4.65948 9.21663 4.66915 9.21652 4.66426 9.21652Z" fill="white"/>
</svg>
