<svg width="33" height="32" viewBox="0 0 33 32" fill="none" xmlns="http://www.w3.org/2000/svg">
<path fill-rule="evenodd" clip-rule="evenodd" d="M13.2841 1.99902L13.1064 2.87147L12.4265 6.06384C11.3394 6.46513 10.3536 7.03417 9.46287 7.70898L6.13967 6.63486L5.24689 6.36733L4.78395 7.13796L2.49613 10.8354L2.0332 11.6061L2.71108 12.1791L5.28202 14.2933C5.18902 14.8464 5.06916 15.3933 5.06916 15.9743C5.06916 16.5553 5.18902 17.1024 5.28202 17.6554L2.71108 19.7697L2.0332 20.3426L2.49613 21.1133L4.78395 24.8108L5.24689 25.5834L6.13967 25.3139L9.46287 24.2398C10.3536 24.9146 11.3394 25.4835 12.4265 25.8848L13.1064 29.0772L13.2841 29.9497H19.7136L19.8933 29.0772L20.5712 25.8848C21.6583 25.4835 22.6441 24.9146 23.5348 24.2398L26.858 25.3139L27.7508 25.5834L28.2158 24.8108L30.5016 21.1133L30.9665 20.3426L30.2866 19.7697L27.7157 17.6554C27.8107 17.1024 27.9285 16.5553 27.9285 15.9743C27.9285 15.3933 27.8107 14.8464 27.7157 14.2933L30.2866 12.1791L30.9665 11.6061L30.5016 10.8354L28.2158 7.13796L27.7508 6.36733L26.858 6.63486L23.5348 7.70898C22.6441 7.03417 21.6583 6.46513 20.5712 6.06384L19.8933 2.87147L19.7136 1.99902H13.2841Z" stroke="white" stroke-width="3" stroke-linecap="square" stroke-linejoin="round"/>
<path fill-rule="evenodd" clip-rule="evenodd" d="M20.6324 15.9743C20.6324 18.1784 18.7807 19.9673 16.4991 19.9673C14.2175 19.9673 12.3658 18.1784 12.3658 15.9743C12.3658 13.7702 14.2175 11.9814 16.4991 11.9814C18.7807 11.9814 20.6324 13.7702 20.6324 15.9743Z" stroke="white" stroke-width="3" stroke-linecap="square" stroke-linejoin="round"/>
</svg>
