<svg width="22" height="18" viewBox="0 0 22 18" fill="none" xmlns="http://www.w3.org/2000/svg">
<path fill-rule="evenodd" clip-rule="evenodd" d="M2.01942 0.803884C2.1129 0.33646 2.52332 0 3 0H19C19.4767 0 19.8871 0.33646 19.9806 0.803884L21.3139 7.47055C21.3727 7.76433 21.2966 8.06897 21.1067 8.30066C20.9167 8.53234 20.6329 8.66667 20.3333 8.66667H20V16H21C21.5523 16 22 16.4477 22 17C22 17.5523 21.5523 18 21 18H1C0.447715 18 0 17.5523 0 17C0 16.4477 0.447715 16 1 16H2V8.66667H1.66667C1.36707 8.66667 1.08326 8.53234 0.893325 8.30066C0.703386 8.06897 0.627331 7.76433 0.686086 7.47055L2.01942 0.803884ZM4 8.66667V16H18V8.66667H17.3333V11.6667C17.3333 12.219 16.8856 12.6667 16.3333 12.6667H5.66667C5.11438 12.6667 4.66667 12.219 4.66667 11.6667V8.66667H4ZM2.88647 6.66667L3.8198 2H18.1802L19.1135 6.66667H2.88647ZM6.66667 8.66667V10.6667H15.3333V8.66667H6.66667Z" fill="#656565"/>
</svg>
