<svg width="35" height="35" viewBox="0 0 35 35" fill="none" xmlns="http://www.w3.org/2000/svg">
<path fill-rule="evenodd" clip-rule="evenodd" d="M17.5003 7.24999C18.4433 7.24999 19.2087 6.48636 19.2087 5.54166V2.12499C19.2087 1.18028 18.4433 0.416656 17.5003 0.416656C16.5573 0.416656 15.792 1.18028 15.792 2.12499V5.54166C15.792 6.48636 16.5573 7.24999 17.5003 7.24999ZM17.5003 20.9167C15.616 20.9167 14.0837 19.3843 14.0837 17.5C14.0837 15.6157 15.616 14.0833 17.5003 14.0833C19.3846 14.0833 20.917 15.6157 20.917 17.5C20.917 19.3843 19.3846 20.9167 17.5003 20.9167ZM17.5003 10.6667C13.7317 10.6667 10.667 13.7314 10.667 17.5C10.667 21.2686 13.7317 24.3333 17.5003 24.3333C21.2689 24.3333 24.3337 21.2686 24.3337 17.5C24.3337 13.7314 21.2689 10.6667 17.5003 10.6667ZM29.4587 15.7917H32.8753C33.8183 15.7917 34.5837 16.5553 34.5837 17.5C34.5837 18.4447 33.8183 19.2083 32.8753 19.2083H29.4587C28.5157 19.2083 27.7503 18.4447 27.7503 17.5C27.7503 16.5553 28.5157 15.7917 29.4587 15.7917ZM7.25033 17.5C7.25033 16.5553 6.48499 15.7917 5.54199 15.7917H2.12533C1.18233 15.7917 0.416992 16.5553 0.416992 17.5C0.416992 18.4447 1.18233 19.2083 2.12533 19.2083H5.54199C6.48499 19.2083 7.25033 18.4447 7.25033 17.5ZM5.21177 5.63271C5.86777 4.95621 6.94915 4.93571 7.62735 5.59L10.0856 7.96459C10.7639 8.61888 10.7826 9.70196 10.1266 10.3802C9.79181 10.727 9.34594 10.9012 8.89835 10.9012C8.47127 10.9012 8.04419 10.744 7.71106 10.4229L5.25277 8.04829C4.57456 7.394 4.55577 6.31092 5.21177 5.63271ZM26.1021 10.9019C26.5292 10.9019 26.9563 10.743 27.2894 10.4236L29.7477 8.04898C30.4259 7.39298 30.4447 6.30989 29.7887 5.63339C29.1344 4.95689 28.0548 4.93639 27.3731 5.59069L24.9148 7.96356C24.2366 8.61956 24.2178 9.70264 24.8738 10.3791C25.2087 10.7259 25.6545 10.9019 26.1021 10.9019ZM15.792 29.4583C15.792 28.5136 16.5573 27.75 17.5003 27.75C18.4433 27.75 19.2087 28.5136 19.2087 29.4583V32.875C19.2087 33.8197 18.4433 34.5833 17.5003 34.5833C16.5573 34.5833 15.792 33.8197 15.792 32.875V29.4583ZM27.2891 24.5769C26.6109 23.9226 25.5295 23.9431 24.8735 24.6196C24.2175 25.2978 24.2363 26.3809 24.9145 27.0352L27.3728 29.4098C27.7059 29.731 28.133 29.8881 28.5601 29.8881C29.0077 29.8881 29.4535 29.7139 29.7884 29.3671C30.4444 28.6889 30.4256 27.6058 29.7474 26.9515L27.2891 24.5769ZM5.25328 26.9515L7.71158 24.5769C8.39149 23.9226 9.47287 23.9431 10.1272 24.6196C10.7832 25.2978 10.7644 26.3809 10.0862 27.0352L7.62787 29.4098C7.29474 29.731 6.86766 29.8881 6.44058 29.8881C5.99299 29.8881 5.54712 29.7139 5.21228 29.3671C4.55628 28.6889 4.57508 27.6058 5.25328 26.9515Z" fill="#181818"/>
</svg>
