<svg width="31" height="37" viewBox="0 0 31 37" fill="none" xmlns="http://www.w3.org/2000/svg">
<path fill-rule="evenodd" clip-rule="evenodd" d="M20.625 19.5H17.2083V16.0833C17.2083 15.1386 16.443 14.375 15.5 14.375C14.557 14.375 13.7917 15.1386 13.7917 16.0833V21.2083C13.7917 22.1531 14.557 22.9167 15.5 22.9167H20.625C21.568 22.9167 22.3333 22.1531 22.3333 21.2083C22.3333 20.2636 21.568 19.5 20.625 19.5M15.5 32.7396C9.14158 32.7396 3.96875 27.5668 3.96875 21.2083C3.96875 14.8499 9.14158 9.67709 15.5 9.67709C21.8584 9.67709 27.0313 14.8499 27.0313 21.2083C27.0313 27.5668 21.8584 32.7396 15.5 32.7396M17.1878 5.93243C17.1913 5.89655 17.2083 5.86922 17.2083 5.83334V4.12501H18.9167C19.8597 4.12501 20.625 3.36139 20.625 2.41668C20.625 1.47197 19.8597 0.708344 18.9167 0.708344H12.0833C11.1403 0.708344 10.375 1.47197 10.375 2.41668C10.375 3.36139 11.1403 4.12501 12.0833 4.12501H13.7917V5.83334C13.7917 5.86922 13.8088 5.89655 13.8122 5.93243C6.12638 6.77634 0.125 13.3022 0.125 21.2083C0.125 29.6868 7.02325 36.5833 15.5 36.5833C23.9768 36.5833 30.875 29.6868 30.875 21.2083C30.875 13.3022 24.8736 6.77634 17.1878 5.93243" fill="#181818"/>
</svg>
