<svg width="33" height="33" viewBox="0 0 33 33" fill="none" xmlns="http://www.w3.org/2000/svg">
<path d="M16.4999 16.4999H14.9999C14.9999 16.8977 15.1579 17.2792 15.4392 17.5605L16.4999 16.4999ZM16.4999 29.4665C9.33858 29.4665 3.5332 23.6612 3.5332 16.4999H0.533203C0.533203 25.318 7.68172 32.4665 16.4999 32.4665V29.4665ZM29.4665 16.4999C29.4665 23.6612 23.6612 29.4665 16.4999 29.4665V32.4665C25.318 32.4665 32.4665 25.318 32.4665 16.4999H29.4665ZM16.4999 3.5332C23.6612 3.5332 29.4665 9.33858 29.4665 16.4999H32.4665C32.4665 7.68172 25.318 0.533203 16.4999 0.533203V3.5332ZM16.4999 0.533203C7.68172 0.533203 0.533203 7.68172 0.533203 16.4999H3.5332C3.5332 9.33858 9.33858 3.5332 16.4999 3.5332V0.533203ZM14.9999 7.19987V16.4999H17.9999V7.19987H14.9999ZM15.4392 17.5605L21.6392 23.7605L23.7605 21.6392L17.5605 15.4392L15.4392 17.5605Z" fill="white"/>
</svg>
