<svg width="17" height="10" viewBox="0 0 17 10" fill="none" xmlns="http://www.w3.org/2000/svg">
<path d="M16.5102 8.39917C16.4912 8.35832 16.4735 8.32443 16.4571 8.29729C16.1855 7.80814 15.6665 7.20775 14.9004 6.49594L14.8842 6.47964L14.8761 6.47165L14.8679 6.46345H14.8597C14.512 6.132 14.2918 5.90913 14.1996 5.79503C14.0309 5.57768 13.9931 5.35767 14.0853 5.13475C14.1505 4.96633 14.3952 4.61063 14.8189 4.06719C15.0417 3.77919 15.2182 3.54836 15.3486 3.37445C16.2886 2.12468 16.6962 1.32606 16.5712 0.978279L16.5226 0.897007C16.49 0.848078 16.4058 0.803316 16.2701 0.762495C16.1341 0.721759 15.9603 0.715022 15.7483 0.74217L13.4011 0.758384C13.3631 0.74491 13.3088 0.746166 13.238 0.762495C13.1674 0.778823 13.132 0.787017 13.132 0.787017L13.0912 0.807427L13.0588 0.831949C13.0316 0.848163 13.0017 0.876681 12.9691 0.917446C12.9366 0.958068 12.9095 1.00574 12.8878 1.06006C12.6322 1.71752 12.3417 2.32879 12.0156 2.89384C11.8145 3.23078 11.6299 3.52278 11.4613 3.77002C11.2929 4.01718 11.1516 4.19928 11.0376 4.31601C10.9234 4.43285 10.8203 4.52645 10.7278 4.59716C10.6354 4.6679 10.5649 4.69779 10.516 4.68685C10.4671 4.67592 10.4209 4.66507 10.3773 4.65423C10.3013 4.6053 10.2401 4.53875 10.194 4.45454C10.1477 4.37033 10.1166 4.26434 10.1003 4.13665C10.084 4.00887 10.0745 3.89897 10.0717 3.80656C10.0692 3.71427 10.0703 3.58373 10.0758 3.4153C10.0815 3.24679 10.084 3.13278 10.084 3.073C10.084 2.86649 10.0881 2.64237 10.0961 2.40058C10.1044 2.15879 10.111 1.96722 10.1166 1.82608C10.1221 1.68481 10.1247 1.53534 10.1247 1.37776C10.1247 1.22018 10.1151 1.0966 10.0961 1.00691C10.0774 0.917331 10.0487 0.830379 10.0108 0.746081C9.97268 0.661868 9.9169 0.596725 9.84371 0.550479C9.77037 0.504291 9.67919 0.467637 9.57069 0.440403C9.28268 0.375232 8.91594 0.339976 8.4703 0.334496C7.45972 0.323648 6.81037 0.388905 6.5224 0.530182C6.40829 0.589873 6.30504 0.671431 6.21272 0.774598C6.11489 0.89418 6.10125 0.959438 6.17187 0.970172C6.49793 1.01901 6.72876 1.13586 6.86461 1.32058L6.91357 1.41847C6.95165 1.48909 6.98967 1.61413 7.02773 1.7934C7.06572 1.97267 7.09024 2.17098 7.10104 2.38822C7.12815 2.78494 7.12815 3.12453 7.10104 3.40702C7.07383 3.68964 7.04814 3.90964 7.02362 4.06722C6.9991 4.2248 6.96244 4.35249 6.91357 4.45026C6.86461 4.54806 6.83204 4.60784 6.81571 4.62953C6.79941 4.65123 6.78582 4.6649 6.77503 4.67027C6.70441 4.69733 6.63096 4.71112 6.55494 4.71112C6.4788 4.71112 6.38649 4.67304 6.27784 4.59693C6.16922 4.52083 6.05649 4.41629 5.93964 4.28315C5.8228 4.14998 5.69103 3.96388 5.54427 3.72483C5.39763 3.48578 5.24548 3.20326 5.0879 2.87726L4.95753 2.64083C4.87603 2.48874 4.76469 2.26727 4.62342 1.97664C4.48205 1.68589 4.35711 1.40465 4.24849 1.13297C4.20507 1.01887 4.13984 0.932005 4.05291 0.872228L4.01212 0.847706C3.985 0.826011 3.94147 0.802974 3.88175 0.778424C3.82194 0.753902 3.75954 0.736317 3.69428 0.725498L1.46111 0.741713C1.23291 0.741713 1.07807 0.793411 0.996542 0.896664L0.963914 0.945507C0.947614 0.972712 0.939392 1.01616 0.939392 1.07597C0.939392 1.13574 0.955692 1.20911 0.988321 1.29597C1.31432 2.06216 1.66884 2.80109 2.05188 3.51288C2.43492 4.22466 2.76777 4.79801 3.05024 5.23244C3.33277 5.66717 3.62075 6.07747 3.91418 6.46314C4.20761 6.84895 4.40184 7.09619 4.49687 7.20481C4.59202 7.31363 4.66675 7.39498 4.72108 7.44931L4.92487 7.64488C5.05527 7.77531 5.24676 7.93152 5.49943 8.1135C5.75215 8.2956 6.03194 8.47487 6.33893 8.65161C6.64597 8.82805 7.00318 8.97204 7.41074 9.0834C7.81824 9.19488 8.21487 9.23961 8.60067 9.21803H9.53797C9.72807 9.20161 9.87208 9.14184 9.96997 9.03867L10.0024 8.99782C10.0242 8.96539 10.0446 8.91501 10.0635 8.84721C10.0825 8.7793 10.092 8.70448 10.092 8.62309C10.0864 8.38949 10.1042 8.17896 10.1449 7.99152C10.1855 7.80414 10.2318 7.66287 10.2836 7.56772C10.3353 7.47266 10.3937 7.39244 10.4587 7.32742C10.5239 7.26224 10.5703 7.22276 10.5975 7.20918C10.6246 7.1955 10.6462 7.18622 10.6625 7.18066C10.7929 7.13721 10.9464 7.17929 11.1231 7.30709C11.2998 7.43478 11.4654 7.59244 11.6204 7.77982C11.7752 7.96737 11.9613 8.17779 12.1786 8.41139C12.396 8.64507 12.5862 8.81878 12.7491 8.93305L12.912 9.03085C13.0209 9.09611 13.1621 9.15588 13.336 9.21021C13.5096 9.2645 13.6617 9.27809 13.7923 9.25094L15.8787 9.2184C16.0851 9.2184 16.2457 9.18423 16.3596 9.11643C16.4737 9.04852 16.5415 8.9737 16.5634 8.89231C16.5852 8.81084 16.5863 8.71841 16.5675 8.61507C16.5482 8.51199 16.5291 8.43991 16.5102 8.39917Z" fill="white"/>
</svg>
