<svg width="12" height="12" viewBox="0 0 12 12" fill="none" xmlns="http://www.w3.org/2000/svg">
<g clip-path="url(#clip0_704_1061)">
<path d="M7.15714 7.15714C6.21429 8.13 6.14571 9.34286 6.06429 12C8.54143 12 10.2514 11.9914 11.1343 11.1343C11.9914 10.2514 12 8.46 12 6.06429C9.34286 6.15 8.13 6.21429 7.15714 7.15714ZM0 6.06429C0 8.46 0.00857142 10.2514 0.865714 11.1343C1.74857 11.9914 3.45857 12 5.93571 12C5.85 9.34286 5.78571 8.13 4.84286 7.15714C3.87 6.21429 2.65714 6.14571 0 6.06429ZM5.93571 0C3.46286 0 1.74857 0.00857142 0.865714 0.865714C0.00857142 1.74857 0 3.54 0 5.93571C2.65714 5.85 3.87 5.78571 4.84286 4.84286C5.78571 3.87 5.85429 2.65714 5.93571 0ZM7.15714 4.84286C6.21429 3.87 6.14571 2.65714 6.06429 0C8.54143 0 10.2514 0.00857142 11.1343 0.865714C11.9914 1.74857 12 3.54 12 5.93571C9.34286 5.85 8.13 5.78571 7.15714 4.84286Z" fill="white"/>
<path d="M12 6.06429V5.93571C9.34286 5.85 8.13 5.78571 7.15714 4.84286C6.21429 3.87 6.14571 2.65714 6.06429 0H5.93571C5.85 2.65714 5.78571 3.87 4.84286 4.84286C3.87 5.78571 2.65714 5.85429 0 5.93571V6.06429C2.65714 6.15 3.87 6.21429 4.84286 7.15714C5.78571 8.13 5.85429 9.34286 5.93571 12H6.06429C6.15 9.34286 6.21429 8.13 7.15714 7.15714C8.13 6.21429 9.34286 6.14571 12 6.06429Z" fill="#00923A"/>
</g>
<defs>
<clipPath id="clip0_704_1061">
<rect width="12" height="12" fill="white"/>
</clipPath>
</defs>
</svg>
