<svg width="18" height="16" viewBox="0 0 18 16" fill="none"
    xmlns="http://www.w3.org/2000/svg">
    <rect x="1" width="16" height="16" rx="3.75" fill="#005BFF"/>
    <mask id="mask0" mask-type="alpha" maskUnits="userSpaceOnUse" x="1" y="0" width="16" height="16">
        <rect x="1" width="16" height="16" rx="3.75" fill="#005BFF"/>
    </mask>
    <g mask="url(#mask0)">
        <path fill-rule="evenodd" clip-rule="evenodd" d="M3.99119 9.46019L3.46099 6.06202L7.5 2.4999L13 3.4999L14.5 6.06202L13.9955 7.91815L23.0584 16.9302L3.99119 16.9302L3.99119 9.46019Z" fill="#F91155"/>
    </g>
    <mask id="mask1" mask-type="alpha" maskUnits="userSpaceOnUse" x="1" y="0" width="16" height="16">
        <rect x="1" width="16" height="16" rx="3.75" fill="white"/>
    </mask>
    <g mask="url(#mask1)">
        <path fill-rule="evenodd" clip-rule="evenodd" d="M9.6515 12.9585C6.38564 13.3737 3.62634 10.6144 4.0415 7.34834C4.32442 5.12206 6.12207 3.32442 8.34835 3.0415C11.6144 2.62635 14.3735 5.38563 13.9585 8.65148C13.6754 10.8778 11.8778 12.6754 9.6515 12.9585ZM3.0343 8.63623C3.3122 11.4545 5.58278 13.734 8.38986 14.0131C12.1834 14.3903 15.3453 11.2159 14.9696 7.40745C14.6916 4.58916 12.421 2.30959 9.61391 2.03048C5.82048 1.65342 2.6585 4.8278 3.0343 8.63623Z" fill="white"/>
        <path fill-rule="evenodd" clip-rule="evenodd" d="M9.56414 8.71373C9.47149 8.99569 9.28218 9.14472 8.97203 9.14472C8.58535 9.14472 8.33562 8.88291 8.33562 8.50025V8.47609C8.33562 8.03704 8.57327 7.74301 9.01231 7.49328C9.56011 7.17104 9.70109 6.99784 9.70109 6.65144C9.70109 6.32518 9.43927 6.09559 9.07676 6.09559C8.75453 6.09559 8.53702 6.24462 8.41215 6.53866C8.29535 6.80048 8.06575 6.9334 7.7838 6.9334C7.40518 6.9334 7.1635 6.69978 7.16753 6.33727C7.16753 6.16407 7.20781 6.00698 7.2924 5.85392C7.56227 5.3464 8.23493 5 9.14926 5C10.3697 5 11.1713 5.63641 11.1713 6.61519C11.1713 7.20729 10.8933 7.61814 10.3012 7.96051C9.74942 8.27872 9.6447 8.42372 9.56414 8.71373ZM9.7534 10.2725C9.7534 10.6794 9.41103 10.9976 8.99212 10.9976C8.56919 10.9976 8.23085 10.6794 8.23085 10.2725C8.23085 9.86974 8.56919 9.55154 8.99212 9.55154C9.41103 9.55154 9.7534 9.86974 9.7534 10.2725Z" fill="white"/>
    </g>
</svg>
