<svg width="30" height="30" viewBox="0 0 30 30" fill="none" xmlns="http://www.w3.org/2000/svg">
  <path fill-rule="evenodd" clip-rule="evenodd" d="M0 5C0 2.23858 2.23858 0 5 0H25C27.7614 0 30 2.23858 30 5V25C30 27.7614 27.7614 30 25 30H5C2.23858 30 0 27.7614 0 25V11.5C0 10.9477 0.447715 10.5 1 10.5C1.55228 10.5 2 10.9477 2 11.5V25C2 26.6569 3.34315 28 5 28H25C26.6569 28 28 26.6569 28 25V5C28 3.34315 26.6569 2 25 2H5C3.34315 2 2 3.34315 2 5V7H22.7574L22.4645 6.70711C22.074 6.31658 22.074 5.68342 22.4645 5.29289C22.855 4.90237 23.4882 4.90237 23.8787 5.29289L26.7575 8.17163L23.8787 11.0504C23.4882 11.4409 22.855 11.4409 22.4645 11.0504C22.074 10.6598 22.074 10.0267 22.4645 9.63615L23.1007 9H0V5ZM4 16C4 13.7909 5.79086 12 8 12C10.2091 12 12 13.7909 12 16V22C12 24.2091 10.2091 26 8 26C5.79086 26 4 24.2091 4 22V16ZM8 14C6.89543 14 6 14.8954 6 16V22C6 23.1046 6.89543 24 8 24C9.10457 24 10 23.1046 10 22V16C10 14.8954 9.10457 14 8 14ZM15 12H19C21.2091 12 23 13.7909 23 16C23 18.2091 21.2091 20 19 20H17V21H19V23H17V26H15V23H14V21H15V20H14V18H15V12ZM17 18H19C20.1046 18 21 17.1046 21 16C21 14.8954 20.1046 14 19 14H17V18Z" fill="#005BFF"/>
</svg>
  