<svg width="30" height="30" viewBox="0 0 30 30" fill="none" xmlns="http://www.w3.org/2000/svg">
  <path fill-rule="evenodd" clip-rule="evenodd" d="M21.5 3.7417C18.6547 2.09893 15.2928 1.59448 12.0906 2.32978C8.88838 3.0651 6.08339 4.98563 4.2397 7.70514C2.39609 10.4247 1.6505 13.7413 2.15298 16.9882C2.65547 20.2351 4.36873 23.1713 6.94818 25.2062C9.52766 27.2412 12.782 28.224 16.0567 27.9569C19.3313 27.6899 22.3835 26.1928 24.5991 23.7668C26.8148 21.3407 28.0297 18.1658 27.9994 14.8804C27.9692 11.595 26.6961 8.44291 24.4361 6.05805C24.0563 5.65717 24.0733 5.02424 24.4742 4.64435C24.875 4.26447 25.508 4.28149 25.8879 4.68237C28.4955 7.43412 29.9645 11.0711 29.9993 14.862C30.0342 18.6528 28.6324 22.3162 26.0759 25.1155C23.5194 27.9147 19.9977 29.6422 16.2193 29.9503C12.4408 30.2584 8.68578 29.1245 5.70944 26.7764C2.73312 24.4284 0.756301 21.0404 0.176509 17.2941C-0.403286 13.5477 0.45704 9.72073 2.58426 6.58286C4.71159 3.44497 7.94813 1.22895 11.643 0.380513C15.3378 -0.46791 19.2169 0.114137 22.5 2.00966C22.9783 2.2858 23.1422 2.8974 22.866 3.37569C22.5899 3.85398 21.9783 4.01785 21.5 3.7417ZM15.627 5.82153L17.304 6.38048C18.9415 6.92632 19.7819 8.73815 19.1408 10.3408L18.4771 12H20.7144C22.6707 12 24.1036 13.8422 23.622 15.7384C23.622 15.7384 23.622 15.7384 23.622 15.7384L22.3522 20.7384C22.0144 22.0686 20.8169 23 19.4445 23H14.0001C12.3432 23 11.0001 21.6569 11.0001 20V17.3846C11.0001 16.8323 11.4478 16.3846 12.0001 16.3846C12.5524 16.3846 13.0001 16.8323 13.0001 17.3846V20C13.0001 20.5523 13.4478 21 14.0001 21H19.4445C19.902 21 20.3012 20.6895 20.4138 20.2461L21.6836 15.2461C21.8441 14.6141 21.3665 14 20.7144 14H15.5231L17.2838 9.59799C17.4975 9.06384 17.2174 8.45982 16.6716 8.27786C16.6716 8.27786 16.6716 8.27786 16.6716 8.27786L16.3732 8.1784L12.0763 14H8.00009V19C8.00009 19.5523 7.55237 20 7.00009 20C6.4478 20 6.00009 19.5523 6.00009 19V12H11.0667L15.627 5.82153Z" fill="#005BFF"/>
</svg>
  