<svg width="28" height="28" viewBox="0 0 28 28" fill="none" xmlns="http://www.w3.org/2000/svg">
  <path fill-rule="evenodd" clip-rule="evenodd" d="M4 22C4.55228 22 5 22.4477 5 23V26C5 26.5523 4.55228 27 4 27C3.44772 27 3 26.5523 3 26V23C3 22.4477 3.44772 22 4 22Z" fill="#005BFF"/>
  <path fill-rule="evenodd" clip-rule="evenodd" d="M20 14C20.5523 14 21 14.4477 21 15V26C21 26.5523 20.5523 27 20 27C19.4477 27 19 26.5523 19 26V15C19 14.4477 19.4477 14 20 14Z" fill="#005BFF"/>
  <path fill-rule="evenodd" clip-rule="evenodd" d="M16 18C16.5523 18 17 18.4477 17 19V26C17 26.5523 16.5523 27 16 27C15.4477 27 15 26.5523 15 26V19C15 18.4477 15.4477 18 16 18Z" fill="#005BFF"/>
  <path fill-rule="evenodd" clip-rule="evenodd" d="M24 9.00001C24.5523 9.00001 25 9.44772 25 10V26C25 26.5523 24.5523 27 24 27C23.4477 27 23 26.5523 23 26V10C23 9.44772 23.4477 9.00001 24 9.00001Z" fill="#005BFF"/>
  <path fill-rule="evenodd" clip-rule="evenodd" d="M12 13C12.5523 13 13 13.4477 13 14V26C13 26.5523 12.5523 27 12 27C11.4477 27 11 26.5523 11 26V14C11 13.4477 11.4477 13 12 13Z" fill="#005BFF"/>
  <path fill-rule="evenodd" clip-rule="evenodd" d="M8 19C8.55229 19 9 19.4477 9 20V26C9 26.5523 8.55229 27 8 27C7.44772 27 7 26.5523 7 26V20C7 19.4477 7.44772 19 8 19Z" fill="#005BFF"/>
  <path fill-rule="evenodd" clip-rule="evenodd" d="M26.6727 0.260067C27.0813 0.631574 27.1114 1.26402 26.7399 1.67268L16.7399 12.6727C16.5328 12.9005 16.2322 13.0202 15.9252 12.9972C15.6181 12.9742 15.3388 12.8109 15.1679 12.5547L11.8784 7.62038L2.73994 17.6727C2.36843 18.0813 1.73598 18.1115 1.32733 17.7399C0.918669 17.3684 0.888553 16.736 1.26006 16.3273L11.2601 5.32733C11.4672 5.09948 11.7678 4.97977 12.0748 5.00281C12.3819 5.02586 12.6612 5.18909 12.8321 5.44531L16.1216 10.3796L25.2601 0.327334C25.6316 -0.0813234 26.264 -0.11144 26.6727 0.260067Z" fill="#005BFF"/>
  <path fill-rule="evenodd" clip-rule="evenodd" d="M0 27C0 26.4477 0.447715 26 1 26H27C27.5523 26 28 26.4477 28 27C28 27.5523 27.5523 28 27 28H1C0.447715 28 0 27.5523 0 27Z" fill="#005BFF"/>
</svg>
  