<svg width="30" height="30" viewBox="0 0 30 30" fill="none" xmlns="http://www.w3.org/2000/svg">
  <path fill-rule="evenodd" clip-rule="evenodd" d="M15.2289 0C23.3868 0 30 6.7157 30 15C30 23.2843 23.3868 30 15.2289 30C14.5817 30 13.9463 29.9648 13.3248 29.8941C12.6763 29.8203 12.2094 29.2266 12.2821 28.568C12.3547 27.9094 12.9394 27.4353 13.588 27.5091C14.121 27.5697 14.6686 27.6 15.2289 27.6C22.0815 27.6 27.6366 21.9588 27.6366 15C27.6366 8.04118 22.0815 2.4 15.2289 2.4C8.37632 2.4 2.82123 8.04118 2.82123 15C2.82123 17.1671 3.3596 19.2521 4.37149 21.1039C4.49064 21.322 4.5358 21.5614 4.51539 21.7924C4.5257 21.9079 4.51954 22.0263 4.49526 22.1443L4.45922 22.2796L3.2785 25.8745L8.43419 25.8751C9.0402 25.8751 9.53967 26.3384 9.60793 26.9352L9.61588 27.0751C9.61588 27.6905 9.1597 28.1977 8.572 28.267L8.43419 28.2751H0L2.0995 21.879C1.02682 19.7719 0.457862 17.4266 0.457862 15C0.457862 6.7157 7.07107 0 15.2289 0ZM16.4028 9.46016C16.3345 8.86335 15.8351 8.4001 15.229 8.4001C14.5764 8.4001 14.0474 8.93736 14.0474 9.6001V17.4001L14.0553 17.5401C14.1236 18.1369 14.623 18.6001 15.229 18.6001C15.8817 18.6001 16.4107 18.0628 16.4107 17.4001V9.6001L16.4028 9.46016ZM15.229 22.2C15.8817 22.2 16.4107 21.6628 16.4107 21C16.4107 20.3373 15.8817 19.8 15.229 19.8C14.5764 19.8 14.0474 20.3373 14.0474 21C14.0474 21.6628 14.5764 22.2 15.229 22.2Z" fill="#005BFF"/>
</svg>
  