<svg width="30" height="30" viewBox="0 0 30 30" fill="none" xmlns="http://www.w3.org/2000/svg">
  <path d="M10.2582 25.8904C9.94971 25.8904 9.64125 25.7877 9.4356 25.4795C9.12714 25.0685 9.12714 24.3493 9.64125 24.0411L20.0263 15.8219C24.1391 12.4315 26.8125 7.60274 27.6351 2.36301C22.3912 3.08219 17.5585 5.75342 14.1654 9.86301L13.6513 10.4795L6.04248 20.2397C5.73401 20.6507 5.01426 20.7534 4.60297 20.4452C4.19168 20.137 4.08886 19.4178 4.39733 19.0068L12.6231 8.5274C16.6331 3.69863 22.494 0.616438 28.7661 0.10274L30 0L29.7944 1.33562C29.2802 7.60274 26.1956 13.4589 21.363 17.4658L20.746 17.9795L10.9779 25.6849C10.6695 25.7877 10.4638 25.8904 10.2582 25.8904Z" fill="#005BFF"/>
  <path d="M27.3266 8.11644C27.2238 8.11644 27.2238 8.11644 27.121 8.11644C24.5504 7.60274 22.494 5.54795 21.9799 2.97945C21.8771 2.46575 22.1855 1.84932 22.8025 1.74658C23.3166 1.64384 23.9335 1.95206 24.0363 2.56849C24.3448 4.31507 25.6815 5.65068 27.5323 6.06164C28.0464 6.16438 28.4577 6.67808 28.3548 7.29452C28.252 7.70548 27.8407 8.11644 27.3266 8.11644Z" fill="#005BFF"/>
  <path d="M21.4953 10.6311C22.0976 10.0292 22.0976 9.05348 21.4953 8.45165C20.893 7.84982 19.9165 7.84982 19.3142 8.45165C18.7119 9.05348 18.7119 10.0292 19.3142 10.6311C19.9165 11.2329 20.893 11.2329 21.4953 10.6311Z" fill="#005BFF"/>
  <path d="M10.2582 30C9.84689 30 9.53843 29.7945 9.33278 29.3836C9.12714 28.8699 9.33278 28.2534 9.84689 28.0479L17.4557 24.2466L16.4275 19.9315C16.3247 19.4178 16.6331 18.8014 17.2501 18.6986C17.7642 18.5959 18.3811 18.9041 18.4839 19.5205L19.8206 25.4795L10.7723 29.8973C10.5666 30 10.361 30 10.2582 30Z" fill="#005BFF"/>
  <path d="M1.0042 20.7534C0.901379 20.7534 0.695735 20.7534 0.592913 20.6507C0.0788034 20.4452 -0.12684 19.8288 0.0788035 19.3151L4.50015 10.274L10.4638 11.6096C10.9779 11.7123 11.3892 12.3288 11.2864 12.8425C11.1836 13.3562 10.5666 13.7671 10.0525 13.6644L5.63119 12.5342L1.82678 20.137C1.72396 20.5479 1.41549 20.7534 1.0042 20.7534Z" fill="#005BFF"/>
  <path d="M12.9316 23.3219C12.8287 23.3219 12.7259 23.3219 12.6231 23.3219L12.3146 23.2192C11.2864 22.911 10.2582 22.2945 9.53843 21.4726C9.12714 21.0616 9.12714 20.4452 9.53843 20.0342C9.94971 19.6233 10.5666 19.6233 10.9779 20.0342C11.492 20.5479 12.2118 21.0616 12.9316 21.2671L13.1372 21.3699C13.6513 21.5753 13.9598 22.089 13.7541 22.7055C13.7541 23.0137 13.3428 23.3219 12.9316 23.3219Z" fill="#005BFF"/>
</svg>
  