<svg width="30" height="30" viewBox="0 0 30 30" fill="none" xmlns="http://www.w3.org/2000/svg">
  <path fill-rule="evenodd" clip-rule="evenodd" d="M9.28571 0H27.0714C27.6632 0 28.1429 0.479695 28.1429 1.07143C28.1429 1.66316 27.6632 2.14286 27.0714 2.14286H11.4286V3.7013H28.1429V20.3571H28.9286C29.5203 20.3571 30 20.8368 30 21.4286C30 22.0203 29.5203 22.5 28.9286 22.5L5.57143 22.5V5.69805C5.57143 4.24915 4.39172 3.06818 2.92857 3.06818H1.07143C0.479695 3.06818 0 2.58849 0 1.99675C0 1.40502 0.479695 0.925325 1.07143 0.925325H2.92857C5.56811 0.925325 7.71429 3.05861 7.71429 5.69805V20.3571H9.28571V0ZM11.4286 20.3571L26 20.3571V5.84416H11.4286V20.3571ZM12.8571 13.3929C12.8571 10.1383 15.4955 7.5 18.75 7.5C22.0045 7.5 24.6429 10.1383 24.6429 13.3929C24.6429 16.6474 22.0045 19.2857 18.75 19.2857C15.4955 19.2857 12.8571 16.6474 12.8571 13.3929ZM18.75 9.64286C16.6789 9.64286 15 11.3218 15 13.3929C15 15.4639 16.6789 17.1429 18.75 17.1429C20.4488 17.1429 21.8837 16.0133 22.3447 14.4643H19.2857C18.694 14.4643 18.2143 13.9846 18.2143 13.3929C18.2143 12.8011 18.694 12.3214 19.2857 12.3214H22.3447C21.8837 10.7724 20.4488 9.64286 18.75 9.64286ZM8.57143 27.3214C8.57143 25.8421 9.77067 24.6429 11.25 24.6429C12.7293 24.6429 13.9286 25.8421 13.9286 27.3214C13.9286 28.8008 12.7293 30 11.25 30C9.77067 30 8.57143 28.8008 8.57143 27.3214ZM11.25 26.7857C10.9541 26.7857 10.7143 27.0256 10.7143 27.3214C10.7143 27.6173 10.9541 27.8571 11.25 27.8571C11.5459 27.8571 11.7857 27.6173 11.7857 27.3214C11.7857 27.0256 11.5459 26.7857 11.25 26.7857ZM21.4286 27.3214C21.4286 25.8421 22.6278 24.6429 24.1071 24.6429C25.5865 24.6429 26.7857 25.8421 26.7857 27.3214C26.7857 28.8008 25.5865 30 24.1071 30C22.6278 30 21.4286 28.8008 21.4286 27.3214ZM24.1071 26.7857C23.8113 26.7857 23.5714 27.0256 23.5714 27.3214C23.5714 27.6173 23.8113 27.8571 24.1071 27.8571C24.403 27.8571 24.6429 27.6173 24.6429 27.3214C24.6429 27.0256 24.403 26.7857 24.1071 26.7857Z" fill="#005BFF"/>
</svg>
  