<svg width="30" height="30" viewBox="0 0 30 30" fill="none" xmlns="http://www.w3.org/2000/svg">
  <path d="M14 22H5C4.4 22 4 21.6 4 21C4 20.4 4.4 20 5 20H14C14.6 20 15 20.4 15 21C15 21.6 14.6 22 14 22Z" fill="#005BFF"/>
  <path d="M14 26H5C4.4 26 4 25.6 4 25C4 24.4 4.4 24 5 24H14C14.6 24 15 24.4 15 25C15 25.6 14.6 26 14 26Z" fill="#005BFF"/>
  <path d="M25 14H18C17.4 14 17 13.6 17 13C17 12.4 17.4 12 18 12H25C25.6 12 26 12.4 26 13C26 13.6 25.6 14 25 14Z" fill="#005BFF"/>
  <path d="M25 10H18C17.4 10 17 9.6 17 9C17 8.4 17.4 8 18 8H25C25.6 8 26 8.4 26 9C26 9.6 25.6 10 25 10Z" fill="#005BFF"/>
  <path d="M25 18H18C17.4 18 17 17.6 17 17C17 16.4 17.4 16 18 16H25C25.6 16 26 16.4 26 17C26 17.6 25.6 18 25 18Z" fill="#005BFF"/>
  <path d="M27 30H3C1.3 30 0 28.7 0 27V9C0 8.4 0.4 8 1 8C1.6 8 2 8.4 2 9V27C2 27.6 2.4 28 3 28H27C27.6 28 28 27.6 28 27V3C28 2.4 27.6 2 27 2H3C2.4 2 2 2.4 2 3V4H25C25.6 4 26 4.4 26 5C26 5.6 25.6 6 25 6H0V3C0 1.3 1.3 0 3 0H27C28.7 0 30 1.3 30 3V27C30 28.7 28.7 30 27 30Z" fill="#005BFF"/>
  <path d="M15 18H9C8.4 18 8 17.6 8 17C8 16.4 8.4 16 9 16H13V10H6V17C6 17.6 5.6 18 5 18C4.4 18 4 17.6 4 17V8H15V18Z" fill="#005BFF"/>
  <path d="M26 26H17V20H26V26ZM19 24H24V22H19V24Z" fill="#005BFF"/>
</svg>
  