<svg width="30" height="28" viewBox="0 0 30 28" fill="none" xmlns="http://www.w3.org/2000/svg">
  <path fill-rule="evenodd" clip-rule="evenodd" d="M0 0H14.0667C14.619 0 15.0667 0.452746 15.0667 1.01124C15.0667 1.56973 14.619 2.02247 14.0667 2.02247H2V17.2921H4.19068C4.69494 15.7361 6.14269 14.6123 7.85 14.6123C9.9763 14.6123 11.7 16.3554 11.7 18.5056C11.7 20.6558 9.9763 22.3988 7.85 22.3988C5.99803 22.3988 4.45148 21.0765 4.08324 19.3146H0V0ZM16.8 1.92135H23.9053L30 10.2857V19.3146H26.6168C26.2485 21.0765 24.702 22.3988 22.85 22.3988C20.998 22.3988 19.4515 21.0765 19.0832 19.3146H14.0667C13.5144 19.3146 13.0667 18.8619 13.0667 18.3034C13.0667 17.7449 13.5144 17.2921 14.0667 17.2921H19.1907C19.6949 15.7361 21.1427 14.6123 22.85 14.6123C24.5573 14.6123 26.0051 15.7361 26.5093 17.2921H28V10.9503L22.8946 3.94382H18.8V14.4607C18.8 15.0192 18.3522 15.4719 17.8 15.4719C17.2477 15.4719 16.8 15.0192 16.8 14.4607V1.92135ZM20.9589 5.94753C21.411 5.62672 22.0347 5.73725 22.3519 6.1944L24.6852 9.55676C25.0025 10.0139 24.8932 10.6446 24.4411 10.9654C23.989 11.2862 23.3654 11.1757 23.0481 10.7185L20.7148 7.35616C20.3975 6.89901 20.5068 6.26834 20.9589 5.94753ZM7.85 16.6348C6.82827 16.6348 6 17.4724 6 18.5056C6 19.5388 6.82827 20.3764 7.85 20.3764C8.87173 20.3764 9.7 19.5388 9.7 18.5056C9.7 17.4724 8.87173 16.6348 7.85 16.6348ZM22.85 16.6348C21.8283 16.6348 21 17.4724 21 18.5056C21 19.5388 21.8283 20.3764 22.85 20.3764C23.8717 20.3764 24.7 19.5388 24.7 18.5056C24.7 17.4724 23.8717 16.6348 22.85 16.6348ZM0 26.9888C0 26.4303 0.447715 25.9775 1 25.9775H29C29.5523 25.9775 30 26.4303 30 26.9888C30 27.5473 29.5523 28 29 28H1C0.447715 28 0 27.5473 0 26.9888Z" fill="#005BFF"/>
</svg>
  