<svg width="31" height="31" viewBox="0 0 31 31" fill="none" xmlns="http://www.w3.org/2000/svg">
<path fill-rule="evenodd" clip-rule="evenodd" d="M15.136 2.73334C11.8539 2.88099 8.74926 4.26603 6.44678 6.60976C4.14424 8.95355 2.8146 12.0822 2.72521 15.3666C2.6359 18.6509 3.79338 21.8472 5.96499 24.3127C8.13661 26.7782 11.1613 28.3301 14.4305 28.656C17.6999 28.982 20.9714 28.0579 23.5871 26.0697C26.2028 24.0815 27.9687 21.1766 28.5295 17.9393C29.0904 14.702 28.4046 11.3724 26.6103 8.62019C24.8159 5.86795 22.0459 3.89724 18.8574 3.10439C18.3215 2.97111 17.995 2.42859 18.1283 1.89262C18.2616 1.35666 18.8041 1.03022 19.3401 1.16349C23.019 2.07832 26.2152 4.35222 28.2856 7.52788C30.3561 10.7035 31.1473 14.5454 30.5001 18.2808C29.853 22.0161 27.8155 25.3679 24.7974 27.6619C21.7793 29.956 18.0045 31.0222 14.2321 30.6461C10.4598 30.27 6.96986 28.4794 4.46416 25.6346C1.95844 22.7898 0.622897 19.1017 0.725951 15.3122C0.829095 11.5225 2.36329 7.91253 5.02007 5.20816C7.67677 2.50386 11.259 0.905731 15.0461 0.735364C15.5979 0.710544 16.0653 1.13769 16.0901 1.68941C16.1149 2.24114 15.6878 2.70852 15.136 2.73334Z" fill="#005BFF"/>
<path d="M15.2202 1.72009C15.7202 1.72009 15.3201 4.92009 11.7201 5.72009C8.12006 6.52009 10.5534 9.05343 12.2201 10.2201M12.2201 10.2201C13.22 10.3868 15.2199 10.9201 15.2199 11.7201C15.2199 12.0804 15.5579 12.1838 16.0056 12.1581C17.0168 12.1002 18.0811 12.3918 18.6028 13.26C19.6394 14.9854 20.917 16.8258 21.2199 16.2201C21.2604 16.1389 21.3014 16.0742 21.3423 16.024C21.872 15.3747 21.7711 17.0559 21.1957 17.6651C20.5334 18.3664 19.9592 19.1989 20.2199 19.7201C20.7199 20.7201 18.2199 25.7201 16.7199 25.2201C15.2199 24.7201 14.7199 21.7201 14.7199 21.2201C14.7199 20.7201 15.2199 19.2201 14.7199 19.2201C14.2199 19.2201 14.7199 17.7201 14.2199 17.2201C13.7199 16.7201 12.2199 17.2201 11.2199 17.2201C10.2199 17.2201 8.71985 16.2201 9.21985 14.7201C9.71985 13.2201 11.22 10.2201 12.2201 10.2201ZM12.2201 10.2201C12.3801 8.77961 13.8928 6.60135 18.6179 8.91052C19.0108 9.10255 19.3158 9.43599 19.5069 9.82937C20.4252 11.7197 22.0022 14.438 22.7201 13.7201C23.7201 12.7201 24.7201 11.2201 25.2201 11.7201C25.7201 12.2201 26.2201 12.7201 26.2201 13.2201C26.2201 13.6201 26.5535 13.7201 26.7201 13.7201M7.22015 5.72009C8.02906 6.529 8.68092 8.8769 5.05995 11.9406C4.83902 12.1276 4.63102 12.3526 4.60055 12.6404C4.56237 13.0012 4.67283 13.4464 5.22015 13.7201C6.02015 14.1201 4.5535 14.8868 3.72018 15.2201M8.22018 26.2201C7.72018 25.5534 6.92018 24.1201 7.72018 23.7201C8.04587 23.5572 8.27211 23.3889 8.42591 23.2352C8.70523 22.9562 8.84815 22.55 9.0163 22.1927C9.53703 21.0864 9.75703 19.399 7.72018 18.7201C7.52046 18.6535 7.33551 18.5911 7.16436 18.5326C6.39792 18.2707 3.94463 16.8579 3.22018 17.2201V17.2201C2.42018 17.6201 2.55351 17.3868 2.72018 17.2201" stroke="#005BFF" stroke-width="1.5" stroke-linecap="round"/>
</svg>
