<svg width="30" height="30" viewBox="0 0 30 30" fill="none" xmlns="http://www.w3.org/2000/svg">
<path d="M3.75 6.5625C3.23223 6.5625 2.8125 6.98223 2.8125 7.5V9.375C2.8125 9.89277 2.39277 10.3125 1.875 10.3125C1.35723 10.3125 0.9375 9.89277 0.9375 9.375V7.5C0.9375 5.9467 2.1967 4.6875 3.75 4.6875H26.25C27.8033 4.6875 29.0625 5.9467 29.0625 7.5V22.5C29.0625 24.0533 27.8033 25.3125 26.25 25.3125H3.75C2.1967 25.3125 0.9375 24.0533 0.9375 22.5V13.125C0.9375 12.6072 1.35723 12.1875 1.875 12.1875C2.39277 12.1875 2.8125 12.6072 2.8125 13.125V22.5C2.8125 23.0178 3.23223 23.4375 3.75 23.4375H26.25C26.7678 23.4375 27.1875 23.0178 27.1875 22.5V7.5C27.1875 6.98223 26.7678 6.5625 26.25 6.5625H3.75ZM4.94637 8.72818C5.3036 8.35339 5.89702 8.33915 6.27182 8.69637L13.0596 15.1659C14.146 16.2014 15.854 16.2014 16.9404 15.1659L23.7282 8.69637C24.103 8.33915 24.6964 8.35339 25.0536 8.72818C25.4109 9.10298 25.3966 9.6964 25.0218 10.0536L19.7311 15.0963L25.0085 19.9339C25.3902 20.2838 25.4159 20.8768 25.0661 21.2585C24.7162 21.6402 24.1232 21.6659 23.7415 21.3161L18.3708 16.3929L18.2341 16.5232C16.4234 18.249 13.5766 18.249 11.7659 16.5232L11.6292 16.3929L6.25849 21.3161C5.87682 21.6659 5.28379 21.6402 4.93392 21.2585C4.58405 20.8768 4.60983 20.2838 4.99151 19.9339L10.2689 15.0963L4.97818 10.0536C4.60339 9.6964 4.58915 9.10298 4.94637 8.72818Z" fill="#005BFF"/>
</svg>
