<svg width="218" height="46" viewBox="0 0 218 46" fill="none" xmlns="http://www.w3.org/2000/svg">
  <path fill-rule="evenodd" clip-rule="evenodd" d="M6.56563 21.9812C5.94833 26.8419 10.0512 30.9484 14.9073 30.3305C18.2176 29.9092 20.8905 27.2339 21.3115 23.9206C21.9285 19.0603 17.8259 14.9538 12.9696 15.5716C9.65927 15.9927 6.98632 18.668 6.56563 21.9812ZM0.0706212 24.3745C-0.802682 15.5513 6.54531 8.19706 15.3607 9.0706C21.8839 9.71725 27.1604 14.9984 27.8065 21.5277C28.6795 30.3509 21.3318 37.7051 12.5162 36.8313C5.99293 36.1846 0.716427 30.9037 0.0706212 24.3745ZM32.101 13.5506C31.6824 11.4585 33.2699 9.62268 35.2857 9.62268H55.6902C56.4648 9.62268 56.905 10.51 56.4371 11.1278L42.3212 29.7676H53.3812C55.397 29.7676 56.9844 31.6032 56.5659 33.6953C56.2589 35.2295 54.8219 36.2774 53.2587 36.2774H31.0994C30.3319 36.2774 29.8957 35.3983 30.3591 34.7862L44.4858 16.1324H35.4081C33.8449 16.1324 32.4079 15.0848 32.101 13.5506ZM123.833 9.69691C122.325 10.0147 121.288 11.4205 121.288 12.9639L121.288 23.8041L103.686 9.8274C103.073 9.3403 102.169 9.77774 102.169 10.5615V32.9419C102.169 34.4851 103.205 35.8912 104.714 36.2089C106.819 36.6522 108.673 35.0572 108.673 33.0286V22.0962L126.274 36.0726C126.888 36.5597 127.792 36.1226 127.792 35.3388V12.877C127.792 10.8483 125.938 9.2534 123.833 9.69691ZM58.4914 22.9472C58.4914 15.2443 67.2273 9.00008 78.0036 9.00008C88.7796 9.00008 97.5156 15.2443 97.5156 22.9472C97.5156 30.6499 88.7796 36.8944 78.0036 36.8944C67.2273 36.8944 58.4914 30.6499 58.4914 22.9472ZM91.0113 22.9472C91.0113 19.4364 85.4485 15.5098 78.0036 15.5098C70.5585 15.5098 64.9957 19.4364 64.9957 22.9472C64.9957 26.4581 70.5585 30.3847 78.0036 30.3847C85.4485 30.3847 91.0113 26.4581 91.0113 22.9472Z" fill="#005BFF"/>
  <path d="M147.248 8.4H138.66V35H147.248C154.886 35 160.624 29.984 160.624 21.7C160.624 13.416 154.886 8.4 147.248 8.4ZM147.21 12.124C152.416 12.124 156.292 15.43 156.292 21.7C156.292 27.97 152.416 31.276 147.21 31.276H142.612V12.124H147.21ZM172.722 16.874C167.212 16.874 163.108 20.826 163.108 26.222C163.108 31.618 167.212 35.57 172.722 35.57C178.232 35.57 182.336 31.618 182.336 26.222C182.336 20.826 178.232 16.874 172.722 16.874ZM172.722 20.522C176.066 20.522 178.384 22.764 178.384 26.222C178.384 29.68 176.066 31.922 172.722 31.922C169.378 31.922 167.06 29.68 167.06 26.222C167.06 22.764 169.378 20.522 172.722 20.522ZM194.684 35.57C196.964 35.57 198.902 34.962 200.688 33.784L198.94 30.63C197.724 31.39 196.204 31.96 194.57 31.96C191.188 31.96 188.984 29.528 188.984 26.222C188.984 22.916 191.188 20.484 194.57 20.484C196.204 20.484 197.724 21.054 198.94 21.814L200.688 18.66C198.902 17.482 196.964 16.874 194.684 16.874C189.022 16.874 185.032 20.636 185.032 26.222C185.032 31.808 189.022 35.57 194.684 35.57ZM209.559 35.57C213.663 35.57 216.399 33.822 216.399 30.25C216.399 27.894 215.183 26.374 212.903 25.31L209.635 23.752C208.115 23.03 207.621 22.498 207.621 21.662C207.621 20.864 208.153 20.332 209.787 20.332C211.497 20.332 213.131 20.902 214.461 21.472L215.981 18.242C214.119 17.406 211.915 16.874 209.901 16.874C206.063 16.874 203.669 18.622 203.669 21.852C203.669 23.866 204.695 25.652 207.355 26.906L210.547 28.464C212.029 29.186 212.409 29.718 212.409 30.44C212.409 31.542 211.459 32.074 209.673 32.074C207.583 32.074 205.721 31.352 204.087 30.402L202.415 33.708C204.429 34.886 207.051 35.57 209.559 35.57Z" fill="#001A34"/>
</svg>
  