<svg width="30" height="30" viewBox="0 0 30 30" fill="none" xmlns="http://www.w3.org/2000/svg">
<path d="M10 28.75H20C22.0711 28.75 23.75 27.0711 23.75 25V21.25C23.75 20.5596 23.1904 20 22.5 20C21.8096 20 21.25 20.5596 21.25 21.25V25C21.25 25.6904 20.6904 26.25 20 26.25H10C9.30964 26.25 8.75 25.6904 8.75 25V5C8.75 4.30964 9.30964 3.75 10 3.75H11.25C11.25 4.44036 11.8096 5 12.5 5H17.5C18.1904 5 18.75 4.44036 18.75 3.75H20C20.6904 3.75 21.25 4.30964 21.25 5V16.25C21.25 16.9404 21.8096 17.5 22.5 17.5C23.1904 17.5 23.75 16.9404 23.75 16.25V5C23.75 2.92893 22.0711 1.25 20 1.25H10C7.92893 1.25 6.25 2.92893 6.25 5V25C6.25 27.0711 7.92893 28.75 10 28.75Z" fill="#005BFF"/>
</svg>
